<?xml version="1.0" encoding="UTF-8" standalone="no"?>
<!DOCTYPE svg PUBLIC "-//W3C//DTD SVG 1.1//EN"
 "http://www.w3.org/Graphics/SVG/1.1/DTD/svg11.dtd">
<!-- Generated by graphviz version 2.36.0 (20140111.2315)
 -->
<!-- Title: Workflow Pages: 1 -->
<svg width="565pt" height="576pt"
 viewBox="0.00 0.00 565.00 576.00" xmlns="http://www.w3.org/2000/svg" xmlns:xlink="http://www.w3.org/1999/xlink">
<g id="graph0" class="graph" transform="scale(1 1) rotate(0) translate(4 572)">
<title>Workflow</title>
<polygon fill="white" stroke="none" points="-4,4 -4,-572 561,-572 561,4 -4,4"/>
<text text-anchor="middle" x="278.5" y="-549.6" font-family="Courier,monospace" font-size="18.00">clean_name_and_date_workflow</text>
<g id="clust3" class="cluster"><title>cluster_input_ports_group_outer</title>
<polygon fill="none" stroke="white" points="226,-486 226,-532 304,-532 304,-486 226,-486"/>
</g>
<g id="clust4" class="cluster"><title>cluster_input_ports_group_inner</title>
<polygon fill="none" stroke="white" points="234,-494 234,-524 296,-524 296,-494 234,-494"/>
</g>
<g id="clust5" class="cluster"><title>cluster_output_ports_group_outer</title>
<polygon fill="none" stroke="white" points="251,-8 251,-54 361,-54 361,-8 251,-8"/>
</g>
<g id="clust6" class="cluster"><title>cluster_output_ports_group_inner</title>
<polygon fill="none" stroke="white" points="259,-16 259,-46 353,-46 353,-16 259,-16"/>
</g>
<g id="clust1" class="cluster"><title>cluster_workflow_box_outer</title>
<polygon fill="none" stroke="black" stroke-width="2" points="8,-62 8,-478 549,-478 549,-62 8,-62"/>
</g>
<g id="clust2" class="cluster"><title>cluster_workflow_box_inner</title>
<polygon fill="none" stroke="white" stroke-width="2" points="16,-70 16,-470 541,-470 541,-70 16,-70"/>
</g>
<!-- clean_scientific_name -->
<g id="node1" class="node"><title>clean_scientific_name</title>
<polygon fill="#ccffcc" stroke="black" points="146.5,-331 146.5,-377 381.5,-377 381.5,-331 146.5,-331"/>
<text text-anchor="middle" x="264" y="-361.8" font-family="Courier,monospace" font-size="14.00">clean_scientific_name</text>
<polyline fill="none" stroke="black" points="146.5,-354 381.5,-354 "/>
<text text-anchor="middle" x="264" y="-338.8" font-family="Courier,monospace" font-size="14.00">Clean scientificName field</text>
</g>
<!-- name_cleaning_log -->
<g id="node3" class="node"><title>name_cleaning_log</title>
<path fill="#ffffcc" stroke="black" d="M401,-247C401,-247 521,-247 521,-247 527,-247 533,-253 533,-259 533,-259 533,-281 533,-281 533,-287 527,-293 521,-293 521,-293 401,-293 401,-293 395,-293 389,-287 389,-281 389,-281 389,-259 389,-259 389,-253 395,-247 401,-247"/>
<text text-anchor="middle" x="461" y="-277.8" font-family="Helvetica,sans-Serif" font-size="14.00">name_cleaning_log</text>
<polyline fill="none" stroke="black" points="389,-270 533,-270 "/>
<text text-anchor="middle" x="461" y="-254.8" font-family="Helvetica,sans-Serif" font-size="14.00">file:name_val_log.txt</text>
</g>
<!-- clean_scientific_name&#45;&gt;name_cleaning_log -->
<g id="edge2" class="edge"><title>clean_scientific_name&#45;&gt;name_cleaning_log</title>
<path fill="none" stroke="black" d="M317.052,-330.918C342.121,-320.482 372.222,-307.953 398.402,-297.056"/>
<polygon fill="black" stroke="black" points="399.967,-300.196 407.854,-293.122 397.277,-293.733 399.967,-300.196"/>
</g>
<!-- data_with_cleaned_names -->
<g id="node7" class="node"><title>data_with_cleaned_names</title>
<path fill="#ffffcc" stroke="black" d="M169.5,-247C169.5,-247 358.5,-247 358.5,-247 364.5,-247 370.5,-253 370.5,-259 370.5,-259 370.5,-281 370.5,-281 370.5,-287 364.5,-293 358.5,-293 358.5,-293 169.5,-293 169.5,-293 163.5,-293 157.5,-287 157.5,-281 157.5,-281 157.5,-259 157.5,-259 157.5,-253 163.5,-247 169.5,-247"/>
<text text-anchor="middle" x="264" y="-277.8" font-family="Helvetica,sans-Serif" font-size="14.00">data_with_cleaned_names</text>
<polyline fill="none" stroke="black" points="157.5,-270 370.5,-270 "/>
<text text-anchor="middle" x="264" y="-254.8" font-family="Helvetica,sans-Serif" font-size="14.00">file:demo_output_name_val.csv</text>
</g>
<!-- clean_scientific_name&#45;&gt;data_with_cleaned_names -->
<g id="edge1" class="edge"><title>clean_scientific_name&#45;&gt;data_with_cleaned_names</title>
<path fill="none" stroke="black" d="M264,-330.593C264,-322.118 264,-312.297 264,-303.104"/>
<polygon fill="black" stroke="black" points="267.5,-303.096 264,-293.096 260.5,-303.096 267.5,-303.096"/>
</g>
<!-- record_id_data -->
<g id="node9" class="node"><title>record_id_data</title>
<path fill="#fcfcfc" stroke="black" d="M36.5,-247C36.5,-247 127.5,-247 127.5,-247 133.5,-247 139.5,-253 139.5,-259 139.5,-259 139.5,-281 139.5,-281 139.5,-287 133.5,-293 127.5,-293 127.5,-293 36.5,-293 36.5,-293 30.5,-293 24.5,-287 24.5,-281 24.5,-281 24.5,-259 24.5,-259 24.5,-253 30.5,-247 36.5,-247"/>
<text text-anchor="middle" x="82" y="-277.8" font-family="Helvetica,sans-Serif" font-size="14.00">record_id_data</text>
<polyline fill="none" stroke="black" points="24.5,-270 139.5,-270 "/>
<text text-anchor="middle" x="82" y="-254.8" font-family="Helvetica,sans-Serif" font-size="14.00">file:record_id.txt</text>
</g>
<!-- clean_scientific_name&#45;&gt;record_id_data -->
<g id="edge3" class="edge"><title>clean_scientific_name&#45;&gt;record_id_data</title>
<path fill="none" stroke="black" d="M214.748,-330.81C191.793,-320.467 164.312,-308.086 140.325,-297.278"/>
<polygon fill="black" stroke="black" points="141.531,-293.983 130.976,-293.066 138.655,-300.365 141.531,-293.983"/>
</g>
<!-- clean_event_date -->
<g id="node2" class="node"><title>clean_event_date</title>
<polygon fill="#ccffcc" stroke="black" points="96.5,-163 96.5,-209 289.5,-209 289.5,-163 96.5,-163"/>
<text text-anchor="middle" x="193" y="-193.8" font-family="Courier,monospace" font-size="14.00">clean_event_date</text>
<polyline fill="none" stroke="black" points="96.5,-186 289.5,-186 "/>
<text text-anchor="middle" x="193" y="-170.8" font-family="Courier,monospace" font-size="14.00">Clean eventDate field</text>
</g>
<!-- data_with_cleaned_names_and_dates -->
<g id="node4" class="node"><title>data_with_cleaned_names_and_dates</title>
<path fill="#ffffcc" stroke="black" d="M190,-79C190,-79 422,-79 422,-79 428,-79 434,-85 434,-91 434,-91 434,-113 434,-113 434,-119 428,-125 422,-125 422,-125 190,-125 190,-125 184,-125 178,-119 178,-113 178,-113 178,-91 178,-91 178,-85 184,-79 190,-79"/>
<text text-anchor="middle" x="306" y="-109.8" font-family="Helvetica,sans-Serif" font-size="14.00">data_with_cleaned_names_and_dates</text>
<polyline fill="none" stroke="black" points="178,-102 434,-102 "/>
<text text-anchor="middle" x="306" y="-86.8" font-family="Helvetica,sans-Serif" font-size="14.00">file:demo_output_name_date_val.csv</text>
</g>
<!-- clean_event_date&#45;&gt;data_with_cleaned_names_and_dates -->
<g id="edge6" class="edge"><title>clean_event_date&#45;&gt;data_with_cleaned_names_and_dates</title>
<path fill="none" stroke="black" d="M223.579,-162.81C237.021,-153.056 252.96,-141.489 267.224,-131.139"/>
<polygon fill="black" stroke="black" points="269.358,-133.914 275.396,-125.208 265.247,-128.249 269.358,-133.914"/>
</g>
<!-- date_cleaning_log -->
<g id="node5" class="node"><title>date_cleaning_log</title>
<path fill="#ffffcc" stroke="black" d="M36,-79C36,-79 148,-79 148,-79 154,-79 160,-85 160,-91 160,-91 160,-113 160,-113 160,-119 154,-125 148,-125 148,-125 36,-125 36,-125 30,-125 24,-119 24,-113 24,-113 24,-91 24,-91 24,-85 30,-79 36,-79"/>
<text text-anchor="middle" x="92" y="-109.8" font-family="Helvetica,sans-Serif" font-size="14.00">date_cleaning_log</text>
<polyline fill="none" stroke="black" points="24,-102 160,-102 "/>
<text text-anchor="middle" x="92" y="-86.8" font-family="Helvetica,sans-Serif" font-size="14.00">file:date_val_log.txt</text>
</g>
<!-- clean_event_date&#45;&gt;date_cleaning_log -->
<g id="edge7" class="edge"><title>clean_event_date&#45;&gt;date_cleaning_log</title>
<path fill="none" stroke="black" d="M165.668,-162.81C153.879,-153.238 139.939,-141.921 127.375,-131.72"/>
<polygon fill="black" stroke="black" points="129.323,-128.794 119.354,-125.208 124.911,-134.228 129.323,-128.794"/>
</g>
<!-- name_cleaning_log_output_port -->
<g id="node12" class="node"><title>name_cleaning_log_output_port</title>
<ellipse fill="#ffffff" stroke="black" cx="338" cy="-31" rx="7" ry="7"/>
</g>
<!-- name_cleaning_log&#45;&gt;name_cleaning_log_output_port -->
<g id="edge12" class="edge"><title>name_cleaning_log&#45;&gt;name_cleaning_log_output_port</title>
<path fill="none" stroke="black" d="M466.382,-246.998C475.096,-205.622 487.181,-115.573 443,-62 421.537,-35.9742 379.183,-31.6342 355.348,-31.4074"/>
<polygon fill="black" stroke="black" points="354.991,-27.9122 345.044,-31.5599 355.095,-34.9114 354.991,-27.9122"/>
</g>
<!-- data_with_cleaned_names_and_dates_output_port -->
<g id="node13" class="node"><title>data_with_cleaned_names_and_dates_output_port</title>
<ellipse fill="#ffffff" stroke="black" cx="306" cy="-31" rx="7" ry="7"/>
</g>
<!-- data_with_cleaned_names_and_dates&#45;&gt;data_with_cleaned_names_and_dates_output_port -->
<g id="edge13" class="edge"><title>data_with_cleaned_names_and_dates&#45;&gt;data_with_cleaned_names_and_dates_output_port</title>
<path fill="none" stroke="black" d="M306,-78.7882C306,-68.9268 306,-57.5246 306,-48.4452"/>
<polygon fill="black" stroke="black" points="309.5,-48.1726 306,-38.1726 302.5,-48.1726 309.5,-48.1726"/>
</g>
<!-- date_cleaning_log_output_port -->
<g id="node14" class="node"><title>date_cleaning_log_output_port</title>
<ellipse fill="#ffffff" stroke="black" cx="274" cy="-31" rx="7" ry="7"/>
</g>
<!-- date_cleaning_log&#45;&gt;date_cleaning_log_output_port -->
<g id="edge14" class="edge"><title>date_cleaning_log&#45;&gt;date_cleaning_log_output_port</title>
<path fill="none" stroke="black" d="M132.097,-78.8744C143.787,-72.9246 156.723,-66.8123 169,-62 199.382,-50.0912 236.376,-40.6343 257.356,-35.7158"/>
<polygon fill="black" stroke="black" points="258.25,-39.1018 267.22,-33.4635 256.692,-32.2774 258.25,-39.1018"/>
</g>
<!-- original_dataset -->
<g id="node6" class="node"><title>original_dataset</title>
<path fill="#ffffcc" stroke="black" d="M292,-415C292,-415 404,-415 404,-415 410,-415 416,-421 416,-427 416,-427 416,-449 416,-449 416,-455 410,-461 404,-461 404,-461 292,-461 292,-461 286,-461 280,-455 280,-449 280,-449 280,-427 280,-427 280,-421 286,-415 292,-415"/>
<text text-anchor="middle" x="348" y="-445.8" font-family="Helvetica,sans-Serif" font-size="14.00">original_dataset</text>
<polyline fill="none" stroke="black" points="280,-438 416,-438 "/>
<text text-anchor="middle" x="348" y="-422.8" font-family="Helvetica,sans-Serif" font-size="14.00">file:demo_input.csv</text>
</g>
<!-- original_dataset&#45;&gt;clean_scientific_name -->
<g id="edge5" class="edge"><title>original_dataset&#45;&gt;clean_scientific_name</title>
<path fill="none" stroke="black" d="M325.047,-414.593C315.431,-405.206 304.125,-394.17 293.874,-384.163"/>
<polygon fill="black" stroke="black" points="296.235,-381.577 286.635,-377.096 291.346,-386.586 296.235,-381.577"/>
</g>
<!-- data_with_cleaned_names&#45;&gt;clean_event_date -->
<g id="edge8" class="edge"><title>data_with_cleaned_names&#45;&gt;clean_event_date</title>
<path fill="none" stroke="black" d="M244.599,-246.593C236.629,-237.389 227.286,-226.598 218.756,-216.747"/>
<polygon fill="black" stroke="black" points="221.324,-214.365 212.132,-209.096 216.032,-218.947 221.324,-214.365"/>
</g>
<!-- local_authority_source -->
<g id="node8" class="node"><title>local_authority_source</title>
<path fill="#fcfcfc" stroke="black" d="M116.5,-415C116.5,-415 249.5,-415 249.5,-415 255.5,-415 261.5,-421 261.5,-427 261.5,-427 261.5,-449 261.5,-449 261.5,-455 255.5,-461 249.5,-461 249.5,-461 116.5,-461 116.5,-461 110.5,-461 104.5,-455 104.5,-449 104.5,-449 104.5,-427 104.5,-427 104.5,-421 110.5,-415 116.5,-415"/>
<text text-anchor="middle" x="183" y="-445.8" font-family="Helvetica,sans-Serif" font-size="14.00">local_authority_source</text>
<polyline fill="none" stroke="black" points="104.5,-438 261.5,-438 "/>
<text text-anchor="middle" x="183" y="-422.8" font-family="Helvetica,sans-Serif" font-size="14.00">file:demo_localDB.csv</text>
</g>
<!-- local_authority_source&#45;&gt;clean_scientific_name -->
<g id="edge4" class="edge"><title>local_authority_source&#45;&gt;clean_scientific_name</title>
<path fill="none" stroke="black" d="M205.134,-414.593C214.316,-405.297 225.096,-394.384 234.905,-384.454"/>
<polygon fill="black" stroke="black" points="237.636,-386.67 242.174,-377.096 232.656,-381.751 237.636,-386.67"/>
</g>
<!-- record_id_data&#45;&gt;clean_event_date -->
<g id="edge9" class="edge"><title>record_id_data&#45;&gt;clean_event_date</title>
<path fill="none" stroke="black" d="M112.038,-246.81C125.118,-237.147 140.607,-225.705 154.517,-215.429"/>
<polygon fill="black" stroke="black" points="156.974,-217.965 162.938,-209.208 152.815,-212.335 156.974,-217.965"/>
</g>
<!-- original_dataset_input_port -->
<g id="node10" class="node"><title>original_dataset_input_port</title>
<ellipse fill="#ffffff" stroke="black" cx="281" cy="-509" rx="7" ry="7"/>
</g>
<!-- original_dataset_input_port&#45;&gt;original_dataset -->
<g id="edge10" class="edge"><title>original_dataset_input_port&#45;&gt;original_dataset</title>
<path fill="none" stroke="black" d="M285.396,-503.473C292.323,-496.339 306.332,-481.912 319.345,-468.51"/>
<polygon fill="black" stroke="black" points="321.965,-470.836 326.42,-461.224 316.943,-465.96 321.965,-470.836"/>
</g>
<!-- local_authority_source_input_port -->
<g id="node11" class="node"><title>local_authority_source_input_port</title>
<ellipse fill="#ffffff" stroke="black" cx="249" cy="-509" rx="7" ry="7"/>
</g>
<!-- local_authority_source_input_port&#45;&gt;local_authority_source -->
<g id="edge11" class="edge"><title>local_authority_source_input_port&#45;&gt;local_authority_source</title>
<path fill="none" stroke="black" d="M244.67,-503.473C237.846,-496.339 224.046,-481.912 211.227,-468.51"/>
<polygon fill="black" stroke="black" points="213.699,-466.031 204.257,-461.224 208.64,-470.869 213.699,-466.031"/>
</g>
</g>
</svg>
