<?xml version="1.0" encoding="UTF-8" standalone="no"?>
<!DOCTYPE svg PUBLIC "-//W3C//DTD SVG 1.1//EN"
 "http://www.w3.org/Graphics/SVG/1.1/DTD/svg11.dtd">
<!-- Generated by graphviz version 2.36.0 (20140111.2315)
 -->
<!-- Title: yw_data_view Pages: 1 -->
<svg width="524pt" height="516pt"
 viewBox="0.00 0.00 524.00 516.00" xmlns="http://www.w3.org/2000/svg" xmlns:xlink="http://www.w3.org/1999/xlink">
<g id="graph0" class="graph" transform="scale(1 1) rotate(0) translate(4 512)">
<title>yw_data_view</title>
<polygon fill="white" stroke="none" points="-4,4 -4,-512 520,-512 520,4 -4,4"/>
<text text-anchor="middle" x="258" y="-489.6" font-family="Courier,monospace" font-size="18.00">clean_name_and_date_workflow</text>
<g id="clust1" class="cluster"><title>cluster_workflow</title>
<polygon fill="none" stroke="black" stroke-width="2" points="8,-62 8,-418 508,-418 508,-62 8,-62"/>
</g>
<g id="clust2" class="cluster"><title>cluster_workflow_inner</title>
<polygon fill="none" stroke="white" stroke-width="2" points="16,-70 16,-410 500,-410 500,-70 16,-70"/>
</g>
<g id="clust3" class="cluster"><title>cluster_inflows</title>
<polygon fill="none" stroke="white" stroke-width="2" points="258,-426 258,-472 304,-472 304,-426 258,-426"/>
</g>
<g id="clust4" class="cluster"><title>cluster_inflows_inner</title>
<polygon fill="none" stroke="white" stroke-width="2" points="266,-434 266,-464 296,-464 296,-434 266,-434"/>
</g>
<g id="clust5" class="cluster"><title>cluster_outflows</title>
<polygon fill="none" stroke="white" stroke-width="2" points="308,-8 308,-54 418,-54 418,-8 308,-8"/>
</g>
<g id="clust6" class="cluster"><title>cluster_outflows_inner</title>
<polygon fill="none" stroke="white" stroke-width="2" points="316,-16 316,-46 410,-46 410,-16 316,-16"/>
</g>
<!-- clean_event_date -->
<g id="node1" class="node"><title>clean_event_date</title>
<polygon fill="#ccffcc" stroke="black" points="291.25,-186 140.75,-186 140.75,-150 291.25,-150 291.25,-186"/>
<text text-anchor="middle" x="216" y="-164.3" font-family="Courier,monospace" font-size="14.00">clean_event_date</text>
</g>
<!-- data_with_cleaned_names_and_dates -->
<g id="node7" class="node"><title>data_with_cleaned_names_and_dates</title>
<path fill="#ffffcc" stroke="black" d="M268,-114C268,-114 36,-114 36,-114 30,-114 24,-108 24,-102 24,-102 24,-90 24,-90 24,-84 30,-78 36,-78 36,-78 268,-78 268,-78 274,-78 280,-84 280,-90 280,-90 280,-102 280,-102 280,-108 274,-114 268,-114"/>
<text text-anchor="middle" x="152" y="-92.3" font-family="Helvetica,sans-Serif" font-size="14.00">data_with_cleaned_names_and_dates</text>
</g>
<!-- clean_event_date&#45;&gt;data_with_cleaned_names_and_dates -->
<g id="edge2" class="edge"><title>clean_event_date&#45;&gt;data_with_cleaned_names_and_dates</title>
<path fill="none" stroke="black" d="M200.18,-149.697C192.43,-141.22 182.961,-130.864 174.476,-121.583"/>
<polygon fill="black" stroke="black" points="176.969,-119.123 167.638,-114.104 171.803,-123.846 176.969,-119.123"/>
</g>
<!-- date_cleaning_log -->
<g id="node8" class="node"><title>date_cleaning_log</title>
<path fill="#ffffcc" stroke="black" d="M416,-114C416,-114 310,-114 310,-114 304,-114 298,-108 298,-102 298,-102 298,-90 298,-90 298,-84 304,-78 310,-78 310,-78 416,-78 416,-78 422,-78 428,-84 428,-90 428,-90 428,-102 428,-102 428,-108 422,-114 416,-114"/>
<text text-anchor="middle" x="363" y="-92.3" font-family="Helvetica,sans-Serif" font-size="14.00">date_cleaning_log</text>
</g>
<!-- clean_event_date&#45;&gt;date_cleaning_log -->
<g id="edge1" class="edge"><title>clean_event_date&#45;&gt;date_cleaning_log</title>
<path fill="none" stroke="black" d="M251.96,-149.876C271.877,-140.392 296.822,-128.513 318.02,-118.419"/>
<polygon fill="black" stroke="black" points="319.633,-121.528 327.157,-114.068 316.623,-115.208 319.633,-121.528"/>
</g>
<!-- clean_scientific_name -->
<g id="node2" class="node"><title>clean_scientific_name</title>
<polygon fill="#ccffcc" stroke="black" points="377.25,-330 184.75,-330 184.75,-294 377.25,-294 377.25,-330"/>
<text text-anchor="middle" x="281" y="-308.3" font-family="Courier,monospace" font-size="14.00">clean_scientific_name</text>
</g>
<!-- data_with_cleaned_names -->
<g id="node4" class="node"><title>data_with_cleaned_names</title>
<path fill="#ffffcc" stroke="black" d="M195.25,-258C195.25,-258 36.75,-258 36.75,-258 30.75,-258 24.75,-252 24.75,-246 24.75,-246 24.75,-234 24.75,-234 24.75,-228 30.75,-222 36.75,-222 36.75,-222 195.25,-222 195.25,-222 201.25,-222 207.25,-228 207.25,-234 207.25,-234 207.25,-246 207.25,-246 207.25,-252 201.25,-258 195.25,-258"/>
<text text-anchor="middle" x="116" y="-236.3" font-family="Helvetica,sans-Serif" font-size="14.00">data_with_cleaned_names</text>
</g>
<!-- clean_scientific_name&#45;&gt;data_with_cleaned_names -->
<g id="edge5" class="edge"><title>clean_scientific_name&#45;&gt;data_with_cleaned_names</title>
<path fill="none" stroke="black" d="M240.636,-293.876C217.98,-284.264 189.527,-272.193 165.53,-262.013"/>
<polygon fill="black" stroke="black" points="166.805,-258.752 156.232,-258.068 164.071,-265.196 166.805,-258.752"/>
</g>
<!-- name_cleaning_log -->
<g id="node5" class="node"><title>name_cleaning_log</title>
<path fill="#ffffcc" stroke="black" d="M480,-258C480,-258 366,-258 366,-258 360,-258 354,-252 354,-246 354,-246 354,-234 354,-234 354,-228 360,-222 366,-222 366,-222 480,-222 480,-222 486,-222 492,-228 492,-234 492,-234 492,-246 492,-246 492,-252 486,-258 480,-258"/>
<text text-anchor="middle" x="423" y="-236.3" font-family="Helvetica,sans-Serif" font-size="14.00">name_cleaning_log</text>
</g>
<!-- clean_scientific_name&#45;&gt;name_cleaning_log -->
<g id="edge4" class="edge"><title>clean_scientific_name&#45;&gt;name_cleaning_log</title>
<path fill="none" stroke="black" d="M315.737,-293.876C334.819,-284.469 358.679,-272.708 379.047,-262.667"/>
<polygon fill="black" stroke="black" points="380.708,-265.751 388.129,-258.19 377.612,-259.472 380.708,-265.751"/>
</g>
<!-- record_id_data -->
<g id="node6" class="node"><title>record_id_data</title>
<path fill="#ffffcc" stroke="black" d="M324,-258C324,-258 238,-258 238,-258 232,-258 226,-252 226,-246 226,-246 226,-234 226,-234 226,-228 232,-222 238,-222 238,-222 324,-222 324,-222 330,-222 336,-228 336,-234 336,-234 336,-246 336,-246 336,-252 330,-258 324,-258"/>
<text text-anchor="middle" x="281" y="-236.3" font-family="Helvetica,sans-Serif" font-size="14.00">record_id_data</text>
</g>
<!-- clean_scientific_name&#45;&gt;record_id_data -->
<g id="edge3" class="edge"><title>clean_scientific_name&#45;&gt;record_id_data</title>
<path fill="none" stroke="black" d="M281,-293.697C281,-285.983 281,-276.712 281,-268.112"/>
<polygon fill="black" stroke="black" points="284.5,-268.104 281,-258.104 277.5,-268.104 284.5,-268.104"/>
</g>
<!-- original_dataset -->
<g id="node3" class="node"><title>original_dataset</title>
<path fill="#ffffcc" stroke="black" d="M326.25,-402C326.25,-402 235.75,-402 235.75,-402 229.75,-402 223.75,-396 223.75,-390 223.75,-390 223.75,-378 223.75,-378 223.75,-372 229.75,-366 235.75,-366 235.75,-366 326.25,-366 326.25,-366 332.25,-366 338.25,-372 338.25,-378 338.25,-378 338.25,-390 338.25,-390 338.25,-396 332.25,-402 326.25,-402"/>
<text text-anchor="middle" x="281" y="-380.3" font-family="Helvetica,sans-Serif" font-size="14.00">original_dataset</text>
</g>
<!-- original_dataset&#45;&gt;clean_scientific_name -->
<g id="edge6" class="edge"><title>original_dataset&#45;&gt;clean_scientific_name</title>
<path fill="none" stroke="black" d="M281,-365.697C281,-357.983 281,-348.712 281,-340.112"/>
<polygon fill="black" stroke="black" points="284.5,-340.104 281,-330.104 277.5,-340.104 284.5,-340.104"/>
</g>
<!-- data_with_cleaned_names&#45;&gt;clean_event_date -->
<g id="edge7" class="edge"><title>data_with_cleaned_names&#45;&gt;clean_event_date</title>
<path fill="none" stroke="black" d="M140.463,-221.876C153.296,-212.893 169.196,-201.763 183.094,-192.034"/>
<polygon fill="black" stroke="black" points="185.258,-194.792 191.443,-186.19 181.244,-189.057 185.258,-194.792"/>
</g>
<!-- name_cleaning_log_outflow -->
<g id="node12" class="node"><title>name_cleaning_log_outflow</title>
<ellipse fill="none" stroke="black" cx="395" cy="-31" rx="7" ry="7"/>
</g>
<!-- name_cleaning_log&#45;&gt;name_cleaning_log_outflow -->
<g id="edge12" class="edge"><title>name_cleaning_log&#45;&gt;name_cleaning_log_outflow</title>
<path fill="none" stroke="black" d="M429.976,-221.985C442.328,-189.021 464.293,-115.036 437,-62 431.46,-51.2338 420.066,-43.4749 410.543,-38.5481"/>
<polygon fill="black" stroke="black" points="411.856,-35.2997 401.308,-34.3053 408.933,-41.6605 411.856,-35.2997"/>
</g>
<!-- record_id_data&#45;&gt;clean_event_date -->
<g id="edge8" class="edge"><title>record_id_data&#45;&gt;clean_event_date</title>
<path fill="none" stroke="black" d="M264.933,-221.697C257.061,-213.22 247.445,-202.864 238.827,-193.583"/>
<polygon fill="black" stroke="black" points="241.252,-191.051 231.883,-186.104 236.122,-195.814 241.252,-191.051"/>
</g>
<!-- data_with_cleaned_names_and_dates_outflow -->
<g id="node11" class="node"><title>data_with_cleaned_names_and_dates_outflow</title>
<ellipse fill="none" stroke="black" cx="331" cy="-31" rx="7" ry="7"/>
</g>
<!-- data_with_cleaned_names_and_dates&#45;&gt;data_with_cleaned_names_and_dates_outflow -->
<g id="edge11" class="edge"><title>data_with_cleaned_names_and_dates&#45;&gt;data_with_cleaned_names_and_dates_outflow</title>
<path fill="none" stroke="black" d="M200.44,-77.9513C238.681,-64.4921 289.691,-46.539 315.147,-37.5794"/>
<polygon fill="black" stroke="black" points="316.375,-40.8579 324.646,-34.2364 314.051,-34.2549 316.375,-40.8579"/>
</g>
<!-- date_cleaning_log_outflow -->
<g id="node10" class="node"><title>date_cleaning_log_outflow</title>
<ellipse fill="none" stroke="black" cx="363" cy="-31" rx="7" ry="7"/>
</g>
<!-- date_cleaning_log&#45;&gt;date_cleaning_log_outflow -->
<g id="edge10" class="edge"><title>date_cleaning_log&#45;&gt;date_cleaning_log_outflow</title>
<path fill="none" stroke="black" d="M363,-77.785C363,-68.6656 363,-57.5197 363,-48.5085"/>
<polygon fill="black" stroke="black" points="366.5,-48.242 363,-38.242 359.5,-48.2421 366.5,-48.242"/>
</g>
<!-- original_dataset_inflow -->
<g id="node9" class="node"><title>original_dataset_inflow</title>
<ellipse fill="none" stroke="black" cx="281" cy="-449" rx="7" ry="7"/>
</g>
<!-- original_dataset_inflow&#45;&gt;original_dataset -->
<g id="edge9" class="edge"><title>original_dataset_inflow&#45;&gt;original_dataset</title>
<path fill="none" stroke="black" d="M281,-441.729C281,-434.795 281,-423.154 281,-412.215"/>
<polygon fill="black" stroke="black" points="284.5,-412.119 281,-402.119 277.5,-412.119 284.5,-412.119"/>
</g>
</g>
</svg>
