<?xml version="1.0" encoding="UTF-8" standalone="no"?>
<!DOCTYPE svg PUBLIC "-//W3C//DTD SVG 1.1//EN"
 "http://www.w3.org/Graphics/SVG/1.1/DTD/svg11.dtd">
<!-- Generated by graphviz version 2.36.0 (20140111.2315)
 -->
<!-- Title: yw_data_view Pages: 1 -->
<svg width="327pt" height="174pt"
 viewBox="0.00 0.00 327.00 174.00" xmlns="http://www.w3.org/2000/svg" xmlns:xlink="http://www.w3.org/1999/xlink">
<g id="graph0" class="graph" transform="scale(1 1) rotate(0) translate(4 170)">
<title>yw_data_view</title>
<polygon fill="white" stroke="none" points="-4,4 -4,-170 323,-170 323,4 -4,4"/>
<text text-anchor="middle" x="159.5" y="-147.6" font-family="Courier,monospace" font-size="18.00">clean_name_and_date_workflow</text>
<g id="clust1" class="cluster"><title>cluster_workflow</title>
<polygon fill="none" stroke="black" stroke-width="2" points="15.5,-62 15.5,-130 303.5,-130 303.5,-62 15.5,-62"/>
</g>
<g id="clust2" class="cluster"><title>cluster_workflow_inner</title>
<polygon fill="none" stroke="white" stroke-width="2" points="23.5,-70 23.5,-122 295.5,-122 295.5,-70 23.5,-70"/>
</g>
<g id="clust5" class="cluster"><title>cluster_outflows</title>
<polygon fill="none" stroke="white" stroke-width="2" points="136.5,-8 136.5,-54 182.5,-54 182.5,-8 136.5,-8"/>
</g>
<g id="clust6" class="cluster"><title>cluster_outflows_inner</title>
<polygon fill="none" stroke="white" stroke-width="2" points="144.5,-16 144.5,-46 174.5,-46 174.5,-16 144.5,-16"/>
</g>
<!-- data_with_cleaned_names_and_dates -->
<g id="node1" class="node"><title>data_with_cleaned_names_and_dates</title>
<path fill="#ffffcc" stroke="black" d="M275.5,-114C275.5,-114 43.5,-114 43.5,-114 37.5,-114 31.5,-108 31.5,-102 31.5,-102 31.5,-90 31.5,-90 31.5,-84 37.5,-78 43.5,-78 43.5,-78 275.5,-78 275.5,-78 281.5,-78 287.5,-84 287.5,-90 287.5,-90 287.5,-102 287.5,-102 287.5,-108 281.5,-114 275.5,-114"/>
<text text-anchor="middle" x="159.5" y="-92.3" font-family="Helvetica,sans-Serif" font-size="14.00">data_with_cleaned_names_and_dates</text>
</g>
<!-- data_with_cleaned_names_and_dates_outflow -->
<g id="node2" class="node"><title>data_with_cleaned_names_and_dates_outflow</title>
<ellipse fill="none" stroke="black" cx="159.5" cy="-31" rx="7" ry="7"/>
</g>
<!-- data_with_cleaned_names_and_dates&#45;&gt;data_with_cleaned_names_and_dates_outflow -->
<g id="edge1" class="edge"><title>data_with_cleaned_names_and_dates&#45;&gt;data_with_cleaned_names_and_dates_outflow</title>
<path fill="none" stroke="black" d="M159.5,-77.785C159.5,-68.6656 159.5,-57.5197 159.5,-48.5085"/>
<polygon fill="black" stroke="black" points="163,-48.242 159.5,-38.242 156,-48.2421 163,-48.242"/>
</g>
</g>
</svg>
