<?xml version="1.0" encoding="UTF-8" standalone="no"?>
<!DOCTYPE svg PUBLIC "-//W3C//DTD SVG 1.1//EN"
 "http://www.w3.org/Graphics/SVG/1.1/DTD/svg11.dtd">
<!-- Generated by graphviz version 2.36.0 (20140111.2315)
 -->
<!-- Title: yw_data_view Pages: 1 -->
<svg width="328pt" height="376pt"
 viewBox="0.00 0.00 328.00 376.00" xmlns="http://www.w3.org/2000/svg" xmlns:xlink="http://www.w3.org/1999/xlink">
<g id="graph0" class="graph" transform="scale(1 1) rotate(0) translate(4 372)">
<title>yw_data_view</title>
<polygon fill="white" stroke="none" points="-4,4 -4,-372 324,-372 324,4 -4,4"/>
<text text-anchor="middle" x="160" y="-349.6" font-family="Courier,monospace" font-size="18.00">clean_name_and_date_workflow</text>
<g id="clust5" class="cluster"><title>cluster_outflows</title>
<polygon fill="none" stroke="white" stroke-width="2" points="137,-8 137,-54 183,-54 183,-8 137,-8"/>
</g>
<g id="clust6" class="cluster"><title>cluster_outflows_inner</title>
<polygon fill="none" stroke="white" stroke-width="2" points="145,-16 145,-46 175,-46 175,-16 145,-16"/>
</g>
<g id="clust3" class="cluster"><title>cluster_inflows</title>
<polygon fill="none" stroke="white" stroke-width="2" points="111,-286 111,-332 189,-332 189,-286 111,-286"/>
</g>
<g id="clust4" class="cluster"><title>cluster_inflows_inner</title>
<polygon fill="none" stroke="white" stroke-width="2" points="119,-294 119,-324 181,-324 181,-294 119,-294"/>
</g>
<g id="clust1" class="cluster"><title>cluster_workflow</title>
<polygon fill="none" stroke="black" stroke-width="2" points="8,-62 8,-278 312,-278 312,-62 8,-62"/>
</g>
<g id="clust2" class="cluster"><title>cluster_workflow_inner</title>
<polygon fill="none" stroke="white" stroke-width="2" points="16,-70 16,-270 304,-270 304,-70 16,-70"/>
</g>
<!-- clean_scientific_name -->
<g id="node1" class="node"><title>clean_scientific_name</title>
<polygon fill="#ccffcc" stroke="black" points="256.25,-188 63.75,-188 63.75,-152 256.25,-152 256.25,-188"/>
<text text-anchor="middle" x="160" y="-166.3" font-family="Courier,monospace" font-size="14.00">clean_scientific_name</text>
</g>
<!-- name_cleaning_log -->
<g id="node3" class="node"><title>name_cleaning_log</title>
<path fill="#ffe4b5" stroke="black" d="M96,-79C96,-79 224,-79 224,-79 230,-79 236,-85 236,-91 236,-91 236,-103 236,-103 236,-109 230,-115 224,-115 224,-115 96,-115 96,-115 90,-115 84,-109 84,-103 84,-103 84,-91 84,-91 84,-85 90,-79 96,-79"/>
<text text-anchor="middle" x="160" y="-103.8" font-family="Courier,monospace" font-weight="bold" font-size="9.00">[data9] name_cleaning_log</text>
<polyline fill="none" stroke="black" points="84,-97 236,-97 "/>
<text text-anchor="start" x="92" y="-85.8" font-family="Courier,monospace" font-weight="bold" font-size="9.00">name_val_log.txt</text>
</g>
<!-- clean_scientific_name&#45;&gt;name_cleaning_log -->
<g id="edge3" class="edge"><title>clean_scientific_name&#45;&gt;name_cleaning_log</title>
<path fill="none" stroke="black" d="M160,-151.813C160,-143.789 160,-134.047 160,-125.069"/>
<polygon fill="black" stroke="black" points="163.5,-125.029 160,-115.029 156.5,-125.029 163.5,-125.029"/>
</g>
<!-- original_dataset -->
<g id="node2" class="node"><title>original_dataset</title>
<path fill="#ffe4b5" stroke="black" d="M162,-225C162,-225 284,-225 284,-225 290,-225 296,-231 296,-237 296,-237 296,-249 296,-249 296,-255 290,-261 284,-261 284,-261 162,-261 162,-261 156,-261 150,-255 150,-249 150,-249 150,-237 150,-237 150,-231 156,-225 162,-225"/>
<text text-anchor="middle" x="223" y="-249.8" font-family="Courier,monospace" font-weight="bold" font-size="9.00">[data7] original_dataset</text>
<polyline fill="none" stroke="black" points="150,-243 296,-243 "/>
<text text-anchor="start" x="158" y="-231.8" font-family="Courier,monospace" font-weight="bold" font-size="9.00">demo_input.csv</text>
</g>
<!-- original_dataset&#45;&gt;clean_scientific_name -->
<g id="edge1" class="edge"><title>original_dataset&#45;&gt;clean_scientific_name</title>
<path fill="none" stroke="black" d="M207.749,-224.813C200.011,-216.092 190.471,-205.34 181.958,-195.746"/>
<polygon fill="black" stroke="black" points="184.365,-193.186 175.11,-188.029 179.129,-197.832 184.365,-193.186"/>
</g>
<!-- name_cleaning_log_outflow -->
<g id="node7" class="node"><title>name_cleaning_log_outflow</title>
<ellipse fill="none" stroke="black" cx="160" cy="-31" rx="7" ry="7"/>
</g>
<!-- name_cleaning_log&#45;&gt;name_cleaning_log_outflow -->
<g id="edge6" class="edge"><title>name_cleaning_log&#45;&gt;name_cleaning_log_outflow</title>
<path fill="none" stroke="black" d="M160,-78.8492C160,-69.3727 160,-57.6638 160,-48.3223"/>
<polygon fill="black" stroke="black" points="163.5,-48.1021 160,-38.1022 156.5,-48.1022 163.5,-48.1021"/>
</g>
<!-- local_authority_source -->
<g id="node4" class="node"><title>local_authority_source</title>
<path fill="#ffffff" stroke="black" d="M119.25,-261C119.25,-261 36.75,-261 36.75,-261 30.75,-261 24.75,-255 24.75,-249 24.75,-249 24.75,-237 24.75,-237 24.75,-231 30.75,-225 36.75,-225 36.75,-225 119.25,-225 119.25,-225 125.25,-225 131.25,-231 131.25,-237 131.25,-237 131.25,-249 131.25,-249 131.25,-255 125.25,-261 119.25,-261"/>
<text text-anchor="middle" x="78" y="-240.8" font-family="Helvetica,sans-Serif" font-size="9.00">local_authority_source</text>
</g>
<!-- local_authority_source&#45;&gt;clean_scientific_name -->
<g id="edge2" class="edge"><title>local_authority_source&#45;&gt;clean_scientific_name</title>
<path fill="none" stroke="black" d="M97.8499,-224.813C108.325,-215.743 121.337,-204.477 132.743,-194.6"/>
<polygon fill="black" stroke="black" points="135.064,-197.221 140.333,-188.029 130.482,-191.929 135.064,-197.221"/>
</g>
<!-- original_dataset_inflow -->
<g id="node5" class="node"><title>original_dataset_inflow</title>
<ellipse fill="none" stroke="black" cx="166" cy="-309" rx="7" ry="7"/>
</g>
<!-- original_dataset_inflow&#45;&gt;original_dataset -->
<g id="edge4" class="edge"><title>original_dataset_inflow&#45;&gt;original_dataset</title>
<path fill="none" stroke="black" d="M170.473,-302.978C177.036,-295.608 189.721,-281.366 200.98,-268.724"/>
<polygon fill="black" stroke="black" points="203.702,-270.931 207.739,-261.135 198.474,-266.275 203.702,-270.931"/>
</g>
<!-- local_authority_source_inflow -->
<g id="node6" class="node"><title>local_authority_source_inflow</title>
<ellipse fill="none" stroke="black" cx="134" cy="-309" rx="7" ry="7"/>
</g>
<!-- local_authority_source_inflow&#45;&gt;local_authority_source -->
<g id="edge5" class="edge"><title>local_authority_source_inflow&#45;&gt;local_authority_source</title>
<path fill="none" stroke="black" d="M129.606,-302.978C123.157,-295.608 110.696,-281.366 99.6336,-268.724"/>
<polygon fill="black" stroke="black" points="102.212,-266.356 92.9932,-261.135 96.9442,-270.966 102.212,-266.356"/>
</g>
</g>
</svg>
