<?xml version="1.0" encoding="UTF-8" standalone="no"?>
<!DOCTYPE svg PUBLIC "-//W3C//DTD SVG 1.1//EN"
 "http://www.w3.org/Graphics/SVG/1.1/DTD/svg11.dtd">
<!-- Generated by graphviz version 2.36.0 (20140111.2315)
 -->
<!-- Title: yw_data_view Pages: 1 -->
<svg width="368pt" height="520pt"
 viewBox="0.00 0.00 368.00 520.00" xmlns="http://www.w3.org/2000/svg" xmlns:xlink="http://www.w3.org/1999/xlink">
<g id="graph0" class="graph" transform="scale(1 1) rotate(0) translate(4 516)">
<title>yw_data_view</title>
<polygon fill="white" stroke="none" points="-4,4 -4,-516 364,-516 364,4 -4,4"/>
<text text-anchor="middle" x="180" y="-493.6" font-family="Courier,monospace" font-size="18.00">clean_name_and_date_workflow</text>
<g id="clust1" class="cluster"><title>cluster_workflow</title>
<polygon fill="none" stroke="black" stroke-width="2" points="8,-62 8,-422 352,-422 352,-62 8,-62"/>
</g>
<g id="clust2" class="cluster"><title>cluster_workflow_inner</title>
<polygon fill="none" stroke="white" stroke-width="2" points="16,-70 16,-414 344,-414 344,-70 16,-70"/>
</g>
<g id="clust3" class="cluster"><title>cluster_inflows</title>
<polygon fill="none" stroke="white" stroke-width="2" points="131,-430 131,-476 209,-476 209,-430 131,-430"/>
</g>
<g id="clust4" class="cluster"><title>cluster_inflows_inner</title>
<polygon fill="none" stroke="white" stroke-width="2" points="139,-438 139,-468 201,-468 201,-438 139,-438"/>
</g>
<g id="clust5" class="cluster"><title>cluster_outflows</title>
<polygon fill="none" stroke="white" stroke-width="2" points="157,-8 157,-54 203,-54 203,-8 157,-8"/>
</g>
<g id="clust6" class="cluster"><title>cluster_outflows_inner</title>
<polygon fill="none" stroke="white" stroke-width="2" points="165,-16 165,-46 195,-46 195,-16 165,-16"/>
</g>
<!-- clean_scientific_name -->
<g id="node1" class="node"><title>clean_scientific_name</title>
<polygon fill="#ccffcc" stroke="black" points="276.25,-332 83.75,-332 83.75,-296 276.25,-296 276.25,-332"/>
<text text-anchor="middle" x="180" y="-310.3" font-family="Courier,monospace" font-size="14.00">clean_scientific_name</text>
</g>
<!-- data_with_cleaned_names -->
<g id="node3" class="node"><title>data_with_cleaned_names</title>
<path fill="#ffffcc" stroke="black" d="M195.25,-260C195.25,-260 36.75,-260 36.75,-260 30.75,-260 24.75,-254 24.75,-248 24.75,-248 24.75,-236 24.75,-236 24.75,-230 30.75,-224 36.75,-224 36.75,-224 195.25,-224 195.25,-224 201.25,-224 207.25,-230 207.25,-236 207.25,-236 207.25,-248 207.25,-248 207.25,-254 201.25,-260 195.25,-260"/>
<text text-anchor="middle" x="116" y="-238.3" font-family="Helvetica,sans-Serif" font-size="14.00">data_with_cleaned_names</text>
</g>
<!-- clean_scientific_name&#45;&gt;data_with_cleaned_names -->
<g id="edge5" class="edge"><title>clean_scientific_name&#45;&gt;data_with_cleaned_names</title>
<path fill="none" stroke="black" d="M164.18,-295.697C156.43,-287.22 146.961,-276.864 138.476,-267.583"/>
<polygon fill="black" stroke="black" points="140.969,-265.123 131.638,-260.104 135.803,-269.846 140.969,-265.123"/>
</g>
<!-- record_id_data -->
<g id="node4" class="node"><title>record_id_data</title>
<path fill="#ffffcc" stroke="black" d="M324,-260C324,-260 238,-260 238,-260 232,-260 226,-254 226,-248 226,-248 226,-236 226,-236 226,-230 232,-224 238,-224 238,-224 324,-224 324,-224 330,-224 336,-230 336,-236 336,-236 336,-248 336,-248 336,-254 330,-260 324,-260"/>
<text text-anchor="middle" x="281" y="-238.3" font-family="Helvetica,sans-Serif" font-size="14.00">record_id_data</text>
</g>
<!-- clean_scientific_name&#45;&gt;record_id_data -->
<g id="edge6" class="edge"><title>clean_scientific_name&#45;&gt;record_id_data</title>
<path fill="none" stroke="black" d="M204.707,-295.876C217.669,-286.893 233.728,-275.763 247.765,-266.034"/>
<polygon fill="black" stroke="black" points="249.972,-268.763 256.198,-260.19 245.985,-263.009 249.972,-268.763"/>
</g>
<!-- clean_event_date -->
<g id="node2" class="node"><title>clean_event_date</title>
<polygon fill="#ccffcc" stroke="black" points="255.25,-188 104.75,-188 104.75,-152 255.25,-152 255.25,-188"/>
<text text-anchor="middle" x="180" y="-166.3" font-family="Courier,monospace" font-size="14.00">clean_event_date</text>
</g>
<!-- data_with_cleaned_names_and_dates -->
<g id="node6" class="node"><title>data_with_cleaned_names_and_dates</title>
<path fill="#ffe4b5" stroke="black" d="M70.5,-79C70.5,-79 289.5,-79 289.5,-79 295.5,-79 301.5,-85 301.5,-91 301.5,-91 301.5,-103 301.5,-103 301.5,-109 295.5,-115 289.5,-115 289.5,-115 70.5,-115 70.5,-115 64.5,-115 58.5,-109 58.5,-103 58.5,-103 58.5,-91 58.5,-91 58.5,-85 64.5,-79 70.5,-79"/>
<text text-anchor="middle" x="180" y="-103.8" font-family="Courier,monospace" font-weight="bold" font-size="9.00">[data31] data_with_cleaned_names_and_dates</text>
<polyline fill="none" stroke="black" points="58.5,-97 301.5,-97 "/>
<text text-anchor="start" x="66.5" y="-85.8" font-family="Courier,monospace" font-weight="bold" font-size="9.00">demo_output_name_date_val.csv</text>
</g>
<!-- clean_event_date&#45;&gt;data_with_cleaned_names_and_dates -->
<g id="edge7" class="edge"><title>clean_event_date&#45;&gt;data_with_cleaned_names_and_dates</title>
<path fill="none" stroke="black" d="M180,-151.813C180,-143.789 180,-134.047 180,-125.069"/>
<polygon fill="black" stroke="black" points="183.5,-125.029 180,-115.029 176.5,-125.029 183.5,-125.029"/>
</g>
<!-- data_with_cleaned_names&#45;&gt;clean_event_date -->
<g id="edge2" class="edge"><title>data_with_cleaned_names&#45;&gt;clean_event_date</title>
<path fill="none" stroke="black" d="M131.82,-223.697C139.57,-215.22 149.039,-204.864 157.524,-195.583"/>
<polygon fill="black" stroke="black" points="160.197,-197.846 164.362,-188.104 155.031,-193.123 160.197,-197.846"/>
</g>
<!-- record_id_data&#45;&gt;clean_event_date -->
<g id="edge1" class="edge"><title>record_id_data&#45;&gt;clean_event_date</title>
<path fill="none" stroke="black" d="M256.293,-223.876C243.331,-214.893 227.272,-203.763 213.235,-194.034"/>
<polygon fill="black" stroke="black" points="215.015,-191.009 204.802,-188.19 211.028,-196.763 215.015,-191.009"/>
</g>
<!-- original_dataset -->
<g id="node5" class="node"><title>original_dataset</title>
<path fill="#ffe4b5" stroke="black" d="M182,-369C182,-369 304,-369 304,-369 310,-369 316,-375 316,-381 316,-381 316,-393 316,-393 316,-399 310,-405 304,-405 304,-405 182,-405 182,-405 176,-405 170,-399 170,-393 170,-393 170,-381 170,-381 170,-375 176,-369 182,-369"/>
<text text-anchor="middle" x="243" y="-393.8" font-family="Courier,monospace" font-weight="bold" font-size="9.00">[data7] original_dataset</text>
<polyline fill="none" stroke="black" points="170,-387 316,-387 "/>
<text text-anchor="start" x="178" y="-375.8" font-family="Courier,monospace" font-weight="bold" font-size="9.00">demo_input.csv</text>
</g>
<!-- original_dataset&#45;&gt;clean_scientific_name -->
<g id="edge3" class="edge"><title>original_dataset&#45;&gt;clean_scientific_name</title>
<path fill="none" stroke="black" d="M227.749,-368.813C220.011,-360.092 210.471,-349.34 201.958,-339.746"/>
<polygon fill="black" stroke="black" points="204.365,-337.186 195.11,-332.029 199.129,-341.832 204.365,-337.186"/>
</g>
<!-- data_with_cleaned_names_and_dates_outflow -->
<g id="node10" class="node"><title>data_with_cleaned_names_and_dates_outflow</title>
<ellipse fill="none" stroke="black" cx="180" cy="-31" rx="7" ry="7"/>
</g>
<!-- data_with_cleaned_names_and_dates&#45;&gt;data_with_cleaned_names_and_dates_outflow -->
<g id="edge10" class="edge"><title>data_with_cleaned_names_and_dates&#45;&gt;data_with_cleaned_names_and_dates_outflow</title>
<path fill="none" stroke="black" d="M180,-78.8492C180,-69.3727 180,-57.6638 180,-48.3223"/>
<polygon fill="black" stroke="black" points="183.5,-48.1021 180,-38.1022 176.5,-48.1022 183.5,-48.1021"/>
</g>
<!-- local_authority_source -->
<g id="node7" class="node"><title>local_authority_source</title>
<path fill="#ffffff" stroke="black" d="M139.25,-405C139.25,-405 56.75,-405 56.75,-405 50.75,-405 44.75,-399 44.75,-393 44.75,-393 44.75,-381 44.75,-381 44.75,-375 50.75,-369 56.75,-369 56.75,-369 139.25,-369 139.25,-369 145.25,-369 151.25,-375 151.25,-381 151.25,-381 151.25,-393 151.25,-393 151.25,-399 145.25,-405 139.25,-405"/>
<text text-anchor="middle" x="98" y="-384.8" font-family="Helvetica,sans-Serif" font-size="9.00">local_authority_source</text>
</g>
<!-- local_authority_source&#45;&gt;clean_scientific_name -->
<g id="edge4" class="edge"><title>local_authority_source&#45;&gt;clean_scientific_name</title>
<path fill="none" stroke="black" d="M117.85,-368.813C128.325,-359.743 141.337,-348.477 152.743,-338.6"/>
<polygon fill="black" stroke="black" points="155.064,-341.221 160.333,-332.029 150.482,-335.929 155.064,-341.221"/>
</g>
<!-- original_dataset_inflow -->
<g id="node8" class="node"><title>original_dataset_inflow</title>
<ellipse fill="none" stroke="black" cx="186" cy="-453" rx="7" ry="7"/>
</g>
<!-- original_dataset_inflow&#45;&gt;original_dataset -->
<g id="edge8" class="edge"><title>original_dataset_inflow&#45;&gt;original_dataset</title>
<path fill="none" stroke="black" d="M190.473,-446.978C197.036,-439.608 209.721,-425.366 220.98,-412.724"/>
<polygon fill="black" stroke="black" points="223.702,-414.931 227.739,-405.135 218.474,-410.275 223.702,-414.931"/>
</g>
<!-- local_authority_source_inflow -->
<g id="node9" class="node"><title>local_authority_source_inflow</title>
<ellipse fill="none" stroke="black" cx="154" cy="-453" rx="7" ry="7"/>
</g>
<!-- local_authority_source_inflow&#45;&gt;local_authority_source -->
<g id="edge9" class="edge"><title>local_authority_source_inflow&#45;&gt;local_authority_source</title>
<path fill="none" stroke="black" d="M149.606,-446.978C143.157,-439.608 130.696,-425.366 119.634,-412.724"/>
<polygon fill="black" stroke="black" points="122.212,-410.356 112.993,-405.135 116.944,-414.966 122.212,-410.356"/>
</g>
</g>
</svg>
