<?xml version="1.0" encoding="UTF-8" standalone="no"?>
<!DOCTYPE svg PUBLIC "-//W3C//DTD SVG 1.1//EN"
 "http://www.w3.org/Graphics/SVG/1.1/DTD/svg11.dtd">
<!-- Generated by graphviz version 2.36.0 (20140111.2315)
 -->
<!-- Title: yw_data_view Pages: 1 -->
<svg width="475pt" height="522pt"
 viewBox="0.00 0.00 475.00 522.00" xmlns="http://www.w3.org/2000/svg" xmlns:xlink="http://www.w3.org/1999/xlink">
<g id="graph0" class="graph" transform="scale(1 1) rotate(0) translate(4 518)">
<title>yw_data_view</title>
<polygon fill="white" stroke="none" points="-4,4 -4,-518 471,-518 471,4 -4,4"/>
<text text-anchor="middle" x="233.5" y="-495.6" font-family="Courier,monospace" font-size="18.00">clean_name_and_date_workflow</text>
<g id="clust1" class="cluster"><title>cluster_workflow</title>
<polygon fill="none" stroke="black" stroke-width="2" points="8,-62 8,-424 459,-424 459,-62 8,-62"/>
</g>
<g id="clust2" class="cluster"><title>cluster_workflow_inner</title>
<polygon fill="none" stroke="white" stroke-width="2" points="16,-70 16,-416 451,-416 451,-70 16,-70"/>
</g>
<g id="clust3" class="cluster"><title>cluster_inflows</title>
<polygon fill="none" stroke="white" stroke-width="2" points="190,-432 190,-478 268,-478 268,-432 190,-432"/>
</g>
<g id="clust4" class="cluster"><title>cluster_inflows_inner</title>
<polygon fill="none" stroke="white" stroke-width="2" points="198,-440 198,-470 260,-470 260,-440 198,-440"/>
</g>
<g id="clust5" class="cluster"><title>cluster_outflows</title>
<polygon fill="none" stroke="white" stroke-width="2" points="309,-8 309,-54 419,-54 419,-8 309,-8"/>
</g>
<g id="clust6" class="cluster"><title>cluster_outflows_inner</title>
<polygon fill="none" stroke="white" stroke-width="2" points="317,-16 317,-46 411,-46 411,-16 317,-16"/>
</g>
<!-- clean_scientific_name -->
<g id="node1" class="node"><title>clean_scientific_name</title>
<polygon fill="#ccffcc" stroke="black" points="330.25,-334 137.75,-334 137.75,-298 330.25,-298 330.25,-334"/>
<text text-anchor="middle" x="234" y="-312.3" font-family="Courier,monospace" font-size="14.00">clean_scientific_name</text>
</g>
<!-- data_with_cleaned_names -->
<g id="node4" class="node"><title>data_with_cleaned_names</title>
<path fill="#ffffcc" stroke="black" d="M165,-261C165,-261 65,-261 65,-261 59,-261 53,-255 53,-249 53,-249 53,-237 53,-237 53,-231 59,-225 65,-225 65,-225 165,-225 165,-225 171,-225 177,-231 177,-237 177,-237 177,-249 177,-249 177,-255 171,-261 165,-261"/>
<text text-anchor="middle" x="115" y="-240.8" font-family="Helvetica,sans-Serif" font-size="9.00">data_with_cleaned_names</text>
</g>
<!-- clean_scientific_name&#45;&gt;data_with_cleaned_names -->
<g id="edge5" class="edge"><title>clean_scientific_name&#45;&gt;data_with_cleaned_names</title>
<path fill="none" stroke="black" d="M205.497,-297.994C189.57,-288.491 169.533,-276.536 152.363,-266.292"/>
<polygon fill="black" stroke="black" points="154.064,-263.232 143.683,-261.114 150.478,-269.243 154.064,-263.232"/>
</g>
<!-- record_id_data -->
<g id="node5" class="node"><title>record_id_data</title>
<path fill="#ffffcc" stroke="black" d="M260.25,-261C260.25,-261 207.75,-261 207.75,-261 201.75,-261 195.75,-255 195.75,-249 195.75,-249 195.75,-237 195.75,-237 195.75,-231 201.75,-225 207.75,-225 207.75,-225 260.25,-225 260.25,-225 266.25,-225 272.25,-231 272.25,-237 272.25,-237 272.25,-249 272.25,-249 272.25,-255 266.25,-261 260.25,-261"/>
<text text-anchor="middle" x="234" y="-240.8" font-family="Helvetica,sans-Serif" font-size="9.00">record_id_data</text>
</g>
<!-- clean_scientific_name&#45;&gt;record_id_data -->
<g id="edge7" class="edge"><title>clean_scientific_name&#45;&gt;record_id_data</title>
<path fill="none" stroke="black" d="M234,-297.813C234,-289.789 234,-280.047 234,-271.069"/>
<polygon fill="black" stroke="black" points="237.5,-271.029 234,-261.029 230.5,-271.029 237.5,-271.029"/>
</g>
<!-- name_cleaning_log -->
<g id="node6" class="node"><title>name_cleaning_log</title>
<path fill="#ffe4b5" stroke="black" d="M303,-225C303,-225 431,-225 431,-225 437,-225 443,-231 443,-237 443,-237 443,-249 443,-249 443,-255 437,-261 431,-261 431,-261 303,-261 303,-261 297,-261 291,-255 291,-249 291,-249 291,-237 291,-237 291,-231 297,-225 303,-225"/>
<text text-anchor="middle" x="367" y="-249.8" font-family="Courier,monospace" font-weight="bold" font-size="9.00">[data9] name_cleaning_log</text>
<polyline fill="none" stroke="black" points="291,-243 443,-243 "/>
<text text-anchor="start" x="299" y="-231.8" font-family="Courier,monospace" font-weight="bold" font-size="9.00">name_val_log.txt</text>
</g>
<!-- clean_scientific_name&#45;&gt;name_cleaning_log -->
<g id="edge6" class="edge"><title>clean_scientific_name&#45;&gt;name_cleaning_log</title>
<path fill="none" stroke="black" d="M265.857,-297.994C283.902,-288.361 306.669,-276.207 326.031,-265.87"/>
<polygon fill="black" stroke="black" points="327.769,-268.911 334.942,-261.114 324.472,-262.735 327.769,-268.911"/>
</g>
<!-- clean_event_date -->
<g id="node2" class="node"><title>clean_event_date</title>
<polygon fill="#ccffcc" stroke="black" points="265.25,-188 114.75,-188 114.75,-152 265.25,-152 265.25,-188"/>
<text text-anchor="middle" x="190" y="-166.3" font-family="Courier,monospace" font-size="14.00">clean_event_date</text>
</g>
<!-- data_with_cleaned_names_and_dates -->
<g id="node7" class="node"><title>data_with_cleaned_names_and_dates</title>
<path fill="#ffe4b5" stroke="black" d="M36.5,-79C36.5,-79 255.5,-79 255.5,-79 261.5,-79 267.5,-85 267.5,-91 267.5,-91 267.5,-103 267.5,-103 267.5,-109 261.5,-115 255.5,-115 255.5,-115 36.5,-115 36.5,-115 30.5,-115 24.5,-109 24.5,-103 24.5,-103 24.5,-91 24.5,-91 24.5,-85 30.5,-79 36.5,-79"/>
<text text-anchor="middle" x="146" y="-103.8" font-family="Courier,monospace" font-weight="bold" font-size="9.00">[data31] data_with_cleaned_names_and_dates</text>
<polyline fill="none" stroke="black" points="24.5,-97 267.5,-97 "/>
<text text-anchor="start" x="32.5" y="-85.8" font-family="Courier,monospace" font-weight="bold" font-size="9.00">demo_output_name_date_val.csv</text>
</g>
<!-- clean_event_date&#45;&gt;data_with_cleaned_names_and_dates -->
<g id="edge8" class="edge"><title>clean_event_date&#45;&gt;data_with_cleaned_names_and_dates</title>
<path fill="none" stroke="black" d="M179.349,-151.813C174.106,-143.353 167.68,-132.984 161.873,-123.612"/>
<polygon fill="black" stroke="black" points="164.796,-121.685 156.553,-115.029 158.846,-125.373 164.796,-121.685"/>
</g>
<!-- date_cleaning_log -->
<g id="node8" class="node"><title>date_cleaning_log</title>
<path fill="#ffe4b5" stroke="black" d="M297.5,-79C297.5,-79 430.5,-79 430.5,-79 436.5,-79 442.5,-85 442.5,-91 442.5,-91 442.5,-103 442.5,-103 442.5,-109 436.5,-115 430.5,-115 430.5,-115 297.5,-115 297.5,-115 291.5,-115 285.5,-109 285.5,-103 285.5,-103 285.5,-91 285.5,-91 285.5,-85 291.5,-79 297.5,-79"/>
<text text-anchor="middle" x="364" y="-103.8" font-family="Courier,monospace" font-weight="bold" font-size="9.00">[data32] date_cleaning_log</text>
<polyline fill="none" stroke="black" points="285.5,-97 442.5,-97 "/>
<text text-anchor="start" x="293.5" y="-85.8" font-family="Courier,monospace" font-weight="bold" font-size="9.00">date_val_log.txt</text>
</g>
<!-- clean_event_date&#45;&gt;date_cleaning_log -->
<g id="edge9" class="edge"><title>clean_event_date&#45;&gt;date_cleaning_log</title>
<path fill="none" stroke="black" d="M231.677,-151.994C256.033,-142.055 286.964,-129.434 312.795,-118.894"/>
<polygon fill="black" stroke="black" points="314.123,-122.132 322.06,-115.114 311.478,-115.651 314.123,-122.132"/>
</g>
<!-- original_dataset -->
<g id="node3" class="node"><title>original_dataset</title>
<path fill="#ffe4b5" stroke="black" d="M241,-371C241,-371 363,-371 363,-371 369,-371 375,-377 375,-383 375,-383 375,-395 375,-395 375,-401 369,-407 363,-407 363,-407 241,-407 241,-407 235,-407 229,-401 229,-395 229,-395 229,-383 229,-383 229,-377 235,-371 241,-371"/>
<text text-anchor="middle" x="302" y="-395.8" font-family="Courier,monospace" font-weight="bold" font-size="9.00">[data7] original_dataset</text>
<polyline fill="none" stroke="black" points="229,-389 375,-389 "/>
<text text-anchor="start" x="237" y="-377.8" font-family="Courier,monospace" font-weight="bold" font-size="9.00">demo_input.csv</text>
</g>
<!-- original_dataset&#45;&gt;clean_scientific_name -->
<g id="edge2" class="edge"><title>original_dataset&#45;&gt;clean_scientific_name</title>
<path fill="none" stroke="black" d="M285.539,-370.813C277.103,-362.005 266.683,-351.125 257.425,-341.458"/>
<polygon fill="black" stroke="black" points="259.754,-338.83 250.309,-334.029 254.698,-343.672 259.754,-338.83"/>
</g>
<!-- data_with_cleaned_names&#45;&gt;clean_event_date -->
<g id="edge3" class="edge"><title>data_with_cleaned_names&#45;&gt;clean_event_date</title>
<path fill="none" stroke="black" d="M133.155,-224.813C142.552,-215.917 154.18,-204.909 164.467,-195.172"/>
<polygon fill="black" stroke="black" points="167.156,-197.445 172.012,-188.029 162.344,-192.362 167.156,-197.445"/>
</g>
<!-- record_id_data&#45;&gt;clean_event_date -->
<g id="edge4" class="edge"><title>record_id_data&#45;&gt;clean_event_date</title>
<path fill="none" stroke="black" d="M223.349,-224.813C218.106,-216.353 211.68,-205.984 205.873,-196.612"/>
<polygon fill="black" stroke="black" points="208.796,-194.685 200.553,-188.029 202.846,-198.373 208.796,-194.685"/>
</g>
<!-- name_cleaning_log_outflow -->
<g id="node14" class="node"><title>name_cleaning_log_outflow</title>
<ellipse fill="none" stroke="black" cx="396" cy="-31" rx="7" ry="7"/>
</g>
<!-- name_cleaning_log&#45;&gt;name_cleaning_log_outflow -->
<g id="edge14" class="edge"><title>name_cleaning_log&#45;&gt;name_cleaning_log_outflow</title>
<path fill="none" stroke="black" d="M383.254,-224.975C403.702,-202.257 437.744,-159.783 451,-116 457.955,-93.0298 463.251,-82.6376 451,-62 442.841,-48.2557 425.926,-40.4053 412.995,-36.2112"/>
<polygon fill="black" stroke="black" points="413.552,-32.7326 402.979,-33.4104 411.667,-39.474 413.552,-32.7326"/>
</g>
<!-- data_with_cleaned_names_and_dates_outflow -->
<g id="node13" class="node"><title>data_with_cleaned_names_and_dates_outflow</title>
<ellipse fill="none" stroke="black" cx="332" cy="-31" rx="7" ry="7"/>
</g>
<!-- data_with_cleaned_names_and_dates&#45;&gt;data_with_cleaned_names_and_dates_outflow -->
<g id="edge13" class="edge"><title>data_with_cleaned_names_and_dates&#45;&gt;data_with_cleaned_names_and_dates_outflow</title>
<path fill="none" stroke="black" d="M195.845,-78.8492C235.956,-65.0475 289.828,-46.5107 316.165,-37.4485"/>
<polygon fill="black" stroke="black" points="317.329,-40.7495 325.646,-34.1862 315.052,-34.1304 317.329,-40.7495"/>
</g>
<!-- date_cleaning_log_outflow -->
<g id="node12" class="node"><title>date_cleaning_log_outflow</title>
<ellipse fill="none" stroke="black" cx="364" cy="-31" rx="7" ry="7"/>
</g>
<!-- date_cleaning_log&#45;&gt;date_cleaning_log_outflow -->
<g id="edge12" class="edge"><title>date_cleaning_log&#45;&gt;date_cleaning_log_outflow</title>
<path fill="none" stroke="black" d="M364,-78.8492C364,-69.3727 364,-57.6638 364,-48.3223"/>
<polygon fill="black" stroke="black" points="367.5,-48.1021 364,-38.1022 360.5,-48.1022 367.5,-48.1021"/>
</g>
<!-- local_authority_source -->
<g id="node9" class="node"><title>local_authority_source</title>
<path fill="#ffffff" stroke="black" d="M198.25,-407C198.25,-407 115.75,-407 115.75,-407 109.75,-407 103.75,-401 103.75,-395 103.75,-395 103.75,-383 103.75,-383 103.75,-377 109.75,-371 115.75,-371 115.75,-371 198.25,-371 198.25,-371 204.25,-371 210.25,-377 210.25,-383 210.25,-383 210.25,-395 210.25,-395 210.25,-401 204.25,-407 198.25,-407"/>
<text text-anchor="middle" x="157" y="-386.8" font-family="Helvetica,sans-Serif" font-size="9.00">local_authority_source</text>
</g>
<!-- local_authority_source&#45;&gt;clean_scientific_name -->
<g id="edge1" class="edge"><title>local_authority_source&#45;&gt;clean_scientific_name</title>
<path fill="none" stroke="black" d="M175.64,-370.813C185.381,-361.83 197.459,-350.693 208.096,-340.886"/>
<polygon fill="black" stroke="black" points="210.553,-343.381 215.532,-334.029 205.808,-338.235 210.553,-343.381"/>
</g>
<!-- original_dataset_inflow -->
<g id="node10" class="node"><title>original_dataset_inflow</title>
<ellipse fill="none" stroke="black" cx="245" cy="-455" rx="7" ry="7"/>
</g>
<!-- original_dataset_inflow&#45;&gt;original_dataset -->
<g id="edge10" class="edge"><title>original_dataset_inflow&#45;&gt;original_dataset</title>
<path fill="none" stroke="black" d="M249.473,-448.978C256.036,-441.608 268.721,-427.366 279.98,-414.724"/>
<polygon fill="black" stroke="black" points="282.702,-416.931 286.739,-407.135 277.474,-412.275 282.702,-416.931"/>
</g>
<!-- local_authority_source_inflow -->
<g id="node11" class="node"><title>local_authority_source_inflow</title>
<ellipse fill="none" stroke="black" cx="213" cy="-455" rx="7" ry="7"/>
</g>
<!-- local_authority_source_inflow&#45;&gt;local_authority_source -->
<g id="edge11" class="edge"><title>local_authority_source_inflow&#45;&gt;local_authority_source</title>
<path fill="none" stroke="black" d="M208.606,-448.978C202.157,-441.608 189.696,-427.366 178.634,-414.724"/>
<polygon fill="black" stroke="black" points="181.212,-412.356 171.993,-407.135 175.944,-416.966 181.212,-412.356"/>
</g>
</g>
</svg>
