<?xml version="1.0" encoding="UTF-8" standalone="no"?>
<!DOCTYPE svg PUBLIC "-//W3C//DTD SVG 1.1//EN"
 "http://www.w3.org/Graphics/SVG/1.1/DTD/svg11.dtd">
<!-- Generated by graphviz version 2.36.0 (20140111.2315)
 -->
<!-- Title: yw_data_view Pages: 1 -->
<svg width="347pt" height="318pt"
 viewBox="0.00 0.00 347.00 318.00" xmlns="http://www.w3.org/2000/svg" xmlns:xlink="http://www.w3.org/1999/xlink">
<g id="graph0" class="graph" transform="scale(1 1) rotate(0) translate(4 314)">
<title>yw_data_view</title>
<polygon fill="white" stroke="none" points="-4,4 -4,-314 343,-314 343,4 -4,4"/>
<text text-anchor="middle" x="169.5" y="-291.6" font-family="Courier,monospace" font-size="18.00">clean_name_and_date_workflow</text>
<g id="clust1" class="cluster"><title>cluster_workflow</title>
<polygon fill="none" stroke="black" stroke-width="2" points="8,-8 8,-220 331,-220 331,-8 8,-8"/>
</g>
<g id="clust2" class="cluster"><title>cluster_workflow_inner</title>
<polygon fill="none" stroke="white" stroke-width="2" points="16,-16 16,-212 323,-212 323,-16 16,-16"/>
</g>
<g id="clust3" class="cluster"><title>cluster_inflows</title>
<polygon fill="none" stroke="white" stroke-width="2" points="141,-228 141,-274 219,-274 219,-228 141,-228"/>
</g>
<g id="clust4" class="cluster"><title>cluster_inflows_inner</title>
<polygon fill="none" stroke="white" stroke-width="2" points="149,-236 149,-266 211,-266 211,-236 149,-236"/>
</g>
<!-- clean_scientific_name -->
<g id="node1" class="node"><title>clean_scientific_name</title>
<polygon fill="#ccffcc" stroke="black" points="265.25,-132 72.75,-132 72.75,-96 265.25,-96 265.25,-132"/>
<text text-anchor="middle" x="169" y="-110.3" font-family="Courier,monospace" font-size="14.00">clean_scientific_name</text>
</g>
<!-- data_with_cleaned_names -->
<g id="node3" class="node"><title>data_with_cleaned_names</title>
<path fill="#ffffcc" stroke="black" d="M248.25,-60C248.25,-60 89.75,-60 89.75,-60 83.75,-60 77.75,-54 77.75,-48 77.75,-48 77.75,-36 77.75,-36 77.75,-30 83.75,-24 89.75,-24 89.75,-24 248.25,-24 248.25,-24 254.25,-24 260.25,-30 260.25,-36 260.25,-36 260.25,-48 260.25,-48 260.25,-54 254.25,-60 248.25,-60"/>
<text text-anchor="middle" x="169" y="-38.3" font-family="Helvetica,sans-Serif" font-size="14.00">data_with_cleaned_names</text>
</g>
<!-- clean_scientific_name&#45;&gt;data_with_cleaned_names -->
<g id="edge3" class="edge"><title>clean_scientific_name&#45;&gt;data_with_cleaned_names</title>
<path fill="none" stroke="black" d="M169,-95.6966C169,-87.9827 169,-78.7125 169,-70.1124"/>
<polygon fill="black" stroke="black" points="172.5,-70.1043 169,-60.1043 165.5,-70.1044 172.5,-70.1043"/>
</g>
<!-- original_dataset -->
<g id="node2" class="node"><title>original_dataset</title>
<path fill="#ffffcc" stroke="black" d="M302.25,-204C302.25,-204 211.75,-204 211.75,-204 205.75,-204 199.75,-198 199.75,-192 199.75,-192 199.75,-180 199.75,-180 199.75,-174 205.75,-168 211.75,-168 211.75,-168 302.25,-168 302.25,-168 308.25,-168 314.25,-174 314.25,-180 314.25,-180 314.25,-192 314.25,-192 314.25,-198 308.25,-204 302.25,-204"/>
<text text-anchor="middle" x="257" y="-182.3" font-family="Helvetica,sans-Serif" font-size="14.00">original_dataset</text>
</g>
<!-- original_dataset&#45;&gt;clean_scientific_name -->
<g id="edge1" class="edge"><title>original_dataset&#45;&gt;clean_scientific_name</title>
<path fill="none" stroke="black" d="M235.247,-167.697C224.164,-158.881 210.526,-148.032 198.51,-138.474"/>
<polygon fill="black" stroke="black" points="200.507,-135.59 190.503,-132.104 196.15,-141.069 200.507,-135.59"/>
</g>
<!-- local_authority_source -->
<g id="node4" class="node"><title>local_authority_source</title>
<path fill="#ffffff" stroke="black" d="M169.25,-204C169.25,-204 36.75,-204 36.75,-204 30.75,-204 24.75,-198 24.75,-192 24.75,-192 24.75,-180 24.75,-180 24.75,-174 30.75,-168 36.75,-168 36.75,-168 169.25,-168 169.25,-168 175.25,-168 181.25,-174 181.25,-180 181.25,-180 181.25,-192 181.25,-192 181.25,-198 175.25,-204 169.25,-204"/>
<text text-anchor="middle" x="103" y="-182.3" font-family="Helvetica,sans-Serif" font-size="14.00">local_authority_source</text>
</g>
<!-- local_authority_source&#45;&gt;clean_scientific_name -->
<g id="edge2" class="edge"><title>local_authority_source&#45;&gt;clean_scientific_name</title>
<path fill="none" stroke="black" d="M119.315,-167.697C127.307,-159.22 137.072,-148.864 145.822,-139.583"/>
<polygon fill="black" stroke="black" points="148.559,-141.781 152.873,-132.104 143.466,-136.979 148.559,-141.781"/>
</g>
<!-- original_dataset_inflow -->
<g id="node5" class="node"><title>original_dataset_inflow</title>
<ellipse fill="none" stroke="black" cx="196" cy="-251" rx="7" ry="7"/>
</g>
<!-- original_dataset_inflow&#45;&gt;original_dataset -->
<g id="edge4" class="edge"><title>original_dataset_inflow&#45;&gt;original_dataset</title>
<path fill="none" stroke="black" d="M200.387,-245.469C207.283,-238.347 221.143,-224.033 233.422,-211.351"/>
<polygon fill="black" stroke="black" points="235.963,-213.758 240.405,-204.14 230.934,-208.889 235.963,-213.758"/>
</g>
<!-- local_authority_source_inflow -->
<g id="node6" class="node"><title>local_authority_source_inflow</title>
<ellipse fill="none" stroke="black" cx="164" cy="-251" rx="7" ry="7"/>
</g>
<!-- local_authority_source_inflow&#45;&gt;local_authority_source -->
<g id="edge5" class="edge"><title>local_authority_source_inflow&#45;&gt;local_authority_source</title>
<path fill="none" stroke="black" d="M159.613,-245.469C152.717,-238.347 138.857,-224.033 126.578,-211.351"/>
<polygon fill="black" stroke="black" points="129.066,-208.889 119.595,-204.14 124.037,-213.758 129.066,-208.889"/>
</g>
</g>
</svg>
