<?xml version="1.0" encoding="UTF-8" standalone="no"?>
<!DOCTYPE svg PUBLIC "-//W3C//DTD SVG 1.1//EN"
 "http://www.w3.org/Graphics/SVG/1.1/DTD/svg11.dtd">
<!-- Generated by graphviz version 2.36.0 (20140111.2315)
 -->
<!-- Title: yw_data_view Pages: 1 -->
<svg width="327pt" height="174pt"
 viewBox="0.00 0.00 327.00 174.00" xmlns="http://www.w3.org/2000/svg" xmlns:xlink="http://www.w3.org/1999/xlink">
<g id="graph0" class="graph" transform="scale(1 1) rotate(0) translate(4 170)">
<title>yw_data_view</title>
<polygon fill="white" stroke="none" points="-4,4 -4,-170 323,-170 323,4 -4,4"/>
<text text-anchor="middle" x="159.5" y="-147.6" font-family="Courier,monospace" font-size="18.00">clean_name_and_date_workflow</text>
<g id="clust1" class="cluster"><title>cluster_workflow</title>
<polygon fill="none" stroke="black" stroke-width="2" points="85.5,-8 85.5,-76 233.5,-76 233.5,-8 85.5,-8"/>
</g>
<g id="clust2" class="cluster"><title>cluster_workflow_inner</title>
<polygon fill="none" stroke="white" stroke-width="2" points="93.5,-16 93.5,-68 225.5,-68 225.5,-16 93.5,-16"/>
</g>
<g id="clust3" class="cluster"><title>cluster_inflows</title>
<polygon fill="none" stroke="white" stroke-width="2" points="136.5,-84 136.5,-130 182.5,-130 182.5,-84 136.5,-84"/>
</g>
<g id="clust4" class="cluster"><title>cluster_inflows_inner</title>
<polygon fill="none" stroke="white" stroke-width="2" points="144.5,-92 144.5,-122 174.5,-122 174.5,-92 144.5,-92"/>
</g>
<!-- original_dataset -->
<g id="node1" class="node"><title>original_dataset</title>
<path fill="#ffffcc" stroke="black" d="M204.75,-60C204.75,-60 114.25,-60 114.25,-60 108.25,-60 102.25,-54 102.25,-48 102.25,-48 102.25,-36 102.25,-36 102.25,-30 108.25,-24 114.25,-24 114.25,-24 204.75,-24 204.75,-24 210.75,-24 216.75,-30 216.75,-36 216.75,-36 216.75,-48 216.75,-48 216.75,-54 210.75,-60 204.75,-60"/>
<text text-anchor="middle" x="159.5" y="-38.3" font-family="Helvetica,sans-Serif" font-size="14.00">original_dataset</text>
</g>
<!-- original_dataset_inflow -->
<g id="node2" class="node"><title>original_dataset_inflow</title>
<ellipse fill="none" stroke="black" cx="159.5" cy="-107" rx="7" ry="7"/>
</g>
<!-- original_dataset_inflow&#45;&gt;original_dataset -->
<g id="edge1" class="edge"><title>original_dataset_inflow&#45;&gt;original_dataset</title>
<path fill="none" stroke="black" d="M159.5,-99.729C159.5,-92.7948 159.5,-81.1535 159.5,-70.2147"/>
<polygon fill="black" stroke="black" points="163,-70.1188 159.5,-60.1188 156,-70.1189 163,-70.1188"/>
</g>
</g>
</svg>
