<?xml version="1.0" encoding="UTF-8" standalone="no"?>
<!DOCTYPE svg PUBLIC "-//W3C//DTD SVG 1.1//EN"
 "http://www.w3.org/Graphics/SVG/1.1/DTD/svg11.dtd">
<!-- Generated by graphviz version 2.36.0 (20140111.2315)
 -->
<!-- Title: yw_data_view Pages: 1 -->
<svg width="368pt" height="516pt"
 viewBox="0.00 0.00 368.00 516.00" xmlns="http://www.w3.org/2000/svg" xmlns:xlink="http://www.w3.org/1999/xlink">
<g id="graph0" class="graph" transform="scale(1 1) rotate(0) translate(4 512)">
<title>yw_data_view</title>
<polygon fill="white" stroke="none" points="-4,4 -4,-512 364,-512 364,4 -4,4"/>
<text text-anchor="middle" x="180" y="-489.6" font-family="Courier,monospace" font-size="18.00">clean_name_and_date_workflow</text>
<g id="clust3" class="cluster"><title>cluster_inflows</title>
<polygon fill="none" stroke="white" stroke-width="2" points="150,-426 150,-472 228,-472 228,-426 150,-426"/>
</g>
<g id="clust4" class="cluster"><title>cluster_inflows_inner</title>
<polygon fill="none" stroke="white" stroke-width="2" points="158,-434 158,-464 220,-464 220,-434 158,-434"/>
</g>
<g id="clust5" class="cluster"><title>cluster_outflows</title>
<polygon fill="none" stroke="white" stroke-width="2" points="157,-8 157,-54 203,-54 203,-8 157,-8"/>
</g>
<g id="clust6" class="cluster"><title>cluster_outflows_inner</title>
<polygon fill="none" stroke="white" stroke-width="2" points="165,-16 165,-46 195,-46 195,-16 165,-16"/>
</g>
<g id="clust1" class="cluster"><title>cluster_workflow</title>
<polygon fill="none" stroke="black" stroke-width="2" points="8,-62 8,-418 352,-418 352,-62 8,-62"/>
</g>
<g id="clust2" class="cluster"><title>cluster_workflow_inner</title>
<polygon fill="none" stroke="white" stroke-width="2" points="16,-70 16,-410 344,-410 344,-70 16,-70"/>
</g>
<!-- clean_scientific_name -->
<g id="node1" class="node"><title>clean_scientific_name</title>
<polygon fill="#ccffcc" stroke="black" points="276.25,-330 83.75,-330 83.75,-294 276.25,-294 276.25,-330"/>
<text text-anchor="middle" x="180" y="-308.3" font-family="Courier,monospace" font-size="14.00">clean_scientific_name</text>
</g>
<!-- data_with_cleaned_names -->
<g id="node4" class="node"><title>data_with_cleaned_names</title>
<path fill="#ffffcc" stroke="black" d="M195.25,-258C195.25,-258 36.75,-258 36.75,-258 30.75,-258 24.75,-252 24.75,-246 24.75,-246 24.75,-234 24.75,-234 24.75,-228 30.75,-222 36.75,-222 36.75,-222 195.25,-222 195.25,-222 201.25,-222 207.25,-228 207.25,-234 207.25,-234 207.25,-246 207.25,-246 207.25,-252 201.25,-258 195.25,-258"/>
<text text-anchor="middle" x="116" y="-236.3" font-family="Helvetica,sans-Serif" font-size="14.00">data_with_cleaned_names</text>
</g>
<!-- clean_scientific_name&#45;&gt;data_with_cleaned_names -->
<g id="edge5" class="edge"><title>clean_scientific_name&#45;&gt;data_with_cleaned_names</title>
<path fill="none" stroke="black" d="M164.18,-293.697C156.43,-285.22 146.961,-274.864 138.476,-265.583"/>
<polygon fill="black" stroke="black" points="140.969,-263.123 131.638,-258.104 135.803,-267.846 140.969,-263.123"/>
</g>
<!-- record_id_data -->
<g id="node5" class="node"><title>record_id_data</title>
<path fill="#ffffcc" stroke="black" d="M324,-258C324,-258 238,-258 238,-258 232,-258 226,-252 226,-246 226,-246 226,-234 226,-234 226,-228 232,-222 238,-222 238,-222 324,-222 324,-222 330,-222 336,-228 336,-234 336,-234 336,-246 336,-246 336,-252 330,-258 324,-258"/>
<text text-anchor="middle" x="281" y="-236.3" font-family="Helvetica,sans-Serif" font-size="14.00">record_id_data</text>
</g>
<!-- clean_scientific_name&#45;&gt;record_id_data -->
<g id="edge6" class="edge"><title>clean_scientific_name&#45;&gt;record_id_data</title>
<path fill="none" stroke="black" d="M204.707,-293.876C217.669,-284.893 233.728,-273.763 247.765,-264.034"/>
<polygon fill="black" stroke="black" points="249.972,-266.763 256.198,-258.19 245.985,-261.009 249.972,-266.763"/>
</g>
<!-- clean_event_date -->
<g id="node2" class="node"><title>clean_event_date</title>
<polygon fill="#ccffcc" stroke="black" points="255.25,-186 104.75,-186 104.75,-150 255.25,-150 255.25,-186"/>
<text text-anchor="middle" x="180" y="-164.3" font-family="Courier,monospace" font-size="14.00">clean_event_date</text>
</g>
<!-- data_with_cleaned_names_and_dates -->
<g id="node6" class="node"><title>data_with_cleaned_names_and_dates</title>
<path fill="#ffffcc" stroke="black" d="M296,-114C296,-114 64,-114 64,-114 58,-114 52,-108 52,-102 52,-102 52,-90 52,-90 52,-84 58,-78 64,-78 64,-78 296,-78 296,-78 302,-78 308,-84 308,-90 308,-90 308,-102 308,-102 308,-108 302,-114 296,-114"/>
<text text-anchor="middle" x="180" y="-92.3" font-family="Helvetica,sans-Serif" font-size="14.00">data_with_cleaned_names_and_dates</text>
</g>
<!-- clean_event_date&#45;&gt;data_with_cleaned_names_and_dates -->
<g id="edge7" class="edge"><title>clean_event_date&#45;&gt;data_with_cleaned_names_and_dates</title>
<path fill="none" stroke="black" d="M180,-149.697C180,-141.983 180,-132.712 180,-124.112"/>
<polygon fill="black" stroke="black" points="183.5,-124.104 180,-114.104 176.5,-124.104 183.5,-124.104"/>
</g>
<!-- original_dataset -->
<g id="node3" class="node"><title>original_dataset</title>
<path fill="#ffffcc" stroke="black" d="M311.25,-402C311.25,-402 220.75,-402 220.75,-402 214.75,-402 208.75,-396 208.75,-390 208.75,-390 208.75,-378 208.75,-378 208.75,-372 214.75,-366 220.75,-366 220.75,-366 311.25,-366 311.25,-366 317.25,-366 323.25,-372 323.25,-378 323.25,-378 323.25,-390 323.25,-390 323.25,-396 317.25,-402 311.25,-402"/>
<text text-anchor="middle" x="266" y="-380.3" font-family="Helvetica,sans-Serif" font-size="14.00">original_dataset</text>
</g>
<!-- original_dataset&#45;&gt;clean_scientific_name -->
<g id="edge3" class="edge"><title>original_dataset&#45;&gt;clean_scientific_name</title>
<path fill="none" stroke="black" d="M244.742,-365.697C233.911,-356.881 220.582,-346.032 208.84,-336.474"/>
<polygon fill="black" stroke="black" points="210.979,-333.703 201.014,-330.104 206.56,-339.132 210.979,-333.703"/>
</g>
<!-- data_with_cleaned_names&#45;&gt;clean_event_date -->
<g id="edge2" class="edge"><title>data_with_cleaned_names&#45;&gt;clean_event_date</title>
<path fill="none" stroke="black" d="M131.82,-221.697C139.57,-213.22 149.039,-202.864 157.524,-193.583"/>
<polygon fill="black" stroke="black" points="160.197,-195.846 164.362,-186.104 155.031,-191.123 160.197,-195.846"/>
</g>
<!-- record_id_data&#45;&gt;clean_event_date -->
<g id="edge1" class="edge"><title>record_id_data&#45;&gt;clean_event_date</title>
<path fill="none" stroke="black" d="M256.293,-221.876C243.331,-212.893 227.272,-201.763 213.235,-192.034"/>
<polygon fill="black" stroke="black" points="215.015,-189.009 204.802,-186.19 211.028,-194.763 215.015,-189.009"/>
</g>
<!-- data_with_cleaned_names_and_dates_outflow -->
<g id="node10" class="node"><title>data_with_cleaned_names_and_dates_outflow</title>
<ellipse fill="none" stroke="black" cx="180" cy="-31" rx="7" ry="7"/>
</g>
<!-- data_with_cleaned_names_and_dates&#45;&gt;data_with_cleaned_names_and_dates_outflow -->
<g id="edge10" class="edge"><title>data_with_cleaned_names_and_dates&#45;&gt;data_with_cleaned_names_and_dates_outflow</title>
<path fill="none" stroke="black" d="M180,-77.785C180,-68.6656 180,-57.5197 180,-48.5085"/>
<polygon fill="black" stroke="black" points="183.5,-48.242 180,-38.242 176.5,-48.2421 183.5,-48.242"/>
</g>
<!-- local_authority_source -->
<g id="node7" class="node"><title>local_authority_source</title>
<path fill="#ffffff" stroke="black" d="M178.25,-402C178.25,-402 45.75,-402 45.75,-402 39.75,-402 33.75,-396 33.75,-390 33.75,-390 33.75,-378 33.75,-378 33.75,-372 39.75,-366 45.75,-366 45.75,-366 178.25,-366 178.25,-366 184.25,-366 190.25,-372 190.25,-378 190.25,-378 190.25,-390 190.25,-390 190.25,-396 184.25,-402 178.25,-402"/>
<text text-anchor="middle" x="112" y="-380.3" font-family="Helvetica,sans-Serif" font-size="14.00">local_authority_source</text>
</g>
<!-- local_authority_source&#45;&gt;clean_scientific_name -->
<g id="edge4" class="edge"><title>local_authority_source&#45;&gt;clean_scientific_name</title>
<path fill="none" stroke="black" d="M128.809,-365.697C137.126,-357.135 147.305,-346.656 156.39,-337.304"/>
<polygon fill="black" stroke="black" points="158.927,-339.716 163.384,-330.104 153.906,-334.838 158.927,-339.716"/>
</g>
<!-- original_dataset_inflow -->
<g id="node8" class="node"><title>original_dataset_inflow</title>
<ellipse fill="none" stroke="black" cx="205" cy="-449" rx="7" ry="7"/>
</g>
<!-- original_dataset_inflow&#45;&gt;original_dataset -->
<g id="edge8" class="edge"><title>original_dataset_inflow&#45;&gt;original_dataset</title>
<path fill="none" stroke="black" d="M209.387,-443.469C216.283,-436.347 230.143,-422.033 242.422,-409.351"/>
<polygon fill="black" stroke="black" points="244.963,-411.758 249.405,-402.14 239.934,-406.889 244.963,-411.758"/>
</g>
<!-- local_authority_source_inflow -->
<g id="node9" class="node"><title>local_authority_source_inflow</title>
<ellipse fill="none" stroke="black" cx="173" cy="-449" rx="7" ry="7"/>
</g>
<!-- local_authority_source_inflow&#45;&gt;local_authority_source -->
<g id="edge9" class="edge"><title>local_authority_source_inflow&#45;&gt;local_authority_source</title>
<path fill="none" stroke="black" d="M168.613,-443.469C161.717,-436.347 147.857,-422.033 135.578,-409.351"/>
<polygon fill="black" stroke="black" points="138.066,-406.889 128.595,-402.14 133.037,-411.758 138.066,-406.889"/>
</g>
</g>
</svg>
