<?xml version="1.0" encoding="UTF-8" standalone="no"?>
<!DOCTYPE svg PUBLIC "-//W3C//DTD SVG 1.1//EN"
 "http://www.w3.org/Graphics/SVG/1.1/DTD/svg11.dtd">
<!-- Generated by graphviz version 2.36.0 (20140111.2315)
 -->
<!-- Title: yw_data_view Pages: 1 -->
<svg width="347pt" height="372pt"
 viewBox="0.00 0.00 347.00 372.00" xmlns="http://www.w3.org/2000/svg" xmlns:xlink="http://www.w3.org/1999/xlink">
<g id="graph0" class="graph" transform="scale(1 1) rotate(0) translate(4 368)">
<title>yw_data_view</title>
<polygon fill="white" stroke="none" points="-4,4 -4,-368 343,-368 343,4 -4,4"/>
<text text-anchor="middle" x="169.5" y="-345.6" font-family="Courier,monospace" font-size="18.00">clean_name_and_date_workflow</text>
<g id="clust3" class="cluster"><title>cluster_inflows</title>
<polygon fill="none" stroke="white" stroke-width="2" points="141,-282 141,-328 219,-328 219,-282 141,-282"/>
</g>
<g id="clust4" class="cluster"><title>cluster_inflows_inner</title>
<polygon fill="none" stroke="white" stroke-width="2" points="149,-290 149,-320 211,-320 211,-290 149,-290"/>
</g>
<g id="clust5" class="cluster"><title>cluster_outflows</title>
<polygon fill="none" stroke="white" stroke-width="2" points="146,-8 146,-54 192,-54 192,-8 146,-8"/>
</g>
<g id="clust6" class="cluster"><title>cluster_outflows_inner</title>
<polygon fill="none" stroke="white" stroke-width="2" points="154,-16 154,-46 184,-46 184,-16 154,-16"/>
</g>
<g id="clust1" class="cluster"><title>cluster_workflow</title>
<polygon fill="none" stroke="black" stroke-width="2" points="8,-62 8,-274 331,-274 331,-62 8,-62"/>
</g>
<g id="clust2" class="cluster"><title>cluster_workflow_inner</title>
<polygon fill="none" stroke="white" stroke-width="2" points="16,-70 16,-266 323,-266 323,-70 16,-70"/>
</g>
<!-- clean_scientific_name -->
<g id="node1" class="node"><title>clean_scientific_name</title>
<polygon fill="#ccffcc" stroke="black" points="265.25,-186 72.75,-186 72.75,-150 265.25,-150 265.25,-186"/>
<text text-anchor="middle" x="169" y="-164.3" font-family="Courier,monospace" font-size="14.00">clean_scientific_name</text>
</g>
<!-- name_cleaning_log -->
<g id="node3" class="node"><title>name_cleaning_log</title>
<path fill="#ffffcc" stroke="black" d="M226,-114C226,-114 112,-114 112,-114 106,-114 100,-108 100,-102 100,-102 100,-90 100,-90 100,-84 106,-78 112,-78 112,-78 226,-78 226,-78 232,-78 238,-84 238,-90 238,-90 238,-102 238,-102 238,-108 232,-114 226,-114"/>
<text text-anchor="middle" x="169" y="-92.3" font-family="Helvetica,sans-Serif" font-size="14.00">name_cleaning_log</text>
</g>
<!-- clean_scientific_name&#45;&gt;name_cleaning_log -->
<g id="edge3" class="edge"><title>clean_scientific_name&#45;&gt;name_cleaning_log</title>
<path fill="none" stroke="black" d="M169,-149.697C169,-141.983 169,-132.712 169,-124.112"/>
<polygon fill="black" stroke="black" points="172.5,-124.104 169,-114.104 165.5,-124.104 172.5,-124.104"/>
</g>
<!-- original_dataset -->
<g id="node2" class="node"><title>original_dataset</title>
<path fill="#ffffcc" stroke="black" d="M302.25,-258C302.25,-258 211.75,-258 211.75,-258 205.75,-258 199.75,-252 199.75,-246 199.75,-246 199.75,-234 199.75,-234 199.75,-228 205.75,-222 211.75,-222 211.75,-222 302.25,-222 302.25,-222 308.25,-222 314.25,-228 314.25,-234 314.25,-234 314.25,-246 314.25,-246 314.25,-252 308.25,-258 302.25,-258"/>
<text text-anchor="middle" x="257" y="-236.3" font-family="Helvetica,sans-Serif" font-size="14.00">original_dataset</text>
</g>
<!-- original_dataset&#45;&gt;clean_scientific_name -->
<g id="edge1" class="edge"><title>original_dataset&#45;&gt;clean_scientific_name</title>
<path fill="none" stroke="black" d="M235.247,-221.697C224.164,-212.881 210.526,-202.032 198.51,-192.474"/>
<polygon fill="black" stroke="black" points="200.507,-189.59 190.503,-186.104 196.15,-195.069 200.507,-189.59"/>
</g>
<!-- name_cleaning_log_outflow -->
<g id="node7" class="node"><title>name_cleaning_log_outflow</title>
<ellipse fill="none" stroke="black" cx="169" cy="-31" rx="7" ry="7"/>
</g>
<!-- name_cleaning_log&#45;&gt;name_cleaning_log_outflow -->
<g id="edge6" class="edge"><title>name_cleaning_log&#45;&gt;name_cleaning_log_outflow</title>
<path fill="none" stroke="black" d="M169,-77.785C169,-68.6656 169,-57.5197 169,-48.5085"/>
<polygon fill="black" stroke="black" points="172.5,-48.242 169,-38.242 165.5,-48.2421 172.5,-48.242"/>
</g>
<!-- local_authority_source -->
<g id="node4" class="node"><title>local_authority_source</title>
<path fill="#ffffff" stroke="black" d="M169.25,-258C169.25,-258 36.75,-258 36.75,-258 30.75,-258 24.75,-252 24.75,-246 24.75,-246 24.75,-234 24.75,-234 24.75,-228 30.75,-222 36.75,-222 36.75,-222 169.25,-222 169.25,-222 175.25,-222 181.25,-228 181.25,-234 181.25,-234 181.25,-246 181.25,-246 181.25,-252 175.25,-258 169.25,-258"/>
<text text-anchor="middle" x="103" y="-236.3" font-family="Helvetica,sans-Serif" font-size="14.00">local_authority_source</text>
</g>
<!-- local_authority_source&#45;&gt;clean_scientific_name -->
<g id="edge2" class="edge"><title>local_authority_source&#45;&gt;clean_scientific_name</title>
<path fill="none" stroke="black" d="M119.315,-221.697C127.307,-213.22 137.072,-202.864 145.822,-193.583"/>
<polygon fill="black" stroke="black" points="148.559,-195.781 152.873,-186.104 143.466,-190.979 148.559,-195.781"/>
</g>
<!-- original_dataset_inflow -->
<g id="node5" class="node"><title>original_dataset_inflow</title>
<ellipse fill="none" stroke="black" cx="196" cy="-305" rx="7" ry="7"/>
</g>
<!-- original_dataset_inflow&#45;&gt;original_dataset -->
<g id="edge4" class="edge"><title>original_dataset_inflow&#45;&gt;original_dataset</title>
<path fill="none" stroke="black" d="M200.387,-299.469C207.283,-292.347 221.143,-278.033 233.422,-265.351"/>
<polygon fill="black" stroke="black" points="235.963,-267.758 240.405,-258.14 230.934,-262.889 235.963,-267.758"/>
</g>
<!-- local_authority_source_inflow -->
<g id="node6" class="node"><title>local_authority_source_inflow</title>
<ellipse fill="none" stroke="black" cx="164" cy="-305" rx="7" ry="7"/>
</g>
<!-- local_authority_source_inflow&#45;&gt;local_authority_source -->
<g id="edge5" class="edge"><title>local_authority_source_inflow&#45;&gt;local_authority_source</title>
<path fill="none" stroke="black" d="M159.613,-299.469C152.717,-292.347 138.857,-278.033 126.578,-265.351"/>
<polygon fill="black" stroke="black" points="129.066,-262.889 119.595,-258.14 124.037,-267.758 129.066,-262.889"/>
</g>
</g>
</svg>
