<?xml version="1.0" encoding="UTF-8" standalone="no"?>
<!DOCTYPE svg PUBLIC "-//W3C//DTD SVG 1.1//EN"
 "http://www.w3.org/Graphics/SVG/1.1/DTD/svg11.dtd">
<!-- Generated by graphviz version 2.38.0 (20140413.2041)
 -->
<!-- Title: Workflow Pages: 1 -->
<svg width="1419pt" height="1198pt"
 viewBox="0.00 0.00 1419.00 1198.00" xmlns="http://www.w3.org/2000/svg" xmlns:xlink="http://www.w3.org/1999/xlink">
<g id="graph0" class="graph" transform="scale(1 1) rotate(0) translate(4 1194)">
<title>Workflow</title>
<polygon fill="white" stroke="none" points="-4,4 -4,-1194 1415,-1194 1415,4 -4,4"/>
<text text-anchor="middle" x="705.5" y="-1171.6" font-family="Courier,monospace" font-size="18.00">GRAVITATIONAL_WAVE_DETECTION</text>
<g id="clust1" class="cluster"><title>cluster_workflow_box_outer</title>
<polygon fill="none" stroke="black" stroke-width="2" points="8,-62 8,-1102 1403,-1102 1403,-62 8,-62"/>
</g>
<g id="clust2" class="cluster"><title>cluster_workflow_box_inner</title>
<polygon fill="none" stroke="white" stroke-width="2" points="16,-70 16,-1094 1395,-1094 1395,-70 16,-70"/>
</g>
<g id="clust3" class="cluster"><title>cluster_input_ports_group_outer</title>
<polygon fill="none" stroke="white" points="499,-1110 499,-1156 609,-1156 609,-1110 499,-1110"/>
</g>
<g id="clust4" class="cluster"><title>cluster_input_ports_group_inner</title>
<polygon fill="none" stroke="white" points="507,-1118 507,-1148 601,-1148 601,-1118 507,-1118"/>
</g>
<g id="clust5" class="cluster"><title>cluster_output_ports_group_outer</title>
<polygon fill="none" stroke="white" points="934,-8 934,-54 1268,-54 1268,-8 934,-8"/>
</g>
<g id="clust6" class="cluster"><title>cluster_output_ports_group_inner</title>
<polygon fill="none" stroke="white" points="942,-16 942,-46 1260,-46 1260,-16 942,-16"/>
</g>
<!-- LOAD_DATA -->
<g id="node1" class="node"><title>LOAD_DATA</title>
<polygon fill="#ccffcc" stroke="black" points="357.99,-960.5 357.99,-1004.5 500.01,-1004.5 500.01,-960.5 357.99,-960.5"/>
<text text-anchor="middle" x="429" y="-989.3" font-family="Courier,monospace" font-size="14.00">LOAD_DATA</text>
<polyline fill="none" stroke="black" points="357.99,-982.5 500.01,-982.5 "/>
<text text-anchor="middle" x="429" y="-967.3" font-family="Courier,monospace" font-size="14.00">Load hdf5 data.</text>
</g>
<!-- strain_H1 -->
<g id="node27" class="node"><title>strain_H1</title>
<path fill="#ffffcc" stroke="black" d="M413.917,-924C413.917,-924 362.083,-924 362.083,-924 356.083,-924 350.083,-918 350.083,-912 350.083,-912 350.083,-900 350.083,-900 350.083,-894 356.083,-888 362.083,-888 362.083,-888 413.917,-888 413.917,-888 419.917,-888 425.917,-894 425.917,-900 425.917,-900 425.917,-912 425.917,-912 425.917,-918 419.917,-924 413.917,-924"/>
<text text-anchor="middle" x="388" y="-901.8" font-family="Helvetica,sans-Serif" font-size="14.00">strain_H1</text>
</g>
<!-- LOAD_DATA&#45;&gt;strain_H1 -->
<g id="edge1" class="edge"><title>LOAD_DATA&#45;&gt;strain_H1</title>
<path fill="none" stroke="black" d="M417.361,-960.351C412.722,-951.922 407.334,-942.131 402.449,-933.255"/>
<polygon fill="black" stroke="black" points="405.481,-931.505 397.593,-924.432 399.348,-934.88 405.481,-931.505"/>
</g>
<!-- strain_L1 -->
<g id="node28" class="node"><title>strain_L1</title>
<path fill="#ffffcc" stroke="black" d="M254.594,-924C254.594,-924 205.406,-924 205.406,-924 199.406,-924 193.406,-918 193.406,-912 193.406,-912 193.406,-900 193.406,-900 193.406,-894 199.406,-888 205.406,-888 205.406,-888 254.594,-888 254.594,-888 260.594,-888 266.594,-894 266.594,-900 266.594,-900 266.594,-912 266.594,-912 266.594,-918 260.594,-924 254.594,-924"/>
<text text-anchor="middle" x="230" y="-901.8" font-family="Helvetica,sans-Serif" font-size="14.00">strain_L1</text>
</g>
<!-- LOAD_DATA&#45;&gt;strain_L1 -->
<g id="edge2" class="edge"><title>LOAD_DATA&#45;&gt;strain_L1</title>
<path fill="none" stroke="black" d="M372.773,-960.45C342.207,-949.007 304.876,-935.031 276.053,-924.241"/>
<polygon fill="black" stroke="black" points="277.219,-920.94 266.626,-920.712 274.765,-927.496 277.219,-920.94"/>
</g>
<!-- strain_16 -->
<g id="node40" class="node"><title>strain_16</title>
<path fill="#ffffcc" stroke="black" d="M949.594,-924C949.594,-924 900.406,-924 900.406,-924 894.406,-924 888.406,-918 888.406,-912 888.406,-912 888.406,-900 888.406,-900 888.406,-894 894.406,-888 900.406,-888 900.406,-888 949.594,-888 949.594,-888 955.594,-888 961.594,-894 961.594,-900 961.594,-900 961.594,-912 961.594,-912 961.594,-918 955.594,-924 949.594,-924"/>
<text text-anchor="middle" x="925" y="-901.8" font-family="Helvetica,sans-Serif" font-size="14.00">strain_16</text>
</g>
<!-- LOAD_DATA&#45;&gt;strain_16 -->
<g id="edge3" class="edge"><title>LOAD_DATA&#45;&gt;strain_16</title>
<path fill="none" stroke="black" d="M500.065,-970.826C603.026,-955.361 790.888,-927.144 878.146,-914.038"/>
<polygon fill="black" stroke="black" points="878.907,-917.463 888.276,-912.516 877.867,-910.54 878.907,-917.463"/>
</g>
<!-- strain_4 -->
<g id="node41" class="node"><title>strain_4</title>
<path fill="#ffffcc" stroke="black" d="M1136.81,-924C1136.81,-924 1095.19,-924 1095.19,-924 1089.19,-924 1083.19,-918 1083.19,-912 1083.19,-912 1083.19,-900 1083.19,-900 1083.19,-894 1089.19,-888 1095.19,-888 1095.19,-888 1136.81,-888 1136.81,-888 1142.81,-888 1148.81,-894 1148.81,-900 1148.81,-900 1148.81,-912 1148.81,-912 1148.81,-918 1142.81,-924 1136.81,-924"/>
<text text-anchor="middle" x="1116" y="-901.8" font-family="Helvetica,sans-Serif" font-size="14.00">strain_4</text>
</g>
<!-- LOAD_DATA&#45;&gt;strain_4 -->
<g id="edge4" class="edge"><title>LOAD_DATA&#45;&gt;strain_4</title>
<path fill="none" stroke="black" d="M500.051,-974.214C603.644,-963.535 802.197,-942.849 971,-924 1005.32,-920.167 1044.19,-915.598 1073.04,-912.163"/>
<polygon fill="black" stroke="black" points="1073.67,-915.612 1083.19,-910.952 1072.84,-908.661 1073.67,-915.612"/>
</g>
<!-- AMPLITUDE_SPECTRAL_DENSITY -->
<g id="node2" class="node"><title>AMPLITUDE_SPECTRAL_DENSITY</title>
<polygon fill="#ccffcc" stroke="black" points="43.5815,-807.5 43.5815,-851.5 286.418,-851.5 286.418,-807.5 43.5815,-807.5"/>
<text text-anchor="middle" x="165" y="-836.3" font-family="Courier,monospace" font-size="14.00">AMPLITUDE_SPECTRAL_DENSITY</text>
<polyline fill="none" stroke="black" points="43.5815,-829.5 286.418,-829.5 "/>
<text text-anchor="middle" x="165" y="-814.3" font-family="Courier,monospace" font-size="14.00">Amplitude spectral density.</text>
</g>
<!-- ASDs -->
<g id="node23" class="node"><title>ASDs</title>
<path fill="#ffffcc" stroke="black" d="M230.287,-726.5C230.287,-726.5 385.713,-726.5 385.713,-726.5 391.713,-726.5 397.713,-732.5 397.713,-738.5 397.713,-738.5 397.713,-758.5 397.713,-758.5 397.713,-764.5 391.713,-770.5 385.713,-770.5 385.713,-770.5 230.287,-770.5 230.287,-770.5 224.287,-770.5 218.287,-764.5 218.287,-758.5 218.287,-758.5 218.287,-738.5 218.287,-738.5 218.287,-732.5 224.287,-726.5 230.287,-726.5"/>
<text text-anchor="middle" x="308" y="-755.3" font-family="Helvetica,sans-Serif" font-size="14.00">ASDs</text>
<polyline fill="none" stroke="black" points="218.287,-748.5 397.713,-748.5 "/>
<text text-anchor="middle" x="308" y="-733.3" font-family="Helvetica,sans-Serif" font-size="14.00">file:GW150914_ASDs.png</text>
</g>
<!-- AMPLITUDE_SPECTRAL_DENSITY&#45;&gt;ASDs -->
<g id="edge9" class="edge"><title>AMPLITUDE_SPECTRAL_DENSITY&#45;&gt;ASDs</title>
<path fill="none" stroke="black" d="M203.321,-807.329C220.953,-797.589 242.044,-785.937 260.659,-775.653"/>
<polygon fill="black" stroke="black" points="262.512,-778.628 269.573,-770.729 259.127,-772.501 262.512,-778.628"/>
</g>
<!-- PSD_H1 -->
<g id="node29" class="node"><title>PSD_H1</title>
<path fill="#ffffcc" stroke="black" d="M188.47,-766.5C188.47,-766.5 141.53,-766.5 141.53,-766.5 135.53,-766.5 129.53,-760.5 129.53,-754.5 129.53,-754.5 129.53,-742.5 129.53,-742.5 129.53,-736.5 135.53,-730.5 141.53,-730.5 141.53,-730.5 188.47,-730.5 188.47,-730.5 194.47,-730.5 200.47,-736.5 200.47,-742.5 200.47,-742.5 200.47,-754.5 200.47,-754.5 200.47,-760.5 194.47,-766.5 188.47,-766.5"/>
<text text-anchor="middle" x="165" y="-744.3" font-family="Helvetica,sans-Serif" font-size="14.00">PSD_H1</text>
</g>
<!-- AMPLITUDE_SPECTRAL_DENSITY&#45;&gt;PSD_H1 -->
<g id="edge7" class="edge"><title>AMPLITUDE_SPECTRAL_DENSITY&#45;&gt;PSD_H1</title>
<path fill="none" stroke="black" d="M165,-807.329C165,-797.999 165,-786.914 165,-776.959"/>
<polygon fill="black" stroke="black" points="168.5,-776.735 165,-766.735 161.5,-776.735 168.5,-776.735"/>
</g>
<!-- PSD_L1 -->
<g id="node30" class="node"><title>PSD_L1</title>
<path fill="#ffffcc" stroke="black" d="M100.145,-766.5C100.145,-766.5 55.8553,-766.5 55.8553,-766.5 49.8553,-766.5 43.8553,-760.5 43.8553,-754.5 43.8553,-754.5 43.8553,-742.5 43.8553,-742.5 43.8553,-736.5 49.8553,-730.5 55.8553,-730.5 55.8553,-730.5 100.145,-730.5 100.145,-730.5 106.145,-730.5 112.145,-736.5 112.145,-742.5 112.145,-742.5 112.145,-754.5 112.145,-754.5 112.145,-760.5 106.145,-766.5 100.145,-766.5"/>
<text text-anchor="middle" x="78" y="-744.3" font-family="Helvetica,sans-Serif" font-size="14.00">PSD_L1</text>
</g>
<!-- AMPLITUDE_SPECTRAL_DENSITY&#45;&gt;PSD_L1 -->
<g id="edge8" class="edge"><title>AMPLITUDE_SPECTRAL_DENSITY&#45;&gt;PSD_L1</title>
<path fill="none" stroke="black" d="M141.686,-807.329C130.207,-796.907 116.32,-784.296 104.446,-773.514"/>
<polygon fill="black" stroke="black" points="106.736,-770.866 96.98,-766.735 102.03,-776.048 106.736,-770.866"/>
</g>
<!-- WHITENING -->
<g id="node3" class="node"><title>WHITENING</title>
<polygon fill="#ccffcc" stroke="black" points="30.7788,-645.5 30.7788,-689.5 307.221,-689.5 307.221,-645.5 30.7788,-645.5"/>
<text text-anchor="middle" x="169" y="-674.3" font-family="Courier,monospace" font-size="14.00">WHITENING</text>
<polyline fill="none" stroke="black" points="30.7788,-667.5 307.221,-667.5 "/>
<text text-anchor="middle" x="169" y="-652.3" font-family="Courier,monospace" font-size="14.00">suppress low frequencies noise.</text>
</g>
<!-- strain_H1_whiten -->
<g id="node31" class="node"><title>strain_H1_whiten</title>
<path fill="#ffffcc" stroke="black" d="M225.172,-604.5C225.172,-604.5 124.828,-604.5 124.828,-604.5 118.828,-604.5 112.828,-598.5 112.828,-592.5 112.828,-592.5 112.828,-580.5 112.828,-580.5 112.828,-574.5 118.828,-568.5 124.828,-568.5 124.828,-568.5 225.172,-568.5 225.172,-568.5 231.172,-568.5 237.172,-574.5 237.172,-580.5 237.172,-580.5 237.172,-592.5 237.172,-592.5 237.172,-598.5 231.172,-604.5 225.172,-604.5"/>
<text text-anchor="middle" x="175" y="-582.3" font-family="Helvetica,sans-Serif" font-size="14.00">strain_H1_whiten</text>
</g>
<!-- WHITENING&#45;&gt;strain_H1_whiten -->
<g id="edge13" class="edge"><title>WHITENING&#45;&gt;strain_H1_whiten</title>
<path fill="none" stroke="black" d="M170.608,-645.329C171.317,-635.999 172.158,-624.914 172.915,-614.959"/>
<polygon fill="black" stroke="black" points="176.424,-614.971 173.691,-604.735 169.444,-614.441 176.424,-614.971"/>
</g>
<!-- strain_L1_whiten -->
<g id="node32" class="node"><title>strain_L1_whiten</title>
<path fill="#ffffcc" stroke="black" d="M364.848,-604.5C364.848,-604.5 267.152,-604.5 267.152,-604.5 261.152,-604.5 255.152,-598.5 255.152,-592.5 255.152,-592.5 255.152,-580.5 255.152,-580.5 255.152,-574.5 261.152,-568.5 267.152,-568.5 267.152,-568.5 364.848,-568.5 364.848,-568.5 370.848,-568.5 376.848,-574.5 376.848,-580.5 376.848,-580.5 376.848,-592.5 376.848,-592.5 376.848,-598.5 370.848,-604.5 364.848,-604.5"/>
<text text-anchor="middle" x="316" y="-582.3" font-family="Helvetica,sans-Serif" font-size="14.00">strain_L1_whiten</text>
</g>
<!-- WHITENING&#45;&gt;strain_L1_whiten -->
<g id="edge14" class="edge"><title>WHITENING&#45;&gt;strain_L1_whiten</title>
<path fill="none" stroke="black" d="M208.393,-645.329C228.988,-634.261 254.174,-620.726 275,-609.534"/>
<polygon fill="black" stroke="black" points="276.779,-612.552 283.93,-604.735 273.465,-606.386 276.779,-612.552"/>
</g>
<!-- BANDPASSING -->
<g id="node4" class="node"><title>BANDPASSING</title>
<polygon fill="#ccffcc" stroke="black" points="74.3809,-483.5 74.3809,-527.5 325.619,-527.5 325.619,-483.5 74.3809,-483.5"/>
<text text-anchor="middle" x="200" y="-512.3" font-family="Courier,monospace" font-size="14.00">BANDPASSING</text>
<polyline fill="none" stroke="black" points="74.3809,-505.5 325.619,-505.5 "/>
<text text-anchor="middle" x="200" y="-490.3" font-family="Courier,monospace" font-size="14.00">remove high frequency noise.</text>
</g>
<!-- strain_H1_whitenbp -->
<g id="node33" class="node"><title>strain_H1_whitenbp</title>
<path fill="#ffffcc" stroke="black" d="M151.744,-442.5C151.744,-442.5 36.2556,-442.5 36.2556,-442.5 30.2556,-442.5 24.2556,-436.5 24.2556,-430.5 24.2556,-430.5 24.2556,-418.5 24.2556,-418.5 24.2556,-412.5 30.2556,-406.5 36.2556,-406.5 36.2556,-406.5 151.744,-406.5 151.744,-406.5 157.744,-406.5 163.744,-412.5 163.744,-418.5 163.744,-418.5 163.744,-430.5 163.744,-430.5 163.744,-436.5 157.744,-442.5 151.744,-442.5"/>
<text text-anchor="middle" x="94" y="-420.3" font-family="Helvetica,sans-Serif" font-size="14.00">strain_H1_whitenbp</text>
</g>
<!-- BANDPASSING&#45;&gt;strain_H1_whitenbp -->
<g id="edge17" class="edge"><title>BANDPASSING&#45;&gt;strain_H1_whitenbp</title>
<path fill="none" stroke="black" d="M171.594,-483.329C157.343,-472.708 140.043,-459.815 125.398,-448.9"/>
<polygon fill="black" stroke="black" points="127.235,-445.904 117.125,-442.735 123.052,-451.517 127.235,-445.904"/>
</g>
<!-- strain_L1_whitenbp -->
<g id="node34" class="node"><title>strain_L1_whitenbp</title>
<path fill="#ffffcc" stroke="black" d="M307.921,-442.5C307.921,-442.5 194.079,-442.5 194.079,-442.5 188.079,-442.5 182.079,-436.5 182.079,-430.5 182.079,-430.5 182.079,-418.5 182.079,-418.5 182.079,-412.5 188.079,-406.5 194.079,-406.5 194.079,-406.5 307.921,-406.5 307.921,-406.5 313.921,-406.5 319.921,-412.5 319.921,-418.5 319.921,-418.5 319.921,-430.5 319.921,-430.5 319.921,-436.5 313.921,-442.5 307.921,-442.5"/>
<text text-anchor="middle" x="251" y="-420.3" font-family="Helvetica,sans-Serif" font-size="14.00">strain_L1_whitenbp</text>
</g>
<!-- BANDPASSING&#45;&gt;strain_L1_whitenbp -->
<g id="edge18" class="edge"><title>BANDPASSING&#45;&gt;strain_L1_whitenbp</title>
<path fill="none" stroke="black" d="M213.667,-483.329C220.011,-473.502 227.611,-461.73 234.293,-451.38"/>
<polygon fill="black" stroke="black" points="237.391,-453.034 239.874,-442.735 231.51,-449.238 237.391,-453.034"/>
</g>
<!-- STRAIN_WAVEFORM_FOR_WHITENED_DATA -->
<g id="node5" class="node"><title>STRAIN_WAVEFORM_FOR_WHITENED_DATA</title>
<polygon fill="#ccffcc" stroke="black" points="713.377,-321.5 713.377,-365.5 1006.62,-365.5 1006.62,-321.5 713.377,-321.5"/>
<text text-anchor="middle" x="860" y="-350.3" font-family="Courier,monospace" font-size="14.00">STRAIN_WAVEFORM_FOR_WHITENED_DATA</text>
<polyline fill="none" stroke="black" points="713.377,-343.5 1006.62,-343.5 "/>
<text text-anchor="middle" x="860" y="-328.3" font-family="Courier,monospace" font-size="14.00">plot whitened data.</text>
</g>
<!-- WHITENED_strain_data -->
<g id="node20" class="node"><title>WHITENED_strain_data</title>
<path fill="#ffffcc" stroke="black" d="M767.149,-240.5C767.149,-240.5 984.851,-240.5 984.851,-240.5 990.851,-240.5 996.851,-246.5 996.851,-252.5 996.851,-252.5 996.851,-272.5 996.851,-272.5 996.851,-278.5 990.851,-284.5 984.851,-284.5 984.851,-284.5 767.149,-284.5 767.149,-284.5 761.149,-284.5 755.149,-278.5 755.149,-272.5 755.149,-272.5 755.149,-252.5 755.149,-252.5 755.149,-246.5 761.149,-240.5 767.149,-240.5"/>
<text text-anchor="middle" x="876" y="-269.3" font-family="Helvetica,sans-Serif" font-size="14.00">WHITENED_strain_data</text>
<polyline fill="none" stroke="black" points="755.149,-262.5 996.851,-262.5 "/>
<text text-anchor="middle" x="876" y="-247.3" font-family="Helvetica,sans-Serif" font-size="14.00">file:GW150914_strain_whitened.png</text>
</g>
<!-- STRAIN_WAVEFORM_FOR_WHITENED_DATA&#45;&gt;WHITENED_strain_data -->
<g id="edge21" class="edge"><title>STRAIN_WAVEFORM_FOR_WHITENED_DATA&#45;&gt;WHITENED_strain_data</title>
<path fill="none" stroke="black" d="M864.288,-321.329C865.938,-313.183 867.858,-303.699 869.661,-294.797"/>
<polygon fill="black" stroke="black" points="873.146,-295.225 871.7,-284.729 866.285,-293.835 873.146,-295.225"/>
</g>
<!-- SPECTROGRAMS_FOR_STRAIN_DATA -->
<g id="node6" class="node"><title>SPECTROGRAMS_FOR_STRAIN_DATA</title>
<polygon fill="#ccffcc" stroke="black" points="324.377,-807.5 324.377,-851.5 617.623,-851.5 617.623,-807.5 324.377,-807.5"/>
<text text-anchor="middle" x="471" y="-836.3" font-family="Courier,monospace" font-size="14.00">SPECTROGRAMS_FOR_STRAIN_DATA</text>
<polyline fill="none" stroke="black" points="324.377,-829.5 617.623,-829.5 "/>
<text text-anchor="middle" x="471" y="-814.3" font-family="Courier,monospace" font-size="14.00">plot spectrogram for strain data.</text>
</g>
<!-- spectrogram -->
<g id="node18" class="node"><title>spectrogram</title>
<path fill="#ffffcc" stroke="black" d="M651.415,-726.5C651.415,-726.5 916.585,-726.5 916.585,-726.5 922.585,-726.5 928.585,-732.5 928.585,-738.5 928.585,-738.5 928.585,-758.5 928.585,-758.5 928.585,-764.5 922.585,-770.5 916.585,-770.5 916.585,-770.5 651.415,-770.5 651.415,-770.5 645.415,-770.5 639.415,-764.5 639.415,-758.5 639.415,-758.5 639.415,-738.5 639.415,-738.5 639.415,-732.5 645.415,-726.5 651.415,-726.5"/>
<text text-anchor="middle" x="784" y="-755.3" font-family="Helvetica,sans-Serif" font-size="14.00">spectrogram</text>
<polyline fill="none" stroke="black" points="639.415,-748.5 928.585,-748.5 "/>
<text text-anchor="middle" x="784" y="-733.3" font-family="Helvetica,sans-Serif" font-size="14.00">file:GW150914_{detector}_spectrogram.png</text>
</g>
<!-- SPECTROGRAMS_FOR_STRAIN_DATA&#45;&gt;spectrogram -->
<g id="edge24" class="edge"><title>SPECTROGRAMS_FOR_STRAIN_DATA&#45;&gt;spectrogram</title>
<path fill="none" stroke="black" d="M554.467,-807.433C596.47,-796.832 647.519,-783.947 690.801,-773.023"/>
<polygon fill="black" stroke="black" points="691.926,-776.349 700.766,-770.508 690.213,-769.562 691.926,-776.349"/>
</g>
<!-- SPECTROGRAMS_FOR_WHITEND_DATA -->
<g id="node7" class="node"><title>SPECTROGRAMS_FOR_WHITEND_DATA</title>
<polygon fill="#ccffcc" stroke="black" points="346.976,-483.5 346.976,-527.5 657.024,-527.5 657.024,-483.5 346.976,-483.5"/>
<text text-anchor="middle" x="502" y="-512.3" font-family="Courier,monospace" font-size="14.00">SPECTROGRAMS_FOR_WHITEND_DATA</text>
<polyline fill="none" stroke="black" points="346.976,-505.5 657.024,-505.5 "/>
<text text-anchor="middle" x="502" y="-490.3" font-family="Courier,monospace" font-size="14.00">plot spectrogram for whitened data.</text>
</g>
<!-- spectrogram_whitened -->
<g id="node17" class="node"><title>spectrogram_whitened</title>
<path fill="#ffffcc" stroke="black" d="M349.501,-402.5C349.501,-402.5 678.499,-402.5 678.499,-402.5 684.499,-402.5 690.499,-408.5 690.499,-414.5 690.499,-414.5 690.499,-434.5 690.499,-434.5 690.499,-440.5 684.499,-446.5 678.499,-446.5 678.499,-446.5 349.501,-446.5 349.501,-446.5 343.501,-446.5 337.501,-440.5 337.501,-434.5 337.501,-434.5 337.501,-414.5 337.501,-414.5 337.501,-408.5 343.501,-402.5 349.501,-402.5"/>
<text text-anchor="middle" x="514" y="-431.3" font-family="Helvetica,sans-Serif" font-size="14.00">spectrogram_whitened</text>
<polyline fill="none" stroke="black" points="337.501,-424.5 690.499,-424.5 "/>
<text text-anchor="middle" x="514" y="-409.3" font-family="Helvetica,sans-Serif" font-size="14.00">file:GW150914_{detector}_spectrogram_whitened.png</text>
</g>
<!-- SPECTROGRAMS_FOR_WHITEND_DATA&#45;&gt;spectrogram_whitened -->
<g id="edge28" class="edge"><title>SPECTROGRAMS_FOR_WHITEND_DATA&#45;&gt;spectrogram_whitened</title>
<path fill="none" stroke="black" d="M505.216,-483.329C506.453,-475.183 507.894,-465.699 509.246,-456.797"/>
<polygon fill="black" stroke="black" points="512.734,-457.141 510.775,-446.729 505.813,-456.09 512.734,-457.141"/>
</g>
<!-- FILTER_COEFS -->
<g id="node8" class="node"><title>FILTER_COEFS</title>
<polygon fill="#ccffcc" stroke="black" points="656.371,-807.5 656.371,-851.5 1033.63,-851.5 1033.63,-807.5 656.371,-807.5"/>
<text text-anchor="middle" x="845" y="-836.3" font-family="Courier,monospace" font-size="14.00">FILTER_COEFS</text>
<polyline fill="none" stroke="black" points="656.371,-829.5 1033.63,-829.5 "/>
<text text-anchor="middle" x="845" y="-814.3" font-family="Courier,monospace" font-size="14.00">Filter signal in time domain (bandpassing).</text>
</g>
<!-- COEFFICIENTS -->
<g id="node35" class="node"><title>COEFFICIENTS</title>
<path fill="#ffffcc" stroke="black" d="M1053.17,-766.5C1053.17,-766.5 958.831,-766.5 958.831,-766.5 952.831,-766.5 946.831,-760.5 946.831,-754.5 946.831,-754.5 946.831,-742.5 946.831,-742.5 946.831,-736.5 952.831,-730.5 958.831,-730.5 958.831,-730.5 1053.17,-730.5 1053.17,-730.5 1059.17,-730.5 1065.17,-736.5 1065.17,-742.5 1065.17,-742.5 1065.17,-754.5 1065.17,-754.5 1065.17,-760.5 1059.17,-766.5 1053.17,-766.5"/>
<text text-anchor="middle" x="1006" y="-744.3" font-family="Helvetica,sans-Serif" font-size="14.00">COEFFICIENTS</text>
</g>
<!-- FILTER_COEFS&#45;&gt;COEFFICIENTS -->
<g id="edge32" class="edge"><title>FILTER_COEFS&#45;&gt;COEFFICIENTS</title>
<path fill="none" stroke="black" d="M888.145,-807.329C910.986,-796.122 938.981,-782.385 961.955,-771.112"/>
<polygon fill="black" stroke="black" points="963.703,-774.153 971.138,-766.606 960.619,-767.869 963.703,-774.153"/>
</g>
<!-- FILTER_DATA -->
<g id="node9" class="node"><title>FILTER_DATA</title>
<polygon fill="#ccffcc" stroke="black" points="802.592,-645.5 802.592,-689.5 919.408,-689.5 919.408,-645.5 802.592,-645.5"/>
<text text-anchor="middle" x="861" y="-674.3" font-family="Courier,monospace" font-size="14.00">FILTER_DATA</text>
<polyline fill="none" stroke="black" points="802.592,-667.5 919.408,-667.5 "/>
<text text-anchor="middle" x="861" y="-652.3" font-family="Courier,monospace" font-size="14.00">filter data.</text>
</g>
<!-- filtered_white_noise_data -->
<g id="node19" class="node"><title>filtered_white_noise_data</title>
<path fill="#ffffcc" stroke="black" d="M1023.61,-564.5C1023.61,-564.5 1174.39,-564.5 1174.39,-564.5 1180.39,-564.5 1186.39,-570.5 1186.39,-576.5 1186.39,-576.5 1186.39,-596.5 1186.39,-596.5 1186.39,-602.5 1180.39,-608.5 1174.39,-608.5 1174.39,-608.5 1023.61,-608.5 1023.61,-608.5 1017.61,-608.5 1011.61,-602.5 1011.61,-596.5 1011.61,-596.5 1011.61,-576.5 1011.61,-576.5 1011.61,-570.5 1017.61,-564.5 1023.61,-564.5"/>
<text text-anchor="middle" x="1099" y="-593.3" font-family="Helvetica,sans-Serif" font-size="14.00">filtered_white_noise_data</text>
<polyline fill="none" stroke="black" points="1011.61,-586.5 1186.39,-586.5 "/>
<text text-anchor="middle" x="1099" y="-571.3" font-family="Helvetica,sans-Serif" font-size="14.00">file:GW150914_filter.png</text>
</g>
<!-- FILTER_DATA&#45;&gt;filtered_white_noise_data -->
<g id="edge36" class="edge"><title>FILTER_DATA&#45;&gt;filtered_white_noise_data</title>
<path fill="none" stroke="black" d="M919.526,-647.073C951.595,-636.428 991.645,-623.135 1025.77,-611.807"/>
<polygon fill="black" stroke="black" points="1027.3,-614.987 1035.69,-608.515 1025.1,-608.344 1027.3,-614.987"/>
</g>
<!-- strain_H1_filt -->
<g id="node36" class="node"><title>strain_H1_filt</title>
<path fill="#ffffcc" stroke="black" d="M955.704,-604.5C955.704,-604.5 882.296,-604.5 882.296,-604.5 876.296,-604.5 870.296,-598.5 870.296,-592.5 870.296,-592.5 870.296,-580.5 870.296,-580.5 870.296,-574.5 876.296,-568.5 882.296,-568.5 882.296,-568.5 955.704,-568.5 955.704,-568.5 961.704,-568.5 967.704,-574.5 967.704,-580.5 967.704,-580.5 967.704,-592.5 967.704,-592.5 967.704,-598.5 961.704,-604.5 955.704,-604.5"/>
<text text-anchor="middle" x="919" y="-582.3" font-family="Helvetica,sans-Serif" font-size="14.00">strain_H1_filt</text>
</g>
<!-- FILTER_DATA&#45;&gt;strain_H1_filt -->
<g id="edge34" class="edge"><title>FILTER_DATA&#45;&gt;strain_H1_filt</title>
<path fill="none" stroke="black" d="M876.543,-645.329C883.831,-635.403 892.575,-623.492 900.23,-613.067"/>
<polygon fill="black" stroke="black" points="903.25,-614.867 906.347,-604.735 897.607,-610.724 903.25,-614.867"/>
</g>
<!-- strain_L1_filt -->
<g id="node37" class="node"><title>strain_L1_filt</title>
<path fill="#ffffcc" stroke="black" d="M839.88,-604.5C839.88,-604.5 768.12,-604.5 768.12,-604.5 762.12,-604.5 756.12,-598.5 756.12,-592.5 756.12,-592.5 756.12,-580.5 756.12,-580.5 756.12,-574.5 762.12,-568.5 768.12,-568.5 768.12,-568.5 839.88,-568.5 839.88,-568.5 845.88,-568.5 851.88,-574.5 851.88,-580.5 851.88,-580.5 851.88,-592.5 851.88,-592.5 851.88,-598.5 845.88,-604.5 839.88,-604.5"/>
<text text-anchor="middle" x="804" y="-582.3" font-family="Helvetica,sans-Serif" font-size="14.00">strain_L1_filt</text>
</g>
<!-- FILTER_DATA&#45;&gt;strain_L1_filt -->
<g id="edge35" class="edge"><title>FILTER_DATA&#45;&gt;strain_L1_filt</title>
<path fill="none" stroke="black" d="M845.725,-645.329C838.563,-635.403 829.969,-623.492 822.447,-613.067"/>
<polygon fill="black" stroke="black" points="825.125,-610.796 816.435,-604.735 819.448,-614.892 825.125,-610.796"/>
</g>
<!-- STRAIN_WAVEFORM_FOR_FILTERED_DATA -->
<g id="node10" class="node"><title>STRAIN_WAVEFORM_FOR_FILTERED_DATA</title>
<polygon fill="#ccffcc" stroke="black" points="721.377,-483.5 721.377,-527.5 1014.62,-527.5 1014.62,-483.5 721.377,-483.5"/>
<text text-anchor="middle" x="868" y="-512.3" font-family="Courier,monospace" font-size="14.00">STRAIN_WAVEFORM_FOR_FILTERED_DATA</text>
<polyline fill="none" stroke="black" points="721.377,-505.5 1014.62,-505.5 "/>
<text text-anchor="middle" x="868" y="-490.3" font-family="Courier,monospace" font-size="14.00">plot the filtered data.</text>
</g>
<!-- H1_strain_filtered -->
<g id="node21" class="node"><title>H1_strain_filtered</title>
<path fill="#ffffcc" stroke="black" d="M1007.32,-402.5C1007.32,-402.5 1236.68,-402.5 1236.68,-402.5 1242.68,-402.5 1248.68,-408.5 1248.68,-414.5 1248.68,-414.5 1248.68,-434.5 1248.68,-434.5 1248.68,-440.5 1242.68,-446.5 1236.68,-446.5 1236.68,-446.5 1007.32,-446.5 1007.32,-446.5 1001.32,-446.5 995.318,-440.5 995.318,-434.5 995.318,-434.5 995.318,-414.5 995.318,-414.5 995.318,-408.5 1001.32,-402.5 1007.32,-402.5"/>
<text text-anchor="middle" x="1122" y="-431.3" font-family="Helvetica,sans-Serif" font-size="14.00">H1_strain_filtered</text>
<polyline fill="none" stroke="black" points="995.318,-424.5 1248.68,-424.5 "/>
<text text-anchor="middle" x="1122" y="-409.3" font-family="Helvetica,sans-Serif" font-size="14.00">file:GW150914_H1_strain_filtered.png</text>
</g>
<!-- STRAIN_WAVEFORM_FOR_FILTERED_DATA&#45;&gt;H1_strain_filtered -->
<g id="edge40" class="edge"><title>STRAIN_WAVEFORM_FOR_FILTERED_DATA&#45;&gt;H1_strain_filtered</title>
<path fill="none" stroke="black" d="M935.734,-483.433C969.316,-472.988 1010.03,-460.326 1044.81,-449.507"/>
<polygon fill="black" stroke="black" points="1045.95,-452.82 1054.46,-446.508 1043.87,-446.136 1045.95,-452.82"/>
</g>
<!-- H1_strain_unfiltered -->
<g id="node22" class="node"><title>H1_strain_unfiltered</title>
<path fill="#ffffcc" stroke="black" d="M720.532,-402.5C720.532,-402.5 965.468,-402.5 965.468,-402.5 971.468,-402.5 977.468,-408.5 977.468,-414.5 977.468,-414.5 977.468,-434.5 977.468,-434.5 977.468,-440.5 971.468,-446.5 965.468,-446.5 965.468,-446.5 720.532,-446.5 720.532,-446.5 714.532,-446.5 708.532,-440.5 708.532,-434.5 708.532,-434.5 708.532,-414.5 708.532,-414.5 708.532,-408.5 714.532,-402.5 720.532,-402.5"/>
<text text-anchor="middle" x="843" y="-431.3" font-family="Helvetica,sans-Serif" font-size="14.00">H1_strain_unfiltered</text>
<polyline fill="none" stroke="black" points="708.532,-424.5 977.468,-424.5 "/>
<text text-anchor="middle" x="843" y="-409.3" font-family="Helvetica,sans-Serif" font-size="14.00">file:GW150914_H1_strain_unfiltered.png</text>
</g>
<!-- STRAIN_WAVEFORM_FOR_FILTERED_DATA&#45;&gt;H1_strain_unfiltered -->
<g id="edge41" class="edge"><title>STRAIN_WAVEFORM_FOR_FILTERED_DATA&#45;&gt;H1_strain_unfiltered</title>
<path fill="none" stroke="black" d="M861.3,-483.329C858.694,-475.094 855.656,-465.493 852.812,-456.507"/>
<polygon fill="black" stroke="black" points="856.072,-455.207 849.718,-446.729 849.398,-457.319 856.072,-455.207"/>
</g>
<!-- WAVE_FILE_GENERATOR_FOR_WHITENED_DATA -->
<g id="node11" class="node"><title>WAVE_FILE_GENERATOR_FOR_WHITENED_DATA</title>
<polygon fill="#ccffcc" stroke="black" points="368.575,-321.5 368.575,-365.5 695.425,-365.5 695.425,-321.5 368.575,-321.5"/>
<text text-anchor="middle" x="532" y="-350.3" font-family="Courier,monospace" font-size="14.00">WAVE_FILE_GENERATOR_FOR_WHITENED_DATA</text>
<polyline fill="none" stroke="black" points="368.575,-343.5 695.425,-343.5 "/>
<text text-anchor="middle" x="532" y="-328.3" font-family="Courier,monospace" font-size="14.00">Make sound files for whitened data.</text>
</g>
<!-- whitened_bandpass_wavefile -->
<g id="node16" class="node"><title>whitened_bandpass_wavefile</title>
<path fill="#ffffcc" stroke="black" d="M443.528,-240.5C443.528,-240.5 688.472,-240.5 688.472,-240.5 694.472,-240.5 700.472,-246.5 700.472,-252.5 700.472,-252.5 700.472,-272.5 700.472,-272.5 700.472,-278.5 694.472,-284.5 688.472,-284.5 688.472,-284.5 443.528,-284.5 443.528,-284.5 437.528,-284.5 431.528,-278.5 431.528,-272.5 431.528,-272.5 431.528,-252.5 431.528,-252.5 431.528,-246.5 437.528,-240.5 443.528,-240.5"/>
<text text-anchor="middle" x="566" y="-269.3" font-family="Helvetica,sans-Serif" font-size="14.00">whitened_bandpass_wavefile</text>
<polyline fill="none" stroke="black" points="431.528,-262.5 700.472,-262.5 "/>
<text text-anchor="middle" x="566" y="-247.3" font-family="Helvetica,sans-Serif" font-size="14.00">file:GW150914_{detector}_whitenbp.wav</text>
</g>
<!-- WAVE_FILE_GENERATOR_FOR_WHITENED_DATA&#45;&gt;whitened_bandpass_wavefile -->
<g id="edge44" class="edge"><title>WAVE_FILE_GENERATOR_FOR_WHITENED_DATA&#45;&gt;whitened_bandpass_wavefile</title>
<path fill="none" stroke="black" d="M541.111,-321.329C544.732,-312.917 548.966,-303.079 552.904,-293.928"/>
<polygon fill="black" stroke="black" points="556.125,-295.298 556.863,-284.729 549.695,-292.531 556.125,-295.298"/>
</g>
<!-- SHIFT_FREQUENCY_BANDPASSED -->
<g id="node12" class="node"><title>SHIFT_FREQUENCY_BANDPASSED</title>
<polygon fill="#ccffcc" stroke="black" points="23.5747,-321.5 23.5747,-365.5 350.425,-365.5 350.425,-321.5 23.5747,-321.5"/>
<text text-anchor="middle" x="187" y="-350.3" font-family="Courier,monospace" font-size="14.00">SHIFT_FREQUENCY_BANDPASSED</text>
<polyline fill="none" stroke="black" points="23.5747,-343.5 350.425,-343.5 "/>
<text text-anchor="middle" x="187" y="-328.3" font-family="Courier,monospace" font-size="14.00">shift frequency of bandpassed signal.</text>
</g>
<!-- strain_H1_shifted -->
<g id="node38" class="node"><title>strain_H1_shifted</title>
<path fill="#ffffcc" stroke="black" d="M237.451,-280.5C237.451,-280.5 136.549,-280.5 136.549,-280.5 130.549,-280.5 124.549,-274.5 124.549,-268.5 124.549,-268.5 124.549,-256.5 124.549,-256.5 124.549,-250.5 130.549,-244.5 136.549,-244.5 136.549,-244.5 237.451,-244.5 237.451,-244.5 243.451,-244.5 249.451,-250.5 249.451,-256.5 249.451,-256.5 249.451,-268.5 249.451,-268.5 249.451,-274.5 243.451,-280.5 237.451,-280.5"/>
<text text-anchor="middle" x="187" y="-258.3" font-family="Helvetica,sans-Serif" font-size="14.00">strain_H1_shifted</text>
</g>
<!-- SHIFT_FREQUENCY_BANDPASSED&#45;&gt;strain_H1_shifted -->
<g id="edge47" class="edge"><title>SHIFT_FREQUENCY_BANDPASSED&#45;&gt;strain_H1_shifted</title>
<path fill="none" stroke="black" d="M187,-321.329C187,-311.999 187,-300.914 187,-290.959"/>
<polygon fill="black" stroke="black" points="190.5,-290.735 187,-280.735 183.5,-290.735 190.5,-290.735"/>
</g>
<!-- strain_L1_shifted -->
<g id="node39" class="node"><title>strain_L1_shifted</title>
<path fill="#ffffcc" stroke="black" d="M378.128,-280.5C378.128,-280.5 279.872,-280.5 279.872,-280.5 273.872,-280.5 267.872,-274.5 267.872,-268.5 267.872,-268.5 267.872,-256.5 267.872,-256.5 267.872,-250.5 273.872,-244.5 279.872,-244.5 279.872,-244.5 378.128,-244.5 378.128,-244.5 384.128,-244.5 390.128,-250.5 390.128,-256.5 390.128,-256.5 390.128,-268.5 390.128,-268.5 390.128,-274.5 384.128,-280.5 378.128,-280.5"/>
<text text-anchor="middle" x="329" y="-258.3" font-family="Helvetica,sans-Serif" font-size="14.00">strain_L1_shifted</text>
</g>
<!-- SHIFT_FREQUENCY_BANDPASSED&#45;&gt;strain_L1_shifted -->
<g id="edge48" class="edge"><title>SHIFT_FREQUENCY_BANDPASSED&#45;&gt;strain_L1_shifted</title>
<path fill="none" stroke="black" d="M225.053,-321.329C244.859,-310.311 269.058,-296.848 289.124,-285.685"/>
<polygon fill="black" stroke="black" points="290.984,-288.655 298.021,-280.735 287.581,-282.538 290.984,-288.655"/>
</g>
<!-- WAVE_FILE_GENERATOR_FOR_SHIFTED_DATA -->
<g id="node13" class="node"><title>WAVE_FILE_GENERATOR_FOR_SHIFTED_DATA</title>
<polygon fill="#ccffcc" stroke="black" points="169.775,-159.5 169.775,-203.5 488.225,-203.5 488.225,-159.5 169.775,-159.5"/>
<text text-anchor="middle" x="329" y="-188.3" font-family="Courier,monospace" font-size="14.00">WAVE_FILE_GENERATOR_FOR_SHIFTED_DATA</text>
<polyline fill="none" stroke="black" points="169.775,-181.5 488.225,-181.5 "/>
<text text-anchor="middle" x="329" y="-166.3" font-family="Courier,monospace" font-size="14.00">Make sound files for shifted data.</text>
</g>
<!-- shifted_wavefile -->
<g id="node15" class="node"><title>shifted_wavefile</title>
<path fill="#ffffcc" stroke="black" d="M338.925,-78.5C338.925,-78.5 569.075,-78.5 569.075,-78.5 575.075,-78.5 581.075,-84.5 581.075,-90.5 581.075,-90.5 581.075,-110.5 581.075,-110.5 581.075,-116.5 575.075,-122.5 569.075,-122.5 569.075,-122.5 338.925,-122.5 338.925,-122.5 332.925,-122.5 326.925,-116.5 326.925,-110.5 326.925,-110.5 326.925,-90.5 326.925,-90.5 326.925,-84.5 332.925,-78.5 338.925,-78.5"/>
<text text-anchor="middle" x="454" y="-107.3" font-family="Helvetica,sans-Serif" font-size="14.00">shifted_wavefile</text>
<polyline fill="none" stroke="black" points="326.925,-100.5 581.075,-100.5 "/>
<text text-anchor="middle" x="454" y="-85.3" font-family="Helvetica,sans-Serif" font-size="14.00">file:GW150914_{detector}_shifted.wav</text>
</g>
<!-- WAVE_FILE_GENERATOR_FOR_SHIFTED_DATA&#45;&gt;shifted_wavefile -->
<g id="edge51" class="edge"><title>WAVE_FILE_GENERATOR_FOR_SHIFTED_DATA&#45;&gt;shifted_wavefile</title>
<path fill="none" stroke="black" d="M362.498,-159.329C377.63,-149.766 395.677,-138.36 411.729,-128.215"/>
<polygon fill="black" stroke="black" points="413.826,-131.03 420.41,-122.729 410.087,-125.113 413.826,-131.03"/>
</g>
<!-- DOWNSAMPLING -->
<g id="node14" class="node"><title>DOWNSAMPLING</title>
<polygon fill="#ccffcc" stroke="black" points="1051.37,-807.5 1051.37,-851.5 1386.63,-851.5 1386.63,-807.5 1051.37,-807.5"/>
<text text-anchor="middle" x="1219" y="-836.3" font-family="Courier,monospace" font-size="14.00">DOWNSAMPLING</text>
<polyline fill="none" stroke="black" points="1051.37,-829.5 1386.63,-829.5 "/>
<text text-anchor="middle" x="1219" y="-814.3" font-family="Courier,monospace" font-size="14.00">Downsampling from 16384 Hz to 4096 Hz.</text>
</g>
<!-- H1_ASD_SamplingRate -->
<g id="node24" class="node"><title>H1_ASD_SamplingRate</title>
<path fill="#ffffcc" stroke="black" d="M1095.41,-726.5C1095.41,-726.5 1374.59,-726.5 1374.59,-726.5 1380.59,-726.5 1386.59,-732.5 1386.59,-738.5 1386.59,-738.5 1386.59,-758.5 1386.59,-758.5 1386.59,-764.5 1380.59,-770.5 1374.59,-770.5 1374.59,-770.5 1095.41,-770.5 1095.41,-770.5 1089.41,-770.5 1083.41,-764.5 1083.41,-758.5 1083.41,-758.5 1083.41,-738.5 1083.41,-738.5 1083.41,-732.5 1089.41,-726.5 1095.41,-726.5"/>
<text text-anchor="middle" x="1235" y="-755.3" font-family="Helvetica,sans-Serif" font-size="14.00">H1_ASD_SamplingRate</text>
<polyline fill="none" stroke="black" points="1083.41,-748.5 1386.59,-748.5 "/>
<text text-anchor="middle" x="1235" y="-733.3" font-family="Helvetica,sans-Serif" font-size="14.00">file:GW150914_H1_ASD_{SamplingRate}.png</text>
</g>
<!-- DOWNSAMPLING&#45;&gt;H1_ASD_SamplingRate -->
<g id="edge54" class="edge"><title>DOWNSAMPLING&#45;&gt;H1_ASD_SamplingRate</title>
<path fill="none" stroke="black" d="M1223.29,-807.329C1224.94,-799.183 1226.86,-789.699 1228.66,-780.797"/>
<polygon fill="black" stroke="black" points="1232.15,-781.225 1230.7,-770.729 1225.29,-779.835 1232.15,-781.225"/>
</g>
<!-- shifted_wavefile_output_port -->
<g id="node46" class="node"><title>shifted_wavefile_output_port</title>
<ellipse fill="#ffffff" stroke="black" cx="957" cy="-31" rx="7" ry="7"/>
</g>
<!-- shifted_wavefile&#45;&gt;shifted_wavefile_output_port -->
<g id="edge60" class="edge"><title>shifted_wavefile&#45;&gt;shifted_wavefile_output_port</title>
<path fill="none" stroke="black" d="M581.134,-81.2041C625.101,-74.9758 674.699,-68.06 720,-62 802.332,-50.9863 900.9,-38.8436 939.906,-34.0796"/>
<polygon fill="black" stroke="black" points="940.513,-37.5317 950.016,-32.8475 939.666,-30.5831 940.513,-37.5317"/>
</g>
<!-- whitened_bandpass_wavefile_output_port -->
<g id="node47" class="node"><title>whitened_bandpass_wavefile_output_port</title>
<ellipse fill="#ffffff" stroke="black" cx="989" cy="-31" rx="7" ry="7"/>
</g>
<!-- whitened_bandpass_wavefile&#45;&gt;whitened_bandpass_wavefile_output_port -->
<g id="edge61" class="edge"><title>whitened_bandpass_wavefile&#45;&gt;whitened_bandpass_wavefile_output_port</title>
<path fill="none" stroke="black" d="M607.851,-240.485C710.181,-189.06 965.291,-60.5827 973,-54 975.644,-51.7421 978.091,-48.9633 980.235,-46.1499"/>
<polygon fill="black" stroke="black" points="983.28,-47.8934 985.927,-37.6345 977.46,-44.0035 983.28,-47.8934"/>
</g>
<!-- spectrogram_whitened_output_port -->
<g id="node48" class="node"><title>spectrogram_whitened_output_port</title>
<ellipse fill="#ffffff" stroke="black" cx="1053" cy="-31" rx="7" ry="7"/>
</g>
<!-- spectrogram_whitened&#45;&gt;spectrogram_whitened_output_port -->
<g id="edge62" class="edge"><title>spectrogram_whitened&#45;&gt;spectrogram_whitened_output_port</title>
<path fill="none" stroke="black" d="M690.717,-403.066C693.836,-402.708 696.932,-402.352 700,-402 770.216,-393.942 963.198,-412.98 1016,-366 1050.95,-334.899 1040,-310.288 1040,-263.5 1040,-263.5 1040,-263.5 1040,-180.5 1040,-132.256 1046.89,-75.5313 1050.64,-48.2578"/>
<polygon fill="black" stroke="black" points="1054.13,-48.5999 1052.07,-38.2076 1047.2,-47.6175 1054.13,-48.5999"/>
</g>
<!-- spectrogram_output_port -->
<g id="node49" class="node"><title>spectrogram_output_port</title>
<ellipse fill="#ffffff" stroke="black" cx="1213" cy="-31" rx="7" ry="7"/>
</g>
<!-- spectrogram&#45;&gt;spectrogram_output_port -->
<g id="edge63" class="edge"><title>spectrogram&#45;&gt;spectrogram_output_port</title>
<path fill="none" stroke="black" d="M928.657,-727.103C931.799,-726.725 934.916,-726.357 938,-726 1024.68,-715.965 1263.19,-747.293 1329,-690 1364.29,-659.279 1353,-634.288 1353,-587.5 1353,-587.5 1353,-587.5 1353,-180.5 1353,-126.764 1369.21,-97.6503 1329,-62 1312.32,-47.2099 1248.45,-64.9008 1229,-54 1225.79,-52.1987 1223.05,-49.4528 1220.79,-46.505"/>
<polygon fill="black" stroke="black" points="1223.67,-44.5114 1215.47,-37.7991 1217.7,-48.1583 1223.67,-44.5114"/>
</g>
<!-- filtered_white_noise_data_output_port -->
<g id="node50" class="node"><title>filtered_white_noise_data_output_port</title>
<ellipse fill="#ffffff" stroke="black" cx="1149" cy="-31" rx="7" ry="7"/>
</g>
<!-- filtered_white_noise_data&#45;&gt;filtered_white_noise_data_output_port -->
<g id="edge64" class="edge"><title>filtered_white_noise_data&#45;&gt;filtered_white_noise_data_output_port</title>
<path fill="none" stroke="black" d="M1152.41,-564.31C1204.84,-539.576 1277,-493.23 1277,-425.5 1277,-425.5 1277,-425.5 1277,-180.5 1277,-105.408 1212.03,-112.543 1165,-54 1162.82,-51.2892 1160.57,-48.3179 1158.48,-45.4603"/>
<polygon fill="black" stroke="black" points="1161.21,-43.2714 1152.55,-37.1716 1155.52,-47.3422 1161.21,-43.2714"/>
</g>
<!-- WHITENED_strain_data_output_port -->
<g id="node51" class="node"><title>WHITENED_strain_data_output_port</title>
<ellipse fill="#ffffff" stroke="black" cx="1021" cy="-31" rx="7" ry="7"/>
</g>
<!-- WHITENED_strain_data&#45;&gt;WHITENED_strain_data_output_port -->
<g id="edge65" class="edge"><title>WHITENED_strain_data&#45;&gt;WHITENED_strain_data_output_port</title>
<path fill="none" stroke="black" d="M889.381,-240.321C918.6,-194.075 987.458,-85.0896 1012.06,-46.1431"/>
<polygon fill="black" stroke="black" points="1015.16,-47.7983 1017.54,-37.4748 1009.24,-44.0593 1015.16,-47.7983"/>
</g>
<!-- H1_strain_filtered_output_port -->
<g id="node52" class="node"><title>H1_strain_filtered_output_port</title>
<ellipse fill="#ffffff" stroke="black" cx="1117" cy="-31" rx="7" ry="7"/>
</g>
<!-- H1_strain_filtered&#45;&gt;H1_strain_filtered_output_port -->
<g id="edge66" class="edge"><title>H1_strain_filtered&#45;&gt;H1_strain_filtered_output_port</title>
<path fill="none" stroke="black" d="M1121.78,-402.278C1121.49,-371.637 1121,-313.223 1121,-263.5 1121,-263.5 1121,-263.5 1121,-180.5 1121,-132.423 1118.88,-75.6217 1117.73,-48.2947"/>
<polygon fill="black" stroke="black" points="1121.22,-48.0614 1117.29,-38.223 1114.23,-48.3658 1121.22,-48.0614"/>
</g>
<!-- H1_strain_unfiltered_output_port -->
<g id="node53" class="node"><title>H1_strain_unfiltered_output_port</title>
<ellipse fill="#ffffff" stroke="black" cx="1085" cy="-31" rx="7" ry="7"/>
</g>
<!-- H1_strain_unfiltered&#45;&gt;H1_strain_unfiltered_output_port -->
<g id="edge67" class="edge"><title>H1_strain_unfiltered&#45;&gt;H1_strain_unfiltered_output_port</title>
<path fill="none" stroke="black" d="M959.409,-402.464C1000.31,-392.894 1039.66,-380.458 1054,-366 1087.17,-332.547 1081,-310.61 1081,-263.5 1081,-263.5 1081,-263.5 1081,-180.5 1081,-132.423 1083.12,-75.6217 1084.27,-48.2947"/>
<polygon fill="black" stroke="black" points="1087.77,-48.3658 1084.71,-38.223 1080.78,-48.0614 1087.77,-48.3658"/>
</g>
<!-- ASDs_output_port -->
<g id="node54" class="node"><title>ASDs_output_port</title>
<ellipse fill="#ffffff" stroke="black" cx="1181" cy="-31" rx="7" ry="7"/>
</g>
<!-- ASDs&#45;&gt;ASDs_output_port -->
<g id="edge68" class="edge"><title>ASDs&#45;&gt;ASDs_output_port</title>
<path fill="none" stroke="black" d="M397.742,-741.027C544.293,-730.144 828.615,-707.643 928,-690 1103.19,-658.899 1315,-765.431 1315,-587.5 1315,-587.5 1315,-587.5 1315,-180.5 1315,-115.163 1282.11,-98.6233 1228,-62 1216.22,-54.0241 1208.77,-62.0024 1197,-54 1193.95,-51.9283 1191.28,-49.0767 1189.03,-46.1127"/>
<polygon fill="black" stroke="black" points="1191.93,-44.1402 1183.63,-37.5515 1186.01,-47.8762 1191.93,-44.1402"/>
</g>
<!-- H1_ASD_SamplingRate_output_port -->
<g id="node55" class="node"><title>H1_ASD_SamplingRate_output_port</title>
<ellipse fill="#ffffff" stroke="black" cx="1245" cy="-31" rx="7" ry="7"/>
</g>
<!-- H1_ASD_SamplingRate&#45;&gt;H1_ASD_SamplingRate_output_port -->
<g id="edge69" class="edge"><title>H1_ASD_SamplingRate&#45;&gt;H1_ASD_SamplingRate_output_port</title>
<path fill="none" stroke="black" d="M1315.48,-726.35C1334.72,-717.861 1353.55,-706.127 1367,-690 1396.96,-654.064 1391,-634.288 1391,-587.5 1391,-587.5 1391,-587.5 1391,-180.5 1391,-126.764 1404.2,-100.773 1367,-62 1352.6,-46.9946 1291.96,-37.6984 1261.96,-33.9316"/>
<polygon fill="black" stroke="black" points="1262.15,-30.4301 1251.81,-32.7235 1261.33,-37.3811 1262.15,-30.4301"/>
</g>
<!-- FN_Detector -->
<g id="node25" class="node"><title>FN_Detector</title>
<path fill="#ffffcc" stroke="black" d="M36.3481,-1041.5C36.3481,-1041.5 331.652,-1041.5 331.652,-1041.5 337.652,-1041.5 343.652,-1047.5 343.652,-1053.5 343.652,-1053.5 343.652,-1073.5 343.652,-1073.5 343.652,-1079.5 337.652,-1085.5 331.652,-1085.5 331.652,-1085.5 36.3481,-1085.5 36.3481,-1085.5 30.3481,-1085.5 24.3481,-1079.5 24.3481,-1073.5 24.3481,-1073.5 24.3481,-1053.5 24.3481,-1053.5 24.3481,-1047.5 30.3481,-1041.5 36.3481,-1041.5"/>
<text text-anchor="middle" x="184" y="-1070.3" font-family="Helvetica,sans-Serif" font-size="14.00">FN_Detector</text>
<polyline fill="none" stroke="black" points="24.3481,-1063.5 343.652,-1063.5 "/>
<text text-anchor="middle" x="184" y="-1048.3" font-family="Helvetica,sans-Serif" font-size="14.00">file:{Detector}_LOSC_4_V1&#45;1126259446&#45;32.hdf5</text>
</g>
<!-- FN_Detector&#45;&gt;LOAD_DATA -->
<g id="edge5" class="edge"><title>FN_Detector&#45;&gt;LOAD_DATA</title>
<path fill="none" stroke="black" d="M249.334,-1041.43C281.588,-1031.03 320.658,-1018.43 354.116,-1007.65"/>
<polygon fill="black" stroke="black" points="355.405,-1010.91 363.848,-1004.51 353.257,-1004.25 355.405,-1010.91"/>
</g>
<!-- FN_Sampling_rate -->
<g id="node26" class="node"><title>FN_Sampling_rate</title>
<path fill="#ffffcc" stroke="black" d="M373.283,-1041.5C373.283,-1041.5 734.717,-1041.5 734.717,-1041.5 740.717,-1041.5 746.717,-1047.5 746.717,-1053.5 746.717,-1053.5 746.717,-1073.5 746.717,-1073.5 746.717,-1079.5 740.717,-1085.5 734.717,-1085.5 734.717,-1085.5 373.283,-1085.5 373.283,-1085.5 367.283,-1085.5 361.283,-1079.5 361.283,-1073.5 361.283,-1073.5 361.283,-1053.5 361.283,-1053.5 361.283,-1047.5 367.283,-1041.5 373.283,-1041.5"/>
<text text-anchor="middle" x="554" y="-1070.3" font-family="Helvetica,sans-Serif" font-size="14.00">FN_Sampling_rate</text>
<polyline fill="none" stroke="black" points="361.283,-1063.5 746.717,-1063.5 "/>
<text text-anchor="middle" x="554" y="-1048.3" font-family="Helvetica,sans-Serif" font-size="14.00">file:H&#45;H1_LOSC_{DownSampling}_V1&#45;1126259446&#45;32.hdf5</text>
</g>
<!-- FN_Sampling_rate&#45;&gt;LOAD_DATA -->
<g id="edge6" class="edge"><title>FN_Sampling_rate&#45;&gt;LOAD_DATA</title>
<path fill="none" stroke="black" d="M520.502,-1041.33C505.37,-1031.77 487.323,-1020.36 471.271,-1010.22"/>
<polygon fill="black" stroke="black" points="472.913,-1007.11 462.59,-1004.73 469.174,-1013.03 472.913,-1007.11"/>
</g>
<!-- strain_H1&#45;&gt;AMPLITUDE_SPECTRAL_DENSITY -->
<g id="edge10" class="edge"><title>strain_H1&#45;&gt;AMPLITUDE_SPECTRAL_DENSITY</title>
<path fill="none" stroke="black" d="M349.918,-892.278C319.315,-882.054 275.427,-867.392 238.087,-854.917"/>
<polygon fill="black" stroke="black" points="238.842,-851.479 228.248,-851.63 236.624,-858.118 238.842,-851.479"/>
</g>
<!-- strain_H1&#45;&gt;SPECTROGRAMS_FOR_STRAIN_DATA -->
<g id="edge25" class="edge"><title>strain_H1&#45;&gt;SPECTROGRAMS_FOR_STRAIN_DATA</title>
<path fill="none" stroke="black" d="M407.25,-887.721C416.884,-879.074 428.789,-868.388 439.694,-858.6"/>
<polygon fill="black" stroke="black" points="442.306,-860.959 447.41,-851.674 437.63,-855.749 442.306,-860.959"/>
</g>
<!-- strain_H1&#45;&gt;FILTER_DATA -->
<g id="edge37" class="edge"><title>strain_H1&#45;&gt;FILTER_DATA</title>
<path fill="none" stroke="black" d="M351.486,-887.924C337.402,-879.293 322.824,-867.349 315,-852 305.917,-834.181 302.745,-822.805 315,-807 329.849,-787.849 649.12,-715.304 792.43,-683.544"/>
<polygon fill="black" stroke="black" points="793.43,-686.908 802.438,-681.329 791.917,-680.073 793.43,-686.908"/>
</g>
<!-- strain_L1&#45;&gt;AMPLITUDE_SPECTRAL_DENSITY -->
<g id="edge11" class="edge"><title>strain_L1&#45;&gt;AMPLITUDE_SPECTRAL_DENSITY</title>
<path fill="none" stroke="black" d="M214.924,-887.721C207.599,-879.326 198.598,-869.009 190.265,-859.458"/>
<polygon fill="black" stroke="black" points="192.686,-856.908 183.474,-851.674 187.411,-861.511 192.686,-856.908"/>
</g>
<!-- strain_L1&#45;&gt;SPECTROGRAMS_FOR_STRAIN_DATA -->
<g id="edge26" class="edge"><title>strain_L1&#45;&gt;SPECTROGRAMS_FOR_STRAIN_DATA</title>
<path fill="none" stroke="black" d="M266.603,-893.685C300.075,-883.338 350.693,-867.69 393.182,-854.556"/>
<polygon fill="black" stroke="black" points="394.43,-857.833 402.951,-851.536 392.363,-851.146 394.43,-857.833"/>
</g>
<!-- strain_L1&#45;&gt;FILTER_DATA -->
<g id="edge38" class="edge"><title>strain_L1&#45;&gt;FILTER_DATA</title>
<path fill="none" stroke="black" d="M193.291,-900.331C142.299,-893.007 54.1229,-877.014 35,-852 0.989043,-807.511 -3.19831,-766.95 35,-726 60.7081,-698.44 598.777,-677.442 792.37,-670.754"/>
<polygon fill="black" stroke="black" points="792.552,-674.25 802.426,-670.409 792.312,-667.254 792.552,-674.25"/>
</g>
<!-- PSD_H1&#45;&gt;WHITENING -->
<g id="edge15" class="edge"><title>PSD_H1&#45;&gt;WHITENING</title>
<path fill="none" stroke="black" d="M165.868,-730.358C166.323,-721.373 166.894,-710.086 167.424,-699.622"/>
<polygon fill="black" stroke="black" points="170.924,-699.712 167.934,-689.547 163.933,-699.358 170.924,-699.712"/>
</g>
<!-- PSD_L1&#45;&gt;WHITENING -->
<g id="edge16" class="edge"><title>PSD_L1&#45;&gt;WHITENING</title>
<path fill="none" stroke="black" d="M97.7456,-730.358C109.174,-720.437 123.834,-707.71 136.883,-696.382"/>
<polygon fill="black" stroke="black" points="139.499,-698.746 144.756,-689.547 134.91,-693.46 139.499,-698.746"/>
</g>
<!-- strain_H1_whiten&#45;&gt;BANDPASSING -->
<g id="edge19" class="edge"><title>strain_H1_whiten&#45;&gt;BANDPASSING</title>
<path fill="none" stroke="black" d="M180.425,-568.358C183.298,-559.279 186.914,-547.851 190.255,-537.295"/>
<polygon fill="black" stroke="black" points="193.659,-538.137 193.339,-527.547 186.985,-536.025 193.659,-538.137"/>
</g>
<!-- strain_H1_whiten&#45;&gt;SPECTROGRAMS_FOR_WHITEND_DATA -->
<g id="edge29" class="edge"><title>strain_H1_whiten&#45;&gt;SPECTROGRAMS_FOR_WHITEND_DATA</title>
<path fill="none" stroke="black" d="M229.928,-568.434C235.344,-566.882 240.769,-565.377 246,-564 293.092,-551.599 345.497,-539.528 390.564,-529.674"/>
<polygon fill="black" stroke="black" points="391.335,-533.088 400.361,-527.541 389.846,-526.248 391.335,-533.088"/>
</g>
<!-- strain_L1_whiten&#45;&gt;BANDPASSING -->
<g id="edge20" class="edge"><title>strain_L1_whiten&#45;&gt;BANDPASSING</title>
<path fill="none" stroke="black" d="M290.83,-568.358C275.85,-558.156 256.513,-544.987 239.534,-533.424"/>
<polygon fill="black" stroke="black" points="241.14,-530.283 230.905,-527.547 237.2,-536.069 241.14,-530.283"/>
</g>
<!-- strain_L1_whiten&#45;&gt;SPECTROGRAMS_FOR_WHITEND_DATA -->
<g id="edge30" class="edge"><title>strain_L1_whiten&#45;&gt;SPECTROGRAMS_FOR_WHITEND_DATA</title>
<path fill="none" stroke="black" d="M356.359,-568.358C381.701,-557.595 414.819,-543.528 443.07,-531.53"/>
<polygon fill="black" stroke="black" points="444.61,-534.678 452.446,-527.547 441.873,-528.235 444.61,-534.678"/>
</g>
<!-- strain_H1_whitenbp&#45;&gt;STRAIN_WAVEFORM_FOR_WHITENED_DATA -->
<g id="edge22" class="edge"><title>strain_H1_whitenbp&#45;&gt;STRAIN_WAVEFORM_FOR_WHITENED_DATA</title>
<path fill="none" stroke="black" d="M151.522,-406.431C158.707,-404.718 165.991,-403.179 173,-402 402.96,-363.306 466.893,-389.399 702.787,-366.076"/>
<polygon fill="black" stroke="black" points="703.461,-369.526 713.059,-365.04 702.759,-362.561 703.461,-369.526"/>
</g>
<!-- strain_H1_whitenbp&#45;&gt;WAVE_FILE_GENERATOR_FOR_WHITENED_DATA -->
<g id="edge45" class="edge"><title>strain_H1_whitenbp&#45;&gt;WAVE_FILE_GENERATOR_FOR_WHITENED_DATA</title>
<path fill="none" stroke="black" d="M154.223,-406.398C160.54,-404.817 166.886,-403.318 173,-402 236.126,-388.395 306.132,-376.482 367.436,-367.08"/>
<polygon fill="black" stroke="black" points="368.232,-370.499 377.591,-365.533 367.178,-363.579 368.232,-370.499"/>
</g>
<!-- strain_H1_whitenbp&#45;&gt;SHIFT_FREQUENCY_BANDPASSED -->
<g id="edge49" class="edge"><title>strain_H1_whitenbp&#45;&gt;SHIFT_FREQUENCY_BANDPASSED</title>
<path fill="none" stroke="black" d="M114.18,-406.358C125.969,-396.343 141.125,-383.47 154.554,-372.062"/>
<polygon fill="black" stroke="black" points="156.867,-374.689 162.223,-365.547 152.335,-369.354 156.867,-374.689"/>
</g>
<!-- strain_L1_whitenbp&#45;&gt;STRAIN_WAVEFORM_FOR_WHITENED_DATA -->
<g id="edge23" class="edge"><title>strain_L1_whitenbp&#45;&gt;STRAIN_WAVEFORM_FOR_WHITENED_DATA</title>
<path fill="none" stroke="black" d="M308.67,-406.405C315.483,-404.743 322.369,-403.223 329,-402 490.441,-372.233 535.932,-384.912 702.921,-366.088"/>
<polygon fill="black" stroke="black" points="703.511,-369.543 713.047,-364.925 702.713,-362.589 703.511,-369.543"/>
</g>
<!-- strain_L1_whitenbp&#45;&gt;WAVE_FILE_GENERATOR_FOR_WHITENED_DATA -->
<g id="edge46" class="edge"><title>strain_L1_whitenbp&#45;&gt;WAVE_FILE_GENERATOR_FOR_WHITENED_DATA</title>
<path fill="none" stroke="black" d="M311.627,-406.455C351.301,-395.302 403.699,-380.571 447.447,-368.271"/>
<polygon fill="black" stroke="black" points="448.536,-371.601 457.215,-365.525 446.641,-364.862 448.536,-371.601"/>
</g>
<!-- strain_L1_whitenbp&#45;&gt;SHIFT_FREQUENCY_BANDPASSED -->
<g id="edge50" class="edge"><title>strain_L1_whitenbp&#45;&gt;SHIFT_FREQUENCY_BANDPASSED</title>
<path fill="none" stroke="black" d="M237.113,-406.358C229.303,-396.718 219.347,-384.428 210.37,-373.347"/>
<polygon fill="black" stroke="black" points="213.065,-371.114 204.051,-365.547 207.626,-375.521 213.065,-371.114"/>
</g>
<!-- COEFFICIENTS&#45;&gt;FILTER_DATA -->
<g id="edge39" class="edge"><title>COEFFICIENTS&#45;&gt;FILTER_DATA</title>
<path fill="none" stroke="black" d="M974.537,-730.358C955.297,-719.875 930.307,-706.26 908.671,-694.473"/>
<polygon fill="black" stroke="black" points="910.087,-691.258 899.631,-689.547 906.738,-697.405 910.087,-691.258"/>
</g>
<!-- strain_H1_filt&#45;&gt;STRAIN_WAVEFORM_FOR_FILTERED_DATA -->
<g id="edge42" class="edge"><title>strain_H1_filt&#45;&gt;STRAIN_WAVEFORM_FOR_FILTERED_DATA</title>
<path fill="none" stroke="black" d="M907.934,-568.358C901.831,-558.905 894.084,-546.904 887.04,-535.994"/>
<polygon fill="black" stroke="black" points="889.952,-534.05 881.588,-527.547 884.071,-537.847 889.952,-534.05"/>
</g>
<!-- strain_L1_filt&#45;&gt;STRAIN_WAVEFORM_FOR_FILTERED_DATA -->
<g id="edge43" class="edge"><title>strain_L1_filt&#45;&gt;STRAIN_WAVEFORM_FOR_FILTERED_DATA</title>
<path fill="none" stroke="black" d="M817.887,-568.358C825.697,-558.718 835.653,-546.428 844.63,-535.347"/>
<polygon fill="black" stroke="black" points="847.374,-537.521 850.949,-527.547 841.935,-533.114 847.374,-537.521"/>
</g>
<!-- strain_H1_shifted&#45;&gt;WAVE_FILE_GENERATOR_FOR_SHIFTED_DATA -->
<g id="edge52" class="edge"><title>strain_H1_shifted&#45;&gt;WAVE_FILE_GENERATOR_FOR_SHIFTED_DATA</title>
<path fill="none" stroke="black" d="M217.812,-244.358C236.654,-233.875 261.127,-220.26 282.315,-208.473"/>
<polygon fill="black" stroke="black" points="284.131,-211.468 291.168,-203.547 280.728,-205.35 284.131,-211.468"/>
</g>
<!-- strain_L1_shifted&#45;&gt;WAVE_FILE_GENERATOR_FOR_SHIFTED_DATA -->
<g id="edge53" class="edge"><title>strain_L1_shifted&#45;&gt;WAVE_FILE_GENERATOR_FOR_SHIFTED_DATA</title>
<path fill="none" stroke="black" d="M329,-244.358C329,-235.373 329,-224.086 329,-213.622"/>
<polygon fill="black" stroke="black" points="332.5,-213.547 329,-203.547 325.5,-213.547 332.5,-213.547"/>
</g>
<!-- strain_16&#45;&gt;DOWNSAMPLING -->
<g id="edge55" class="edge"><title>strain_16&#45;&gt;DOWNSAMPLING</title>
<path fill="none" stroke="black" d="M961.641,-895.715C1002.52,-885.357 1070.22,-868.2 1125.93,-854.083"/>
<polygon fill="black" stroke="black" points="1127,-857.425 1135.83,-851.575 1125.28,-850.639 1127,-857.425"/>
</g>
<!-- strain_4&#45;&gt;DOWNSAMPLING -->
<g id="edge56" class="edge"><title>strain_4&#45;&gt;DOWNSAMPLING</title>
<path fill="none" stroke="black" d="M1139.63,-887.908C1152.02,-878.943 1167.5,-867.749 1181.49,-857.632"/>
<polygon fill="black" stroke="black" points="1183.91,-860.198 1189.96,-851.502 1179.81,-854.527 1183.91,-860.198"/>
</g>
<!-- fs -->
<g id="node42" class="node"><title>fs</title>
<path fill="#fcfcfc" stroke="black" d="M652,-924C652,-924 622,-924 622,-924 616,-924 610,-918 610,-912 610,-912 610,-900 610,-900 610,-894 616,-888 622,-888 622,-888 652,-888 652,-888 658,-888 664,-894 664,-900 664,-900 664,-912 664,-912 664,-918 658,-924 652,-924"/>
<text text-anchor="middle" x="637" y="-901.8" font-family="Helvetica,sans-Serif" font-size="14.00">fs</text>
</g>
<!-- fs&#45;&gt;AMPLITUDE_SPECTRAL_DENSITY -->
<g id="edge12" class="edge"><title>fs&#45;&gt;AMPLITUDE_SPECTRAL_DENSITY</title>
<path fill="none" stroke="black" d="M609.928,-900.727C550.472,-891.342 405.145,-868.404 296.655,-851.28"/>
<polygon fill="black" stroke="black" points="297.029,-847.796 286.606,-849.694 295.938,-854.71 297.029,-847.796"/>
</g>
<!-- fs&#45;&gt;SPECTROGRAMS_FOR_STRAIN_DATA -->
<g id="edge27" class="edge"><title>fs&#45;&gt;SPECTROGRAMS_FOR_STRAIN_DATA</title>
<path fill="none" stroke="black" d="M609.96,-892.864C587.591,-882.826 555.073,-868.232 527.116,-855.685"/>
<polygon fill="black" stroke="black" points="528.388,-852.419 517.832,-851.518 525.522,-858.805 528.388,-852.419"/>
</g>
<!-- fs&#45;&gt;SPECTROGRAMS_FOR_WHITEND_DATA -->
<g id="edge31" class="edge"><title>fs&#45;&gt;SPECTROGRAMS_FOR_WHITEND_DATA</title>
<path fill="none" stroke="black" d="M636.756,-887.741C636.129,-867.955 634.009,-834.687 627,-807 600.892,-703.867 545.572,-589.891 518.132,-536.807"/>
<polygon fill="black" stroke="black" points="521.07,-534.872 513.346,-527.621 514.862,-538.106 521.07,-534.872"/>
</g>
<!-- fs&#45;&gt;FILTER_COEFS -->
<g id="edge33" class="edge"><title>fs&#45;&gt;FILTER_COEFS</title>
<path fill="none" stroke="black" d="M664.192,-895.26C692.617,-885.08 738.336,-868.704 776.688,-854.968"/>
<polygon fill="black" stroke="black" points="778.03,-858.205 786.264,-851.538 775.67,-851.615 778.03,-858.205"/>
</g>
<!-- FN_Detector_input_port -->
<g id="node43" class="node"><title>FN_Detector_input_port</title>
<ellipse fill="#ffffff" stroke="black" cx="522" cy="-1133" rx="7" ry="7"/>
</g>
<!-- FN_Detector_input_port&#45;&gt;FN_Detector -->
<g id="edge57" class="edge"><title>FN_Detector_input_port&#45;&gt;FN_Detector</title>
<path fill="none" stroke="black" d="M515.177,-1130.91C492.147,-1127.2 415.187,-1114.62 352,-1102 330.272,-1097.66 307.037,-1092.69 284.991,-1087.81"/>
<polygon fill="black" stroke="black" points="285.476,-1084.34 274.955,-1085.59 283.958,-1091.17 285.476,-1084.34"/>
</g>
<!-- FN_Sampling_rate_input_port -->
<g id="node44" class="node"><title>FN_Sampling_rate_input_port</title>
<ellipse fill="#ffffff" stroke="black" cx="554" cy="-1133" rx="7" ry="7"/>
</g>
<!-- FN_Sampling_rate_input_port&#45;&gt;FN_Sampling_rate -->
<g id="edge58" class="edge"><title>FN_Sampling_rate_input_port&#45;&gt;FN_Sampling_rate</title>
<path fill="none" stroke="black" d="M554,-1125.77C554,-1118.82 554,-1107.06 554,-1095.69"/>
<polygon fill="black" stroke="black" points="557.5,-1095.51 554,-1085.51 550.5,-1095.51 557.5,-1095.51"/>
</g>
<!-- fs_input_port -->
<g id="node45" class="node"><title>fs_input_port</title>
<ellipse fill="#ffffff" stroke="black" cx="586" cy="-1133" rx="7" ry="7"/>
</g>
<!-- fs_input_port&#45;&gt;fs -->
<g id="edge59" class="edge"><title>fs_input_port&#45;&gt;fs</title>
<path fill="none" stroke="black" d="M593.068,-1131.9C622.478,-1131.33 734.618,-1127.49 756,-1102 803.35,-1045.56 719.333,-968.36 669.659,-930.241"/>
<polygon fill="black" stroke="black" points="671.507,-927.252 661.414,-924.03 667.295,-932.843 671.507,-927.252"/>
</g>
</g>
</svg>
