<?xml version="1.0" encoding="UTF-8" standalone="no"?>
<!DOCTYPE svg PUBLIC "-//W3C//DTD SVG 1.1//EN"
 "http://www.w3.org/Graphics/SVG/1.1/DTD/svg11.dtd">
<!-- Generated by graphviz version 2.38.0 (20140413.2041)
 -->
<!-- Title: yw_data_view Pages: 1 -->
<svg width="1147pt" height="946pt"
 viewBox="0.00 0.00 1147.00 946.00" xmlns="http://www.w3.org/2000/svg" xmlns:xlink="http://www.w3.org/1999/xlink">
<g id="graph0" class="graph" transform="scale(1 1) rotate(0) translate(4 942)">
<title>yw_data_view</title>
<polygon fill="white" stroke="none" points="-4,4 -4,-942 1143,-942 1143,4 -4,4"/>
<text text-anchor="middle" x="569.5" y="-919.6" font-family="Courier,monospace" font-size="18.00">GRAVITATIONAL_WAVE_DETECTION</text>
<g id="clust1" class="cluster"><title>cluster_workflow</title>
<polygon fill="none" stroke="black" stroke-width="2" points="8,-62 8,-850 930,-850 930,-62 8,-62"/>
</g>
<g id="clust2" class="cluster"><title>cluster_workflow_inner</title>
<polygon fill="none" stroke="white" stroke-width="2" points="16,-70 16,-842 922,-842 922,-70 16,-70"/>
</g>
<g id="clust3" class="cluster"><title>cluster_inflows</title>
<polygon fill="none" stroke="white" stroke-width="2" points="515,-858 515,-904 561,-904 561,-858 515,-858"/>
</g>
<g id="clust4" class="cluster"><title>cluster_inflows_inner</title>
<polygon fill="none" stroke="white" stroke-width="2" points="523,-866 523,-896 553,-896 553,-866 523,-866"/>
</g>
<g id="clust5" class="cluster"><title>cluster_outflows</title>
<polygon fill="none" stroke="white" stroke-width="2" points="829,-8 829,-54 1131,-54 1131,-8 829,-8"/>
</g>
<g id="clust6" class="cluster"><title>cluster_outflows_inner</title>
<polygon fill="none" stroke="white" stroke-width="2" points="837,-16 837,-46 1123,-46 1123,-16 837,-16"/>
</g>
<!-- AMPLITUDE_SPECTRAL_DENSITY -->
<g id="node1" class="node"><title>AMPLITUDE_SPECTRAL_DENSITY</title>
<polygon fill="#ccffcc" stroke="black" points="472.436,-762 237.564,-762 237.564,-726 472.436,-726 472.436,-762"/>
<text text-anchor="middle" x="355" y="-739.8" font-family="Courier,monospace" font-size="14.00">AMPLITUDE_SPECTRAL_DENSITY</text>
</g>
<!-- PSD_H1 -->
<g id="node13" class="node"><title>PSD_H1</title>
<path fill="#ffffcc" stroke="black" d="M311.47,-690C311.47,-690 264.53,-690 264.53,-690 258.53,-690 252.53,-684 252.53,-678 252.53,-678 252.53,-666 252.53,-666 252.53,-660 258.53,-654 264.53,-654 264.53,-654 311.47,-654 311.47,-654 317.47,-654 323.47,-660 323.47,-666 323.47,-666 323.47,-678 323.47,-678 323.47,-684 317.47,-690 311.47,-690"/>
<text text-anchor="middle" x="288" y="-667.8" font-family="Helvetica,sans-Serif" font-size="14.00">PSD_H1</text>
</g>
<!-- AMPLITUDE_SPECTRAL_DENSITY&#45;&gt;PSD_H1 -->
<g id="edge12" class="edge"><title>AMPLITUDE_SPECTRAL_DENSITY&#45;&gt;PSD_H1</title>
<path fill="none" stroke="black" d="M338.438,-725.697C330.325,-717.22 320.412,-706.864 311.529,-697.583"/>
<polygon fill="black" stroke="black" points="313.814,-694.908 304.371,-690.104 308.757,-699.749 313.814,-694.908"/>
</g>
<!-- PSD_L1 -->
<g id="node14" class="node"><title>PSD_L1</title>
<path fill="#ffffcc" stroke="black" d="M397.145,-690C397.145,-690 352.855,-690 352.855,-690 346.855,-690 340.855,-684 340.855,-678 340.855,-678 340.855,-666 340.855,-666 340.855,-660 346.855,-654 352.855,-654 352.855,-654 397.145,-654 397.145,-654 403.145,-654 409.145,-660 409.145,-666 409.145,-666 409.145,-678 409.145,-678 409.145,-684 403.145,-690 397.145,-690"/>
<text text-anchor="middle" x="375" y="-667.8" font-family="Helvetica,sans-Serif" font-size="14.00">PSD_L1</text>
</g>
<!-- AMPLITUDE_SPECTRAL_DENSITY&#45;&gt;PSD_L1 -->
<g id="edge15" class="edge"><title>AMPLITUDE_SPECTRAL_DENSITY&#45;&gt;PSD_L1</title>
<path fill="none" stroke="black" d="M359.944,-725.697C362.172,-717.898 364.855,-708.509 367.335,-699.829"/>
<polygon fill="black" stroke="black" points="370.731,-700.681 370.113,-690.104 364,-698.758 370.731,-700.681"/>
</g>
<!-- ASDs -->
<g id="node15" class="node"><title>ASDs</title>
<path fill="#ffffcc" stroke="black" d="M560,-690C560,-690 530,-690 530,-690 524,-690 518,-684 518,-678 518,-678 518,-666 518,-666 518,-660 524,-654 530,-654 530,-654 560,-654 560,-654 566,-654 572,-660 572,-666 572,-666 572,-678 572,-678 572,-684 566,-690 560,-690"/>
<text text-anchor="middle" x="545" y="-667.8" font-family="Helvetica,sans-Serif" font-size="14.00">ASDs</text>
</g>
<!-- AMPLITUDE_SPECTRAL_DENSITY&#45;&gt;ASDs -->
<g id="edge10" class="edge"><title>AMPLITUDE_SPECTRAL_DENSITY&#45;&gt;ASDs</title>
<path fill="none" stroke="black" d="M401.479,-725.876C434.391,-713.751 477.924,-697.712 508.382,-686.491"/>
<polygon fill="black" stroke="black" points="509.607,-689.769 517.781,-683.028 507.187,-683.201 509.607,-689.769"/>
</g>
<!-- WHITENING -->
<g id="node2" class="node"><title>WHITENING</title>
<polygon fill="#ccffcc" stroke="black" points="373.613,-618 282.387,-618 282.387,-582 373.613,-582 373.613,-618"/>
<text text-anchor="middle" x="328" y="-595.8" font-family="Courier,monospace" font-size="14.00">WHITENING</text>
</g>
<!-- strain_H1_whiten -->
<g id="node16" class="node"><title>strain_H1_whiten</title>
<path fill="#ffffcc" stroke="black" d="M304.172,-546C304.172,-546 203.828,-546 203.828,-546 197.828,-546 191.828,-540 191.828,-534 191.828,-534 191.828,-522 191.828,-522 191.828,-516 197.828,-510 203.828,-510 203.828,-510 304.172,-510 304.172,-510 310.172,-510 316.172,-516 316.172,-522 316.172,-522 316.172,-534 316.172,-534 316.172,-540 310.172,-546 304.172,-546"/>
<text text-anchor="middle" x="254" y="-523.8" font-family="Helvetica,sans-Serif" font-size="14.00">strain_H1_whiten</text>
</g>
<!-- WHITENING&#45;&gt;strain_H1_whiten -->
<g id="edge17" class="edge"><title>WHITENING&#45;&gt;strain_H1_whiten</title>
<path fill="none" stroke="black" d="M309.708,-581.697C300.567,-573.05 289.36,-562.449 279.4,-553.027"/>
<polygon fill="black" stroke="black" points="281.752,-550.434 272.082,-546.104 276.941,-555.519 281.752,-550.434"/>
</g>
<!-- strain_L1_whiten -->
<g id="node17" class="node"><title>strain_L1_whiten</title>
<path fill="#ffffcc" stroke="black" d="M443.848,-546C443.848,-546 346.152,-546 346.152,-546 340.152,-546 334.152,-540 334.152,-534 334.152,-534 334.152,-522 334.152,-522 334.152,-516 340.152,-510 346.152,-510 346.152,-510 443.848,-510 443.848,-510 449.848,-510 455.848,-516 455.848,-522 455.848,-522 455.848,-534 455.848,-534 455.848,-540 449.848,-546 443.848,-546"/>
<text text-anchor="middle" x="395" y="-523.8" font-family="Helvetica,sans-Serif" font-size="14.00">strain_L1_whiten</text>
</g>
<!-- WHITENING&#45;&gt;strain_L1_whiten -->
<g id="edge1" class="edge"><title>WHITENING&#45;&gt;strain_L1_whiten</title>
<path fill="none" stroke="black" d="M344.562,-581.697C352.675,-573.22 362.588,-562.864 371.471,-553.583"/>
<polygon fill="black" stroke="black" points="374.243,-555.749 378.629,-546.104 369.186,-550.908 374.243,-555.749"/>
</g>
<!-- BANDPASSING -->
<g id="node3" class="node"><title>BANDPASSING</title>
<polygon fill="#ccffcc" stroke="black" points="293.416,-474 184.584,-474 184.584,-438 293.416,-438 293.416,-474"/>
<text text-anchor="middle" x="239" y="-451.8" font-family="Courier,monospace" font-size="14.00">BANDPASSING</text>
</g>
<!-- strain_H1_whitenbp -->
<g id="node18" class="node"><title>strain_H1_whitenbp</title>
<path fill="#ffffcc" stroke="black" d="M265.744,-402C265.744,-402 150.256,-402 150.256,-402 144.256,-402 138.256,-396 138.256,-390 138.256,-390 138.256,-378 138.256,-378 138.256,-372 144.256,-366 150.256,-366 150.256,-366 265.744,-366 265.744,-366 271.744,-366 277.744,-372 277.744,-378 277.744,-378 277.744,-390 277.744,-390 277.744,-396 271.744,-402 265.744,-402"/>
<text text-anchor="middle" x="208" y="-379.8" font-family="Helvetica,sans-Serif" font-size="14.00">strain_H1_whitenbp</text>
</g>
<!-- BANDPASSING&#45;&gt;strain_H1_whitenbp -->
<g id="edge5" class="edge"><title>BANDPASSING&#45;&gt;strain_H1_whitenbp</title>
<path fill="none" stroke="black" d="M231.337,-437.697C227.808,-429.728 223.544,-420.1 219.631,-411.264"/>
<polygon fill="black" stroke="black" points="222.824,-409.831 215.575,-402.104 216.424,-412.665 222.824,-409.831"/>
</g>
<!-- strain_L1_whitenbp -->
<g id="node19" class="node"><title>strain_L1_whitenbp</title>
<path fill="#ffffcc" stroke="black" d="M421.921,-402C421.921,-402 308.079,-402 308.079,-402 302.079,-402 296.079,-396 296.079,-390 296.079,-390 296.079,-378 296.079,-378 296.079,-372 302.079,-366 308.079,-366 308.079,-366 421.921,-366 421.921,-366 427.921,-366 433.921,-372 433.921,-378 433.921,-378 433.921,-390 433.921,-390 433.921,-396 427.921,-402 421.921,-402"/>
<text text-anchor="middle" x="365" y="-379.8" font-family="Helvetica,sans-Serif" font-size="14.00">strain_L1_whitenbp</text>
</g>
<!-- BANDPASSING&#45;&gt;strain_L1_whitenbp -->
<g id="edge9" class="edge"><title>BANDPASSING&#45;&gt;strain_L1_whitenbp</title>
<path fill="none" stroke="black" d="M269.823,-437.876C286.45,-428.639 307.165,-417.131 325.019,-407.212"/>
<polygon fill="black" stroke="black" points="327.017,-410.106 334.058,-402.19 323.617,-403.987 327.017,-410.106"/>
</g>
<!-- STRAIN_WAVEFORM_FOR_WHITENED_DATA -->
<g id="node4" class="node"><title>STRAIN_WAVEFORM_FOR_WHITENED_DATA</title>
<polygon fill="#ccffcc" stroke="black" points="569.745,-330 276.255,-330 276.255,-294 569.745,-294 569.745,-330"/>
<text text-anchor="middle" x="423" y="-307.8" font-family="Courier,monospace" font-size="14.00">STRAIN_WAVEFORM_FOR_WHITENED_DATA</text>
</g>
<!-- WHITENED_strain_data -->
<g id="node20" class="node"><title>WHITENED_strain_data</title>
<path fill="#ffffcc" stroke="black" d="M585.717,-258C585.717,-258 442.283,-258 442.283,-258 436.283,-258 430.283,-252 430.283,-246 430.283,-246 430.283,-234 430.283,-234 430.283,-228 436.283,-222 442.283,-222 442.283,-222 585.717,-222 585.717,-222 591.717,-222 597.717,-228 597.717,-234 597.717,-234 597.717,-246 597.717,-246 597.717,-252 591.717,-258 585.717,-258"/>
<text text-anchor="middle" x="514" y="-235.8" font-family="Helvetica,sans-Serif" font-size="14.00">WHITENED_strain_data</text>
</g>
<!-- STRAIN_WAVEFORM_FOR_WHITENED_DATA&#45;&gt;WHITENED_strain_data -->
<g id="edge19" class="edge"><title>STRAIN_WAVEFORM_FOR_WHITENED_DATA&#45;&gt;WHITENED_strain_data</title>
<path fill="none" stroke="black" d="M445.494,-293.697C456.955,-284.881 471.058,-274.032 483.484,-264.474"/>
<polygon fill="black" stroke="black" points="485.972,-266.976 491.764,-258.104 481.704,-261.427 485.972,-266.976"/>
</g>
<!-- SPECTROGRAMS_FOR_STRAIN_DATA -->
<g id="node5" class="node"><title>SPECTROGRAMS_FOR_STRAIN_DATA</title>
<polygon fill="#ccffcc" stroke="black" points="904.738,-762 653.262,-762 653.262,-726 904.738,-726 904.738,-762"/>
<text text-anchor="middle" x="779" y="-739.8" font-family="Courier,monospace" font-size="14.00">SPECTROGRAMS_FOR_STRAIN_DATA</text>
</g>
<!-- spectrogram -->
<g id="node21" class="node"><title>spectrogram</title>
<path fill="#ffffcc" stroke="black" d="M862.807,-690C862.807,-690 793.193,-690 793.193,-690 787.193,-690 781.193,-684 781.193,-678 781.193,-678 781.193,-666 781.193,-666 781.193,-660 787.193,-654 793.193,-654 793.193,-654 862.807,-654 862.807,-654 868.807,-654 874.807,-660 874.807,-666 874.807,-666 874.807,-678 874.807,-678 874.807,-684 868.807,-690 862.807,-690"/>
<text text-anchor="middle" x="828" y="-667.8" font-family="Helvetica,sans-Serif" font-size="14.00">spectrogram</text>
</g>
<!-- SPECTROGRAMS_FOR_STRAIN_DATA&#45;&gt;spectrogram -->
<g id="edge11" class="edge"><title>SPECTROGRAMS_FOR_STRAIN_DATA&#45;&gt;spectrogram</title>
<path fill="none" stroke="black" d="M791.112,-725.697C796.868,-717.474 803.862,-707.483 810.206,-698.421"/>
<polygon fill="black" stroke="black" points="813.16,-700.304 816.027,-690.104 807.425,-696.29 813.16,-700.304"/>
</g>
<!-- SPECTROGRAMS_FOR_WHITEND_DATA -->
<g id="node6" class="node"><title>SPECTROGRAMS_FOR_WHITEND_DATA</title>
<polygon fill="#ccffcc" stroke="black" points="570.64,-474 311.36,-474 311.36,-438 570.64,-438 570.64,-474"/>
<text text-anchor="middle" x="441" y="-451.8" font-family="Courier,monospace" font-size="14.00">SPECTROGRAMS_FOR_WHITEND_DATA</text>
</g>
<!-- spectrogram_whitened -->
<g id="node22" class="node"><title>spectrogram_whitened</title>
<path fill="#ffffcc" stroke="black" d="M597.634,-402C597.634,-402 464.366,-402 464.366,-402 458.366,-402 452.366,-396 452.366,-390 452.366,-390 452.366,-378 452.366,-378 452.366,-372 458.366,-366 464.366,-366 464.366,-366 597.634,-366 597.634,-366 603.634,-366 609.634,-372 609.634,-378 609.634,-378 609.634,-390 609.634,-390 609.634,-396 603.634,-402 597.634,-402"/>
<text text-anchor="middle" x="531" y="-379.8" font-family="Helvetica,sans-Serif" font-size="14.00">spectrogram_whitened</text>
</g>
<!-- SPECTROGRAMS_FOR_WHITEND_DATA&#45;&gt;spectrogram_whitened -->
<g id="edge7" class="edge"><title>SPECTROGRAMS_FOR_WHITEND_DATA&#45;&gt;spectrogram_whitened</title>
<path fill="none" stroke="black" d="M463.247,-437.697C474.582,-428.881 488.53,-418.032 500.819,-408.474"/>
<polygon fill="black" stroke="black" points="503.264,-411.007 509.009,-402.104 498.966,-405.481 503.264,-411.007"/>
</g>
<!-- FILTER_COEFS -->
<g id="node7" class="node"><title>FILTER_COEFS</title>
<polygon fill="#ccffcc" stroke="black" points="631.317,-762 514.683,-762 514.683,-726 631.317,-726 631.317,-762"/>
<text text-anchor="middle" x="573" y="-739.8" font-family="Courier,monospace" font-size="14.00">FILTER_COEFS</text>
</g>
<!-- COEFFICIENTS -->
<g id="node23" class="node"><title>COEFFICIENTS</title>
<path fill="#ffffcc" stroke="black" d="M712.169,-690C712.169,-690 617.831,-690 617.831,-690 611.831,-690 605.831,-684 605.831,-678 605.831,-678 605.831,-666 605.831,-666 605.831,-660 611.831,-654 617.831,-654 617.831,-654 712.169,-654 712.169,-654 718.169,-654 724.169,-660 724.169,-666 724.169,-666 724.169,-678 724.169,-678 724.169,-684 718.169,-690 712.169,-690"/>
<text text-anchor="middle" x="665" y="-667.8" font-family="Helvetica,sans-Serif" font-size="14.00">COEFFICIENTS</text>
</g>
<!-- FILTER_COEFS&#45;&gt;COEFFICIENTS -->
<g id="edge13" class="edge"><title>FILTER_COEFS&#45;&gt;COEFFICIENTS</title>
<path fill="none" stroke="black" d="M595.742,-725.697C607.44,-716.796 621.861,-705.823 634.51,-696.199"/>
<polygon fill="black" stroke="black" points="636.681,-698.945 642.52,-690.104 632.442,-693.374 636.681,-698.945"/>
</g>
<!-- FILTER_DATA -->
<g id="node8" class="node"><title>FILTER_DATA</title>
<polygon fill="#ccffcc" stroke="black" points="723.416,-618 614.584,-618 614.584,-582 723.416,-582 723.416,-618"/>
<text text-anchor="middle" x="669" y="-595.8" font-family="Courier,monospace" font-size="14.00">FILTER_DATA</text>
</g>
<!-- strain_H1_filt -->
<g id="node24" class="node"><title>strain_H1_filt</title>
<path fill="#ffffcc" stroke="black" d="M595.704,-546C595.704,-546 522.296,-546 522.296,-546 516.296,-546 510.296,-540 510.296,-534 510.296,-534 510.296,-522 510.296,-522 510.296,-516 516.296,-510 522.296,-510 522.296,-510 595.704,-510 595.704,-510 601.704,-510 607.704,-516 607.704,-522 607.704,-522 607.704,-534 607.704,-534 607.704,-540 601.704,-546 595.704,-546"/>
<text text-anchor="middle" x="559" y="-523.8" font-family="Helvetica,sans-Serif" font-size="14.00">strain_H1_filt</text>
</g>
<!-- FILTER_DATA&#45;&gt;strain_H1_filt -->
<g id="edge16" class="edge"><title>FILTER_DATA&#45;&gt;strain_H1_filt</title>
<path fill="none" stroke="black" d="M642.091,-581.876C627.842,-572.808 610.154,-561.552 594.764,-551.759"/>
<polygon fill="black" stroke="black" points="596.328,-548.606 586.012,-546.19 592.57,-554.511 596.328,-548.606"/>
</g>
<!-- strain_L1_filt -->
<g id="node25" class="node"><title>strain_L1_filt</title>
<path fill="#ffffcc" stroke="black" d="M709.88,-546C709.88,-546 638.12,-546 638.12,-546 632.12,-546 626.12,-540 626.12,-534 626.12,-534 626.12,-522 626.12,-522 626.12,-516 632.12,-510 638.12,-510 638.12,-510 709.88,-510 709.88,-510 715.88,-510 721.88,-516 721.88,-522 721.88,-522 721.88,-534 721.88,-534 721.88,-540 715.88,-546 709.88,-546"/>
<text text-anchor="middle" x="674" y="-523.8" font-family="Helvetica,sans-Serif" font-size="14.00">strain_L1_filt</text>
</g>
<!-- FILTER_DATA&#45;&gt;strain_L1_filt -->
<g id="edge20" class="edge"><title>FILTER_DATA&#45;&gt;strain_L1_filt</title>
<path fill="none" stroke="black" d="M670.236,-581.697C670.787,-573.983 671.449,-564.712 672.063,-556.112"/>
<polygon fill="black" stroke="black" points="675.557,-556.328 672.778,-546.104 668.575,-555.83 675.557,-556.328"/>
</g>
<!-- filtered_white_noise_data -->
<g id="node26" class="node"><title>filtered_white_noise_data</title>
<path fill="#ffffcc" stroke="black" d="M902.278,-546C902.278,-546 751.722,-546 751.722,-546 745.722,-546 739.722,-540 739.722,-534 739.722,-534 739.722,-522 739.722,-522 739.722,-516 745.722,-510 751.722,-510 751.722,-510 902.278,-510 902.278,-510 908.278,-510 914.278,-516 914.278,-522 914.278,-522 914.278,-534 914.278,-534 914.278,-540 908.278,-546 902.278,-546"/>
<text text-anchor="middle" x="827" y="-523.8" font-family="Helvetica,sans-Serif" font-size="14.00">filtered_white_noise_data</text>
</g>
<!-- FILTER_DATA&#45;&gt;filtered_white_noise_data -->
<g id="edge14" class="edge"><title>FILTER_DATA&#45;&gt;filtered_white_noise_data</title>
<path fill="none" stroke="black" d="M707.651,-581.876C729.251,-572.307 756.351,-560.3 779.266,-550.148"/>
<polygon fill="black" stroke="black" points="780.749,-553.319 788.474,-546.068 777.914,-546.919 780.749,-553.319"/>
</g>
<!-- STRAIN_WAVEFORM_FOR_FILTERED_DATA -->
<g id="node9" class="node"><title>STRAIN_WAVEFORM_FOR_FILTERED_DATA</title>
<polygon fill="#ccffcc" stroke="black" points="881.745,-474 588.255,-474 588.255,-438 881.745,-438 881.745,-474"/>
<text text-anchor="middle" x="735" y="-451.8" font-family="Courier,monospace" font-size="14.00">STRAIN_WAVEFORM_FOR_FILTERED_DATA</text>
</g>
<!-- H1_strain_filtered -->
<g id="node27" class="node"><title>H1_strain_filtered</title>
<path fill="#ffffcc" stroke="black" d="M741.724,-402C741.724,-402 640.276,-402 640.276,-402 634.276,-402 628.276,-396 628.276,-390 628.276,-390 628.276,-378 628.276,-378 628.276,-372 634.276,-366 640.276,-366 640.276,-366 741.724,-366 741.724,-366 747.724,-366 753.724,-372 753.724,-378 753.724,-378 753.724,-390 753.724,-390 753.724,-396 747.724,-402 741.724,-402"/>
<text text-anchor="middle" x="691" y="-379.8" font-family="Helvetica,sans-Serif" font-size="14.00">H1_strain_filtered</text>
</g>
<!-- STRAIN_WAVEFORM_FOR_FILTERED_DATA&#45;&gt;H1_strain_filtered -->
<g id="edge3" class="edge"><title>STRAIN_WAVEFORM_FOR_FILTERED_DATA&#45;&gt;H1_strain_filtered</title>
<path fill="none" stroke="black" d="M724.124,-437.697C719.008,-429.559 712.805,-419.689 707.155,-410.701"/>
<polygon fill="black" stroke="black" points="710.036,-408.708 701.751,-402.104 704.11,-412.433 710.036,-408.708"/>
</g>
<!-- H1_strain_unfiltered -->
<g id="node28" class="node"><title>H1_strain_unfiltered</title>
<path fill="#ffffcc" stroke="black" d="M901.796,-402C901.796,-402 784.204,-402 784.204,-402 778.204,-402 772.204,-396 772.204,-390 772.204,-390 772.204,-378 772.204,-378 772.204,-372 778.204,-366 784.204,-366 784.204,-366 901.796,-366 901.796,-366 907.796,-366 913.796,-372 913.796,-378 913.796,-378 913.796,-390 913.796,-390 913.796,-396 907.796,-402 901.796,-402"/>
<text text-anchor="middle" x="843" y="-379.8" font-family="Helvetica,sans-Serif" font-size="14.00">H1_strain_unfiltered</text>
</g>
<!-- STRAIN_WAVEFORM_FOR_FILTERED_DATA&#45;&gt;H1_strain_unfiltered -->
<g id="edge6" class="edge"><title>STRAIN_WAVEFORM_FOR_FILTERED_DATA&#45;&gt;H1_strain_unfiltered</title>
<path fill="none" stroke="black" d="M761.42,-437.876C775.41,-428.808 792.776,-417.552 807.886,-407.759"/>
<polygon fill="black" stroke="black" points="809.991,-410.566 816.479,-402.19 806.183,-404.692 809.991,-410.566"/>
</g>
<!-- WAVE_FILE_GENERATOR_FOR_WHITENED_DATA -->
<g id="node10" class="node"><title>WAVE_FILE_GENERATOR_FOR_WHITENED_DATA</title>
<polygon fill="#ccffcc" stroke="black" points="914.351,-330 587.649,-330 587.649,-294 914.351,-294 914.351,-330"/>
<text text-anchor="middle" x="751" y="-307.8" font-family="Courier,monospace" font-size="14.00">WAVE_FILE_GENERATOR_FOR_WHITENED_DATA</text>
</g>
<!-- whitened_bandpass_wavefile -->
<g id="node29" class="node"><title>whitened_bandpass_wavefile</title>
<path fill="#ffffcc" stroke="black" d="M870.409,-258C870.409,-258 695.591,-258 695.591,-258 689.591,-258 683.591,-252 683.591,-246 683.591,-246 683.591,-234 683.591,-234 683.591,-228 689.591,-222 695.591,-222 695.591,-222 870.409,-222 870.409,-222 876.409,-222 882.409,-228 882.409,-234 882.409,-234 882.409,-246 882.409,-246 882.409,-252 876.409,-258 870.409,-258"/>
<text text-anchor="middle" x="783" y="-235.8" font-family="Helvetica,sans-Serif" font-size="14.00">whitened_bandpass_wavefile</text>
</g>
<!-- WAVE_FILE_GENERATOR_FOR_WHITENED_DATA&#45;&gt;whitened_bandpass_wavefile -->
<g id="edge2" class="edge"><title>WAVE_FILE_GENERATOR_FOR_WHITENED_DATA&#45;&gt;whitened_bandpass_wavefile</title>
<path fill="none" stroke="black" d="M758.91,-293.697C762.553,-285.728 766.954,-276.1 770.994,-267.264"/>
<polygon fill="black" stroke="black" points="774.206,-268.654 775.181,-258.104 767.84,-265.744 774.206,-268.654"/>
</g>
<!-- SHIFT_FREQUENCY_BANDPASSED -->
<g id="node11" class="node"><title>SHIFT_FREQUENCY_BANDPASSED</title>
<polygon fill="#ccffcc" stroke="black" points="258.436,-330 23.564,-330 23.564,-294 258.436,-294 258.436,-330"/>
<text text-anchor="middle" x="141" y="-307.8" font-family="Courier,monospace" font-size="14.00">SHIFT_FREQUENCY_BANDPASSED</text>
</g>
<!-- strain_H1_shifted -->
<g id="node30" class="node"><title>strain_H1_shifted</title>
<path fill="#ffffcc" stroke="black" d="M191.451,-258C191.451,-258 90.5488,-258 90.5488,-258 84.5488,-258 78.5488,-252 78.5488,-246 78.5488,-246 78.5488,-234 78.5488,-234 78.5488,-228 84.5488,-222 90.5488,-222 90.5488,-222 191.451,-222 191.451,-222 197.451,-222 203.451,-228 203.451,-234 203.451,-234 203.451,-246 203.451,-246 203.451,-252 197.451,-258 191.451,-258"/>
<text text-anchor="middle" x="141" y="-235.8" font-family="Helvetica,sans-Serif" font-size="14.00">strain_H1_shifted</text>
</g>
<!-- SHIFT_FREQUENCY_BANDPASSED&#45;&gt;strain_H1_shifted -->
<g id="edge4" class="edge"><title>SHIFT_FREQUENCY_BANDPASSED&#45;&gt;strain_H1_shifted</title>
<path fill="none" stroke="black" d="M141,-293.697C141,-285.983 141,-276.712 141,-268.112"/>
<polygon fill="black" stroke="black" points="144.5,-268.104 141,-258.104 137.5,-268.104 144.5,-268.104"/>
</g>
<!-- strain_L1_shifted -->
<g id="node31" class="node"><title>strain_L1_shifted</title>
<path fill="#ffffcc" stroke="black" d="M332.128,-258C332.128,-258 233.872,-258 233.872,-258 227.872,-258 221.872,-252 221.872,-246 221.872,-246 221.872,-234 221.872,-234 221.872,-228 227.872,-222 233.872,-222 233.872,-222 332.128,-222 332.128,-222 338.128,-222 344.128,-228 344.128,-234 344.128,-234 344.128,-246 344.128,-246 344.128,-252 338.128,-258 332.128,-258"/>
<text text-anchor="middle" x="283" y="-235.8" font-family="Helvetica,sans-Serif" font-size="14.00">strain_L1_shifted</text>
</g>
<!-- SHIFT_FREQUENCY_BANDPASSED&#45;&gt;strain_L1_shifted -->
<g id="edge8" class="edge"><title>SHIFT_FREQUENCY_BANDPASSED&#45;&gt;strain_L1_shifted</title>
<path fill="none" stroke="black" d="M175.737,-293.876C194.819,-284.469 218.679,-272.708 239.047,-262.667"/>
<polygon fill="black" stroke="black" points="240.708,-265.751 248.129,-258.19 237.612,-259.472 240.708,-265.751"/>
</g>
<!-- WAVE_FILE_GENERATOR_FOR_SHIFTED_DATA -->
<g id="node12" class="node"><title>WAVE_FILE_GENERATOR_FOR_SHIFTED_DATA</title>
<polygon fill="#ccffcc" stroke="black" points="442.45,-186 123.55,-186 123.55,-150 442.45,-150 442.45,-186"/>
<text text-anchor="middle" x="283" y="-163.8" font-family="Courier,monospace" font-size="14.00">WAVE_FILE_GENERATOR_FOR_SHIFTED_DATA</text>
</g>
<!-- shifted_wavefile -->
<g id="node32" class="node"><title>shifted_wavefile</title>
<path fill="#ffffcc" stroke="black" d="M484.614,-114C484.614,-114 393.386,-114 393.386,-114 387.386,-114 381.386,-108 381.386,-102 381.386,-102 381.386,-90 381.386,-90 381.386,-84 387.386,-78 393.386,-78 393.386,-78 484.614,-78 484.614,-78 490.614,-78 496.614,-84 496.614,-90 496.614,-90 496.614,-102 496.614,-102 496.614,-108 490.614,-114 484.614,-114"/>
<text text-anchor="middle" x="439" y="-91.8" font-family="Helvetica,sans-Serif" font-size="14.00">shifted_wavefile</text>
</g>
<!-- WAVE_FILE_GENERATOR_FOR_SHIFTED_DATA&#45;&gt;shifted_wavefile -->
<g id="edge18" class="edge"><title>WAVE_FILE_GENERATOR_FOR_SHIFTED_DATA&#45;&gt;shifted_wavefile</title>
<path fill="none" stroke="black" d="M321.162,-149.876C342.393,-140.349 369.008,-128.407 391.569,-118.283"/>
<polygon fill="black" stroke="black" points="393.271,-121.356 400.962,-114.068 390.406,-114.969 393.271,-121.356"/>
</g>
<!-- PSD_H1&#45;&gt;WHITENING -->
<g id="edge22" class="edge"><title>PSD_H1&#45;&gt;WHITENING</title>
<path fill="none" stroke="black" d="M297.888,-653.697C302.489,-645.644 308.06,-635.894 313.153,-626.982"/>
<polygon fill="black" stroke="black" points="316.304,-628.523 318.226,-618.104 310.226,-625.05 316.304,-628.523"/>
</g>
<!-- PSD_L1&#45;&gt;WHITENING -->
<g id="edge23" class="edge"><title>PSD_L1&#45;&gt;WHITENING</title>
<path fill="none" stroke="black" d="M363.382,-653.697C357.861,-645.474 351.153,-635.483 345.068,-626.421"/>
<polygon fill="black" stroke="black" points="347.965,-624.456 339.484,-618.104 342.153,-628.358 347.965,-624.456"/>
</g>
<!-- ASDs_outflow -->
<g id="node35" class="node"><title>ASDs_outflow</title>
<ellipse fill="none" stroke="black" cx="1076" cy="-31" rx="7" ry="7"/>
</g>
<!-- ASDs&#45;&gt;ASDs_outflow -->
<g id="edge43" class="edge"><title>ASDs&#45;&gt;ASDs_outflow</title>
<path fill="none" stroke="black" d="M572.147,-661.73C580.119,-659.115 588.879,-656.346 597,-654 706.412,-622.398 1094,-642.884 1094,-529 1094,-529 1094,-529 1094,-167 1094,-123.522 1084.71,-72.853 1079.48,-47.7546"/>
<polygon fill="black" stroke="black" points="1082.88,-46.9219 1077.35,-37.8841 1076.04,-48.3972 1082.88,-46.9219"/>
</g>
<!-- strain_H1_whiten&#45;&gt;BANDPASSING -->
<g id="edge24" class="edge"><title>strain_H1_whiten&#45;&gt;BANDPASSING</title>
<path fill="none" stroke="black" d="M250.292,-509.697C248.639,-501.983 246.653,-492.712 244.81,-484.112"/>
<polygon fill="black" stroke="black" points="248.183,-483.149 242.665,-474.104 241.338,-484.616 248.183,-483.149"/>
</g>
<!-- strain_H1_whiten&#45;&gt;SPECTROGRAMS_FOR_WHITEND_DATA -->
<g id="edge30" class="edge"><title>strain_H1_whiten&#45;&gt;SPECTROGRAMS_FOR_WHITEND_DATA</title>
<path fill="none" stroke="black" d="M299.745,-509.876C325.764,-500.137 358.526,-487.872 385.947,-477.608"/>
<polygon fill="black" stroke="black" points="387.265,-480.852 395.403,-474.068 384.811,-474.296 387.265,-480.852"/>
</g>
<!-- strain_L1_whiten&#45;&gt;BANDPASSING -->
<g id="edge25" class="edge"><title>strain_L1_whiten&#45;&gt;BANDPASSING</title>
<path fill="none" stroke="black" d="M356.838,-509.876C335.607,-500.349 308.992,-488.407 286.431,-478.283"/>
<polygon fill="black" stroke="black" points="287.594,-474.969 277.038,-474.068 284.729,-481.356 287.594,-474.969"/>
</g>
<!-- strain_L1_whiten&#45;&gt;SPECTROGRAMS_FOR_WHITEND_DATA -->
<g id="edge31" class="edge"><title>strain_L1_whiten&#45;&gt;SPECTROGRAMS_FOR_WHITEND_DATA</title>
<path fill="none" stroke="black" d="M406.371,-509.697C411.718,-501.559 418.204,-491.689 424.111,-482.701"/>
<polygon fill="black" stroke="black" points="427.193,-484.384 429.76,-474.104 421.343,-480.539 427.193,-484.384"/>
</g>
<!-- strain_H1_whitenbp&#45;&gt;STRAIN_WAVEFORM_FOR_WHITENED_DATA -->
<g id="edge26" class="edge"><title>strain_H1_whitenbp&#45;&gt;STRAIN_WAVEFORM_FOR_WHITENED_DATA</title>
<path fill="none" stroke="black" d="M260.32,-365.966C290.622,-356.1 328.948,-343.622 360.788,-333.255"/>
<polygon fill="black" stroke="black" points="362.02,-336.535 370.445,-330.111 359.853,-329.879 362.02,-336.535"/>
</g>
<!-- strain_H1_whitenbp&#45;&gt;WAVE_FILE_GENERATOR_FOR_WHITENED_DATA -->
<g id="edge36" class="edge"><title>strain_H1_whitenbp&#45;&gt;WAVE_FILE_GENERATOR_FOR_WHITENED_DATA</title>
<path fill="none" stroke="black" d="M278.143,-367.532C281.131,-366.991 284.093,-366.478 287,-366 341.552,-357.037 469.648,-342.584 577.457,-331.033"/>
<polygon fill="black" stroke="black" points="577.92,-334.504 587.492,-329.96 577.176,-327.543 577.92,-334.504"/>
</g>
<!-- strain_H1_whitenbp&#45;&gt;SHIFT_FREQUENCY_BANDPASSED -->
<g id="edge38" class="edge"><title>strain_H1_whitenbp&#45;&gt;SHIFT_FREQUENCY_BANDPASSED</title>
<path fill="none" stroke="black" d="M191.438,-365.697C183.325,-357.22 173.412,-346.864 164.529,-337.583"/>
<polygon fill="black" stroke="black" points="166.814,-334.908 157.371,-330.104 161.757,-339.749 166.814,-334.908"/>
</g>
<!-- strain_L1_whitenbp&#45;&gt;STRAIN_WAVEFORM_FOR_WHITENED_DATA -->
<g id="edge27" class="edge"><title>strain_L1_whitenbp&#45;&gt;STRAIN_WAVEFORM_FOR_WHITENED_DATA</title>
<path fill="none" stroke="black" d="M379.337,-365.697C386.291,-357.305 394.77,-347.07 402.401,-337.861"/>
<polygon fill="black" stroke="black" points="405.143,-340.038 408.828,-330.104 399.753,-335.571 405.143,-340.038"/>
</g>
<!-- strain_L1_whitenbp&#45;&gt;WAVE_FILE_GENERATOR_FOR_WHITENED_DATA -->
<g id="edge37" class="edge"><title>strain_L1_whitenbp&#45;&gt;WAVE_FILE_GENERATOR_FOR_WHITENED_DATA</title>
<path fill="none" stroke="black" d="M433.869,-367.817C436.953,-367.192 440.007,-366.583 443,-366 506.433,-353.636 577.514,-341.304 635.394,-331.651"/>
<polygon fill="black" stroke="black" points="636.012,-335.096 645.303,-330.003 634.864,-328.191 636.012,-335.096"/>
</g>
<!-- strain_L1_whitenbp&#45;&gt;SHIFT_FREQUENCY_BANDPASSED -->
<g id="edge39" class="edge"><title>strain_L1_whitenbp&#45;&gt;SHIFT_FREQUENCY_BANDPASSED</title>
<path fill="none" stroke="black" d="M310.49,-365.966C278.784,-356.057 238.645,-343.514 205.387,-333.121"/>
<polygon fill="black" stroke="black" points="206.343,-329.753 195.755,-330.111 204.255,-336.434 206.343,-329.753"/>
</g>
<!-- WHITENED_strain_data_outflow -->
<g id="node36" class="node"><title>WHITENED_strain_data_outflow</title>
<ellipse fill="none" stroke="black" cx="884" cy="-31" rx="7" ry="7"/>
</g>
<!-- WHITENED_strain_data&#45;&gt;WHITENED_strain_data_outflow -->
<g id="edge44" class="edge"><title>WHITENED_strain_data&#45;&gt;WHITENED_strain_data_outflow</title>
<path fill="none" stroke="black" d="M562.577,-221.891C634.971,-194.679 772.83,-136.097 868,-54 870.633,-51.7288 873.075,-48.9443 875.218,-46.1296"/>
<polygon fill="black" stroke="black" points="878.259,-47.8776 880.915,-37.6209 872.443,-43.983 878.259,-47.8776"/>
</g>
<!-- spectrogram_outflow -->
<g id="node37" class="node"><title>spectrogram_outflow</title>
<ellipse fill="none" stroke="black" cx="1108" cy="-31" rx="7" ry="7"/>
</g>
<!-- spectrogram&#45;&gt;spectrogram_outflow -->
<g id="edge45" class="edge"><title>spectrogram&#45;&gt;spectrogram_outflow</title>
<path fill="none" stroke="black" d="M874.928,-668.056C945.629,-662.667 1074.75,-648.807 1108,-618 1138.05,-590.157 1132,-569.969 1132,-529 1132,-529 1132,-529 1132,-167 1132,-123.228 1119.62,-72.6872 1112.64,-47.6845"/>
<polygon fill="black" stroke="black" points="1115.94,-46.4923 1109.8,-37.8553 1109.21,-48.4337 1115.94,-46.4923"/>
</g>
<!-- spectrogram_whitened_outflow -->
<g id="node38" class="node"><title>spectrogram_whitened_outflow</title>
<ellipse fill="none" stroke="black" cx="948" cy="-31" rx="7" ry="7"/>
</g>
<!-- spectrogram_whitened&#45;&gt;spectrogram_whitened_outflow -->
<g id="edge46" class="edge"><title>spectrogram_whitened&#45;&gt;spectrogram_whitened_outflow</title>
<path fill="none" stroke="black" d="M610.106,-367.436C613.106,-366.935 616.079,-366.455 619,-366 686.219,-355.541 872.726,-375.829 923,-330 952.891,-302.752 942,-281.447 942,-241 942,-241 942,-241 942,-167 942,-124.063 945.067,-73.5209 946.815,-48.192"/>
<polygon fill="black" stroke="black" points="950.308,-48.4092 947.529,-38.1854 943.326,-47.9109 950.308,-48.4092"/>
</g>
<!-- COEFFICIENTS&#45;&gt;FILTER_DATA -->
<g id="edge33" class="edge"><title>COEFFICIENTS&#45;&gt;FILTER_DATA</title>
<path fill="none" stroke="black" d="M665.989,-653.697C666.43,-645.983 666.959,-636.712 667.451,-628.112"/>
<polygon fill="black" stroke="black" points="670.946,-628.288 668.023,-618.104 663.958,-627.888 670.946,-628.288"/>
</g>
<!-- strain_H1_filt&#45;&gt;STRAIN_WAVEFORM_FOR_FILTERED_DATA -->
<g id="edge34" class="edge"><title>strain_H1_filt&#45;&gt;STRAIN_WAVEFORM_FOR_FILTERED_DATA</title>
<path fill="none" stroke="black" d="M602.054,-509.876C626.329,-500.222 656.84,-488.087 682.508,-477.878"/>
<polygon fill="black" stroke="black" points="684.087,-481.016 692.085,-474.068 681.5,-474.512 684.087,-481.016"/>
</g>
<!-- strain_L1_filt&#45;&gt;STRAIN_WAVEFORM_FOR_FILTERED_DATA -->
<g id="edge35" class="edge"><title>strain_L1_filt&#45;&gt;STRAIN_WAVEFORM_FOR_FILTERED_DATA</title>
<path fill="none" stroke="black" d="M689.079,-509.697C696.392,-501.305 705.31,-491.07 713.335,-481.861"/>
<polygon fill="black" stroke="black" points="716.164,-483.943 720.095,-474.104 710.886,-479.344 716.164,-483.943"/>
</g>
<!-- filtered_white_noise_data_outflow -->
<g id="node39" class="node"><title>filtered_white_noise_data_outflow</title>
<ellipse fill="none" stroke="black" cx="1044" cy="-31" rx="7" ry="7"/>
</g>
<!-- filtered_white_noise_data&#45;&gt;filtered_white_noise_data_outflow -->
<g id="edge47" class="edge"><title>filtered_white_noise_data&#45;&gt;filtered_white_noise_data_outflow</title>
<path fill="none" stroke="black" d="M913.249,-509.939C978.163,-491.494 1056,-454.819 1056,-385 1056,-385 1056,-385 1056,-167 1056,-123.937 1049.87,-73.4487 1046.37,-48.1611"/>
<polygon fill="black" stroke="black" points="1049.82,-47.5763 1044.94,-38.1724 1042.89,-48.5672 1049.82,-47.5763"/>
</g>
<!-- H1_strain_filtered_outflow -->
<g id="node40" class="node"><title>H1_strain_filtered_outflow</title>
<ellipse fill="none" stroke="black" cx="980" cy="-31" rx="7" ry="7"/>
</g>
<!-- H1_strain_filtered&#45;&gt;H1_strain_filtered_outflow -->
<g id="edge48" class="edge"><title>H1_strain_filtered&#45;&gt;H1_strain_filtered_outflow</title>
<path fill="none" stroke="black" d="M753.789,-367.99C756.901,-367.304 759.984,-366.637 763,-366 848.374,-347.969 891.912,-389.216 956,-330 986.09,-302.197 980,-281.969 980,-241 980,-241 980,-241 980,-167 980,-124.106 980,-73.5451 980,-48.2023"/>
<polygon fill="black" stroke="black" points="983.5,-48.1897 980,-38.1898 976.5,-48.1898 983.5,-48.1897"/>
</g>
<!-- H1_strain_unfiltered_outflow -->
<g id="node41" class="node"><title>H1_strain_unfiltered_outflow</title>
<ellipse fill="none" stroke="black" cx="1012" cy="-31" rx="7" ry="7"/>
</g>
<!-- H1_strain_unfiltered&#45;&gt;H1_strain_unfiltered_outflow -->
<g id="edge49" class="edge"><title>H1_strain_unfiltered&#45;&gt;H1_strain_unfiltered_outflow</title>
<path fill="none" stroke="black" d="M914.03,-372.801C942.402,-365.332 973.206,-352.397 994,-330 1021.88,-299.977 1018,-281.969 1018,-241 1018,-241 1018,-241 1018,-167 1018,-124.063 1014.93,-73.5209 1013.18,-48.192"/>
<polygon fill="black" stroke="black" points="1016.67,-47.9109 1012.47,-38.1854 1009.69,-48.4092 1016.67,-47.9109"/>
</g>
<!-- whitened_bandpass_wavefile_outflow -->
<g id="node42" class="node"><title>whitened_bandpass_wavefile_outflow</title>
<ellipse fill="none" stroke="black" cx="916" cy="-31" rx="7" ry="7"/>
</g>
<!-- whitened_bandpass_wavefile&#45;&gt;whitened_bandpass_wavefile_outflow -->
<g id="edge50" class="edge"><title>whitened_bandpass_wavefile&#45;&gt;whitened_bandpass_wavefile_outflow</title>
<path fill="none" stroke="black" d="M794.111,-221.707C819.905,-181.562 883.44,-82.6766 907.01,-45.9925"/>
<polygon fill="black" stroke="black" points="910.072,-47.7007 912.533,-37.3956 904.183,-43.9168 910.072,-47.7007"/>
</g>
<!-- strain_H1_shifted&#45;&gt;WAVE_FILE_GENERATOR_FOR_SHIFTED_DATA -->
<g id="edge40" class="edge"><title>strain_H1_shifted&#45;&gt;WAVE_FILE_GENERATOR_FOR_SHIFTED_DATA</title>
<path fill="none" stroke="black" d="M175.737,-221.876C194.819,-212.469 218.679,-200.708 239.047,-190.667"/>
<polygon fill="black" stroke="black" points="240.708,-193.751 248.129,-186.19 237.612,-187.472 240.708,-193.751"/>
</g>
<!-- strain_L1_shifted&#45;&gt;WAVE_FILE_GENERATOR_FOR_SHIFTED_DATA -->
<g id="edge41" class="edge"><title>strain_L1_shifted&#45;&gt;WAVE_FILE_GENERATOR_FOR_SHIFTED_DATA</title>
<path fill="none" stroke="black" d="M283,-221.697C283,-213.983 283,-204.712 283,-196.112"/>
<polygon fill="black" stroke="black" points="286.5,-196.104 283,-186.104 279.5,-196.104 286.5,-196.104"/>
</g>
<!-- shifted_wavefile_outflow -->
<g id="node43" class="node"><title>shifted_wavefile_outflow</title>
<ellipse fill="none" stroke="black" cx="852" cy="-31" rx="7" ry="7"/>
</g>
<!-- shifted_wavefile&#45;&gt;shifted_wavefile_outflow -->
<g id="edge51" class="edge"><title>shifted_wavefile&#45;&gt;shifted_wavefile_outflow</title>
<path fill="none" stroke="black" d="M496.861,-86.1738C592.406,-71.5991 778.265,-43.2478 835.089,-34.5797"/>
<polygon fill="black" stroke="black" points="835.819,-38.0088 845.177,-33.0408 834.764,-31.0889 835.819,-38.0088"/>
</g>
<!-- fs -->
<g id="node33" class="node"><title>fs</title>
<path fill="#ffffff" stroke="black" d="M553,-834C553,-834 523,-834 523,-834 517,-834 511,-828 511,-822 511,-822 511,-810 511,-810 511,-804 517,-798 523,-798 523,-798 553,-798 553,-798 559,-798 565,-804 565,-810 565,-810 565,-822 565,-822 565,-828 559,-834 553,-834"/>
<text text-anchor="middle" x="538" y="-811.8" font-family="Helvetica,sans-Serif" font-size="14.00">fs</text>
</g>
<!-- fs&#45;&gt;AMPLITUDE_SPECTRAL_DENSITY -->
<g id="edge21" class="edge"><title>fs&#45;&gt;AMPLITUDE_SPECTRAL_DENSITY</title>
<path fill="none" stroke="black" d="M510.998,-804.671C484.303,-794.46 442.706,-778.549 409.178,-765.724"/>
<polygon fill="black" stroke="black" points="410.098,-762.328 399.507,-762.025 407.597,-768.866 410.098,-762.328"/>
</g>
<!-- fs&#45;&gt;SPECTROGRAMS_FOR_STRAIN_DATA -->
<g id="edge28" class="edge"><title>fs&#45;&gt;SPECTROGRAMS_FOR_STRAIN_DATA</title>
<path fill="none" stroke="black" d="M565.177,-807.106C600.188,-796.937 662.28,-778.902 710.564,-764.878"/>
<polygon fill="black" stroke="black" points="711.707,-768.19 720.334,-762.04 709.754,-761.468 711.707,-768.19"/>
</g>
<!-- fs&#45;&gt;SPECTROGRAMS_FOR_WHITEND_DATA -->
<g id="edge29" class="edge"><title>fs&#45;&gt;SPECTROGRAMS_FOR_WHITEND_DATA</title>
<path fill="none" stroke="black" d="M525.268,-797.703C518.534,-787.736 510.708,-774.698 506,-762 492.054,-724.389 491,-713.113 491,-673 491,-673 491,-673 491,-599 491,-556.683 471,-511.092 456.298,-483.296"/>
<polygon fill="black" stroke="black" points="459.22,-481.345 451.36,-474.241 453.075,-484.697 459.22,-481.345"/>
</g>
<!-- fs&#45;&gt;FILTER_COEFS -->
<g id="edge32" class="edge"><title>fs&#45;&gt;FILTER_COEFS</title>
<path fill="none" stroke="black" d="M546.652,-797.697C550.636,-789.728 555.45,-780.1 559.868,-771.264"/>
<polygon fill="black" stroke="black" points="563.106,-772.614 564.448,-762.104 556.845,-769.483 563.106,-772.614"/>
</g>
<!-- fs_inflow -->
<g id="node34" class="node"><title>fs_inflow</title>
<ellipse fill="none" stroke="black" cx="538" cy="-881" rx="7" ry="7"/>
</g>
<!-- fs_inflow&#45;&gt;fs -->
<g id="edge42" class="edge"><title>fs_inflow&#45;&gt;fs</title>
<path fill="none" stroke="black" d="M538,-873.729C538,-866.795 538,-855.154 538,-844.215"/>
<polygon fill="black" stroke="black" points="541.5,-844.119 538,-834.119 534.5,-844.119 541.5,-844.119"/>
</g>
</g>
</svg>
