<?xml version="1.0" encoding="UTF-8" standalone="no"?>
<!DOCTYPE svg PUBLIC "-//W3C//DTD SVG 1.1//EN"
 "http://www.w3.org/Graphics/SVG/1.1/DTD/svg11.dtd">
<!-- Generated by graphviz version 2.38.0 (20140413.2041)
 -->
<!-- Title: yw_data_view Pages: 1 -->
<svg width="946pt" height="460pt"
 viewBox="0.00 0.00 946.00 460.00" xmlns="http://www.w3.org/2000/svg" xmlns:xlink="http://www.w3.org/1999/xlink">
<g id="graph0" class="graph" transform="scale(1 1) rotate(0) translate(4 456)">
<title>yw_data_view</title>
<polygon fill="white" stroke="none" points="-4,4 -4,-456 942,-456 942,4 -4,4"/>
<text text-anchor="middle" x="469" y="-433.6" font-family="Courier,monospace" font-size="18.00">GRAVITATIONAL_WAVE_DETECTION</text>
<g id="clust1" class="cluster"><title>cluster_workflow</title>
<polygon fill="none" stroke="black" stroke-width="2" points="8,-62 8,-418 930,-418 930,-62 8,-62"/>
</g>
<g id="clust2" class="cluster"><title>cluster_workflow_inner</title>
<polygon fill="none" stroke="white" stroke-width="2" points="16,-70 16,-410 922,-410 922,-70 16,-70"/>
</g>
<g id="clust5" class="cluster"><title>cluster_outflows</title>
<polygon fill="none" stroke="white" stroke-width="2" points="391,-8 391,-54 501,-54 501,-8 391,-8"/>
</g>
<g id="clust6" class="cluster"><title>cluster_outflows_inner</title>
<polygon fill="none" stroke="white" stroke-width="2" points="399,-16 399,-46 493,-46 493,-16 399,-16"/>
</g>
<!-- WAVE_FILE_GENERATOR_FOR_SHIFTED_DATA -->
<g id="node1" class="node"><title>WAVE_FILE_GENERATOR_FOR_SHIFTED_DATA</title>
<polygon fill="#ccffcc" stroke="black" points="418.45,-186 99.5505,-186 99.5505,-150 418.45,-150 418.45,-186"/>
<text text-anchor="middle" x="259" y="-163.8" font-family="Courier,monospace" font-size="14.00">WAVE_FILE_GENERATOR_FOR_SHIFTED_DATA</text>
</g>
<!-- shifted_wavefile -->
<g id="node10" class="node"><title>shifted_wavefile</title>
<path fill="#ffffcc" stroke="black" d="M355.614,-114C355.614,-114 264.386,-114 264.386,-114 258.386,-114 252.386,-108 252.386,-102 252.386,-102 252.386,-90 252.386,-90 252.386,-84 258.386,-78 264.386,-78 264.386,-78 355.614,-78 355.614,-78 361.614,-78 367.614,-84 367.614,-90 367.614,-90 367.614,-102 367.614,-102 367.614,-108 361.614,-114 355.614,-114"/>
<text text-anchor="middle" x="310" y="-91.8" font-family="Helvetica,sans-Serif" font-size="14.00">shifted_wavefile</text>
</g>
<!-- WAVE_FILE_GENERATOR_FOR_SHIFTED_DATA&#45;&gt;shifted_wavefile -->
<g id="edge1" class="edge"><title>WAVE_FILE_GENERATOR_FOR_SHIFTED_DATA&#45;&gt;shifted_wavefile</title>
<path fill="none" stroke="black" d="M271.607,-149.697C277.597,-141.474 284.876,-131.483 291.479,-122.421"/>
<polygon fill="black" stroke="black" points="294.478,-124.248 297.538,-114.104 288.821,-120.126 294.478,-124.248"/>
</g>
<!-- SHIFT_FREQUENCY_BANDPASSED -->
<g id="node2" class="node"><title>SHIFT_FREQUENCY_BANDPASSED</title>
<polygon fill="#ccffcc" stroke="black" points="258.436,-330 23.564,-330 23.564,-294 258.436,-294 258.436,-330"/>
<text text-anchor="middle" x="141" y="-307.8" font-family="Courier,monospace" font-size="14.00">SHIFT_FREQUENCY_BANDPASSED</text>
</g>
<!-- strain_H1_shifted -->
<g id="node8" class="node"><title>strain_H1_shifted</title>
<path fill="#ffffcc" stroke="black" d="M173.451,-258C173.451,-258 72.5488,-258 72.5488,-258 66.5488,-258 60.5488,-252 60.5488,-246 60.5488,-246 60.5488,-234 60.5488,-234 60.5488,-228 66.5488,-222 72.5488,-222 72.5488,-222 173.451,-222 173.451,-222 179.451,-222 185.451,-228 185.451,-234 185.451,-234 185.451,-246 185.451,-246 185.451,-252 179.451,-258 173.451,-258"/>
<text text-anchor="middle" x="123" y="-235.8" font-family="Helvetica,sans-Serif" font-size="14.00">strain_H1_shifted</text>
</g>
<!-- SHIFT_FREQUENCY_BANDPASSED&#45;&gt;strain_H1_shifted -->
<g id="edge3" class="edge"><title>SHIFT_FREQUENCY_BANDPASSED&#45;&gt;strain_H1_shifted</title>
<path fill="none" stroke="black" d="M136.551,-293.697C134.545,-285.898 132.131,-276.509 129.899,-267.829"/>
<polygon fill="black" stroke="black" points="133.278,-266.918 127.398,-258.104 126.499,-268.661 133.278,-266.918"/>
</g>
<!-- strain_L1_shifted -->
<g id="node9" class="node"><title>strain_L1_shifted</title>
<path fill="#ffffcc" stroke="black" d="M314.128,-258C314.128,-258 215.872,-258 215.872,-258 209.872,-258 203.872,-252 203.872,-246 203.872,-246 203.872,-234 203.872,-234 203.872,-228 209.872,-222 215.872,-222 215.872,-222 314.128,-222 314.128,-222 320.128,-222 326.128,-228 326.128,-234 326.128,-234 326.128,-246 326.128,-246 326.128,-252 320.128,-258 314.128,-258"/>
<text text-anchor="middle" x="265" y="-235.8" font-family="Helvetica,sans-Serif" font-size="14.00">strain_L1_shifted</text>
</g>
<!-- SHIFT_FREQUENCY_BANDPASSED&#45;&gt;strain_L1_shifted -->
<g id="edge2" class="edge"><title>SHIFT_FREQUENCY_BANDPASSED&#45;&gt;strain_L1_shifted</title>
<path fill="none" stroke="black" d="M171.334,-293.876C187.697,-284.639 208.083,-273.131 225.654,-263.212"/>
<polygon fill="black" stroke="black" points="227.562,-266.154 234.55,-258.19 224.121,-260.058 227.562,-266.154"/>
</g>
<!-- WAVE_FILE_GENERATOR_FOR_WHITENED_DATA -->
<g id="node3" class="node"><title>WAVE_FILE_GENERATOR_FOR_WHITENED_DATA</title>
<polygon fill="#ccffcc" stroke="black" points="914.351,-330 587.649,-330 587.649,-294 914.351,-294 914.351,-330"/>
<text text-anchor="middle" x="751" y="-307.8" font-family="Courier,monospace" font-size="14.00">WAVE_FILE_GENERATOR_FOR_WHITENED_DATA</text>
</g>
<!-- whitened_bandpass_wavefile -->
<g id="node7" class="node"><title>whitened_bandpass_wavefile</title>
<path fill="#ffffcc" stroke="black" d="M791.409,-258C791.409,-258 616.591,-258 616.591,-258 610.591,-258 604.591,-252 604.591,-246 604.591,-246 604.591,-234 604.591,-234 604.591,-228 610.591,-222 616.591,-222 616.591,-222 791.409,-222 791.409,-222 797.409,-222 803.409,-228 803.409,-234 803.409,-234 803.409,-246 803.409,-246 803.409,-252 797.409,-258 791.409,-258"/>
<text text-anchor="middle" x="704" y="-235.8" font-family="Helvetica,sans-Serif" font-size="14.00">whitened_bandpass_wavefile</text>
</g>
<!-- WAVE_FILE_GENERATOR_FOR_WHITENED_DATA&#45;&gt;whitened_bandpass_wavefile -->
<g id="edge4" class="edge"><title>WAVE_FILE_GENERATOR_FOR_WHITENED_DATA&#45;&gt;whitened_bandpass_wavefile</title>
<path fill="none" stroke="black" d="M739.382,-293.697C733.861,-285.474 727.153,-275.483 721.068,-266.421"/>
<polygon fill="black" stroke="black" points="723.965,-264.456 715.484,-258.104 718.153,-268.358 723.965,-264.456"/>
</g>
<!-- STRAIN_WAVEFORM_FOR_WHITENED_DATA -->
<g id="node4" class="node"><title>STRAIN_WAVEFORM_FOR_WHITENED_DATA</title>
<polygon fill="#ccffcc" stroke="black" points="569.745,-330 276.255,-330 276.255,-294 569.745,-294 569.745,-330"/>
<text text-anchor="middle" x="423" y="-307.8" font-family="Courier,monospace" font-size="14.00">STRAIN_WAVEFORM_FOR_WHITENED_DATA</text>
</g>
<!-- WHITENED_strain_data -->
<g id="node6" class="node"><title>WHITENED_strain_data</title>
<path fill="#ffffcc" stroke="black" d="M511.717,-258C511.717,-258 368.283,-258 368.283,-258 362.283,-258 356.283,-252 356.283,-246 356.283,-246 356.283,-234 356.283,-234 356.283,-228 362.283,-222 368.283,-222 368.283,-222 511.717,-222 511.717,-222 517.717,-222 523.717,-228 523.717,-234 523.717,-234 523.717,-246 523.717,-246 523.717,-252 517.717,-258 511.717,-258"/>
<text text-anchor="middle" x="440" y="-235.8" font-family="Helvetica,sans-Serif" font-size="14.00">WHITENED_strain_data</text>
</g>
<!-- STRAIN_WAVEFORM_FOR_WHITENED_DATA&#45;&gt;WHITENED_strain_data -->
<g id="edge5" class="edge"><title>STRAIN_WAVEFORM_FOR_WHITENED_DATA&#45;&gt;WHITENED_strain_data</title>
<path fill="none" stroke="black" d="M427.202,-293.697C429.096,-285.898 431.377,-276.509 433.484,-267.829"/>
<polygon fill="black" stroke="black" points="436.887,-268.648 435.846,-258.104 430.085,-266.996 436.887,-268.648"/>
</g>
<!-- strain_L1_whitenbp -->
<g id="node5" class="node"><title>strain_L1_whitenbp</title>
<path fill="#ffffcc" stroke="black" d="M479.921,-402C479.921,-402 366.079,-402 366.079,-402 360.079,-402 354.079,-396 354.079,-390 354.079,-390 354.079,-378 354.079,-378 354.079,-372 360.079,-366 366.079,-366 366.079,-366 479.921,-366 479.921,-366 485.921,-366 491.921,-372 491.921,-378 491.921,-378 491.921,-390 491.921,-390 491.921,-396 485.921,-402 479.921,-402"/>
<text text-anchor="middle" x="423" y="-379.8" font-family="Helvetica,sans-Serif" font-size="14.00">strain_L1_whitenbp</text>
</g>
<!-- strain_L1_whitenbp&#45;&gt;SHIFT_FREQUENCY_BANDPASSED -->
<g id="edge8" class="edge"><title>strain_L1_whitenbp&#45;&gt;SHIFT_FREQUENCY_BANDPASSED</title>
<path fill="none" stroke="black" d="M354.376,-365.966C313.689,-355.866 261.972,-343.028 219.643,-332.521"/>
<polygon fill="black" stroke="black" points="220.481,-329.123 209.932,-330.111 218.794,-335.917 220.481,-329.123"/>
</g>
<!-- strain_L1_whitenbp&#45;&gt;WAVE_FILE_GENERATOR_FOR_WHITENED_DATA -->
<g id="edge7" class="edge"><title>strain_L1_whitenbp&#45;&gt;WAVE_FILE_GENERATOR_FOR_WHITENED_DATA</title>
<path fill="none" stroke="black" d="M491.76,-368.326C541.011,-357.815 607.799,-343.561 661.25,-332.154"/>
<polygon fill="black" stroke="black" points="662.019,-335.569 671.068,-330.059 660.557,-328.723 662.019,-335.569"/>
</g>
<!-- strain_L1_whitenbp&#45;&gt;STRAIN_WAVEFORM_FOR_WHITENED_DATA -->
<g id="edge6" class="edge"><title>strain_L1_whitenbp&#45;&gt;STRAIN_WAVEFORM_FOR_WHITENED_DATA</title>
<path fill="none" stroke="black" d="M423,-365.697C423,-357.983 423,-348.712 423,-340.112"/>
<polygon fill="black" stroke="black" points="426.5,-340.104 423,-330.104 419.5,-340.104 426.5,-340.104"/>
</g>
<!-- WHITENED_strain_data_outflow -->
<g id="node11" class="node"><title>WHITENED_strain_data_outflow</title>
<ellipse fill="none" stroke="black" cx="446" cy="-31" rx="7" ry="7"/>
</g>
<!-- WHITENED_strain_data&#45;&gt;WHITENED_strain_data_outflow -->
<g id="edge11" class="edge"><title>WHITENED_strain_data&#45;&gt;WHITENED_strain_data_outflow</title>
<path fill="none" stroke="black" d="M440.501,-221.707C441.642,-182.342 444.42,-86.4988 445.53,-48.2014"/>
<polygon fill="black" stroke="black" points="449.032,-48.2082 445.823,-38.1109 442.035,-48.0053 449.032,-48.2082"/>
</g>
<!-- whitened_bandpass_wavefile_outflow -->
<g id="node12" class="node"><title>whitened_bandpass_wavefile_outflow</title>
<ellipse fill="none" stroke="black" cx="478" cy="-31" rx="7" ry="7"/>
</g>
<!-- whitened_bandpass_wavefile&#45;&gt;whitened_bandpass_wavefile_outflow -->
<g id="edge12" class="edge"><title>whitened_bandpass_wavefile&#45;&gt;whitened_bandpass_wavefile_outflow</title>
<path fill="none" stroke="black" d="M685.12,-221.707C640.138,-180.507 527.613,-77.4416 490.264,-43.2329"/>
<polygon fill="black" stroke="black" points="492.543,-40.5738 482.804,-36.4005 487.815,-45.7358 492.543,-40.5738"/>
</g>
<!-- strain_H1_shifted&#45;&gt;WAVE_FILE_GENERATOR_FOR_SHIFTED_DATA -->
<g id="edge9" class="edge"><title>strain_H1_shifted&#45;&gt;WAVE_FILE_GENERATOR_FOR_SHIFTED_DATA</title>
<path fill="none" stroke="black" d="M156.269,-221.876C174.463,-212.512 197.191,-200.814 216.64,-190.803"/>
<polygon fill="black" stroke="black" points="218.313,-193.878 225.603,-186.19 215.11,-187.654 218.313,-193.878"/>
</g>
<!-- strain_L1_shifted&#45;&gt;WAVE_FILE_GENERATOR_FOR_SHIFTED_DATA -->
<g id="edge10" class="edge"><title>strain_L1_shifted&#45;&gt;WAVE_FILE_GENERATOR_FOR_SHIFTED_DATA</title>
<path fill="none" stroke="black" d="M263.517,-221.697C262.856,-213.983 262.061,-204.712 261.324,-196.112"/>
<polygon fill="black" stroke="black" points="264.807,-195.769 260.466,-186.104 257.833,-196.367 264.807,-195.769"/>
</g>
<!-- shifted_wavefile_outflow -->
<g id="node13" class="node"><title>shifted_wavefile_outflow</title>
<ellipse fill="none" stroke="black" cx="414" cy="-31" rx="7" ry="7"/>
</g>
<!-- shifted_wavefile&#45;&gt;shifted_wavefile_outflow -->
<g id="edge13" class="edge"><title>shifted_wavefile&#45;&gt;shifted_wavefile_outflow</title>
<path fill="none" stroke="black" d="M338.144,-77.9513C357.883,-65.9941 383.477,-50.4901 399.314,-40.8964"/>
<polygon fill="black" stroke="black" points="401.413,-43.7169 408.153,-35.542 397.786,-37.7297 401.413,-43.7169"/>
</g>
</g>
</svg>
