<?xml version="1.0" encoding="UTF-8" standalone="no"?>
<!DOCTYPE svg PUBLIC "-//W3C//DTD SVG 1.1//EN"
 "http://www.w3.org/Graphics/SVG/1.1/DTD/svg11.dtd">
<!-- Generated by graphviz version 2.38.0 (20140413.2041)
 -->
<!-- Title: yw_data_view Pages: 1 -->
<svg width="468pt" height="1115pt"
 viewBox="0.00 0.00 468.00 1115.00" xmlns="http://www.w3.org/2000/svg" xmlns:xlink="http://www.w3.org/1999/xlink">
<g id="graph0" class="graph" transform="scale(1 1) rotate(0) translate(4 1111)">
<title>yw_data_view</title>
<polygon fill="white" stroke="none" points="-4,4 -4,-1111 464,-1111 464,4 -4,4"/>
<text text-anchor="middle" x="230" y="-1088.6" font-family="Courier,monospace" font-size="18.00">GRAVITATIONAL_WAVE_DETECTION</text>
<g id="clust1" class="cluster"><title>cluster_workflow</title>
<polygon fill="none" stroke="black" stroke-width="2" points="8,-62 8,-1019 452,-1019 452,-62 8,-62"/>
</g>
<g id="clust2" class="cluster"><title>cluster_workflow_inner</title>
<polygon fill="none" stroke="white" stroke-width="2" points="16,-70 16,-1011 444,-1011 444,-70 16,-70"/>
</g>
<g id="clust3" class="cluster"><title>cluster_inflows</title>
<polygon fill="none" stroke="white" stroke-width="2" points="284,-1027 284,-1073 394,-1073 394,-1027 284,-1027"/>
</g>
<g id="clust4" class="cluster"><title>cluster_inflows_inner</title>
<polygon fill="none" stroke="white" stroke-width="2" points="292,-1035 292,-1065 386,-1065 386,-1035 292,-1035"/>
</g>
<g id="clust5" class="cluster"><title>cluster_outflows</title>
<polygon fill="none" stroke="white" stroke-width="2" points="206,-8 206,-54 252,-54 252,-8 206,-8"/>
</g>
<g id="clust6" class="cluster"><title>cluster_outflows_inner</title>
<polygon fill="none" stroke="white" stroke-width="2" points="214,-16 214,-46 244,-46 244,-16 214,-16"/>
</g>
<!-- SHIFT_FREQUENCY_BANDPASSED -->
<g id="node1" class="node"><title>SHIFT_FREQUENCY_BANDPASSED</title>
<polygon fill="#ccffcc" stroke="black" points="301.436,-347 66.564,-347 66.564,-311 301.436,-311 301.436,-347"/>
<text text-anchor="middle" x="184" y="-324.8" font-family="Courier,monospace" font-size="14.00">SHIFT_FREQUENCY_BANDPASSED</text>
</g>
<!-- strain_H1_shifted -->
<g id="node15" class="node"><title>strain_H1_shifted</title>
<path fill="#ffffcc" stroke="black" d="M184.451,-275C184.451,-275 83.5488,-275 83.5488,-275 77.5488,-275 71.5488,-269 71.5488,-263 71.5488,-263 71.5488,-251 71.5488,-251 71.5488,-245 77.5488,-239 83.5488,-239 83.5488,-239 184.451,-239 184.451,-239 190.451,-239 196.451,-245 196.451,-251 196.451,-251 196.451,-263 196.451,-263 196.451,-269 190.451,-275 184.451,-275"/>
<text text-anchor="middle" x="134" y="-252.8" font-family="Helvetica,sans-Serif" font-size="14.00">strain_H1_shifted</text>
</g>
<!-- SHIFT_FREQUENCY_BANDPASSED&#45;&gt;strain_H1_shifted -->
<g id="edge22" class="edge"><title>SHIFT_FREQUENCY_BANDPASSED&#45;&gt;strain_H1_shifted</title>
<path fill="none" stroke="black" d="M171.64,-310.697C165.767,-302.474 158.631,-292.483 152.158,-283.421"/>
<polygon fill="black" stroke="black" points="154.878,-281.207 146.217,-275.104 149.182,-285.276 154.878,-281.207"/>
</g>
<!-- strain_L1_shifted -->
<g id="node16" class="node"><title>strain_L1_shifted</title>
<path fill="#ffffcc" stroke="black" d="M325.128,-275C325.128,-275 226.872,-275 226.872,-275 220.872,-275 214.872,-269 214.872,-263 214.872,-263 214.872,-251 214.872,-251 214.872,-245 220.872,-239 226.872,-239 226.872,-239 325.128,-239 325.128,-239 331.128,-239 337.128,-245 337.128,-251 337.128,-251 337.128,-263 337.128,-263 337.128,-269 331.128,-275 325.128,-275"/>
<text text-anchor="middle" x="276" y="-252.8" font-family="Helvetica,sans-Serif" font-size="14.00">strain_L1_shifted</text>
</g>
<!-- SHIFT_FREQUENCY_BANDPASSED&#45;&gt;strain_L1_shifted -->
<g id="edge23" class="edge"><title>SHIFT_FREQUENCY_BANDPASSED&#45;&gt;strain_L1_shifted</title>
<path fill="none" stroke="black" d="M206.742,-310.697C218.44,-301.796 232.861,-290.823 245.51,-281.199"/>
<polygon fill="black" stroke="black" points="247.681,-283.945 253.52,-275.104 243.442,-278.374 247.681,-283.945"/>
</g>
<!-- BANDPASSING -->
<g id="node2" class="node"><title>BANDPASSING</title>
<polygon fill="#ccffcc" stroke="black" points="241.416,-491 132.584,-491 132.584,-455 241.416,-455 241.416,-491"/>
<text text-anchor="middle" x="187" y="-468.8" font-family="Courier,monospace" font-size="14.00">BANDPASSING</text>
</g>
<!-- strain_H1_whitenbp -->
<g id="node13" class="node"><title>strain_H1_whitenbp</title>
<path fill="#ffffcc" stroke="black" d="M174.744,-419C174.744,-419 59.2556,-419 59.2556,-419 53.2556,-419 47.2556,-413 47.2556,-407 47.2556,-407 47.2556,-395 47.2556,-395 47.2556,-389 53.2556,-383 59.2556,-383 59.2556,-383 174.744,-383 174.744,-383 180.744,-383 186.744,-389 186.744,-395 186.744,-395 186.744,-407 186.744,-407 186.744,-413 180.744,-419 174.744,-419"/>
<text text-anchor="middle" x="117" y="-396.8" font-family="Helvetica,sans-Serif" font-size="14.00">strain_H1_whitenbp</text>
</g>
<!-- BANDPASSING&#45;&gt;strain_H1_whitenbp -->
<g id="edge20" class="edge"><title>BANDPASSING&#45;&gt;strain_H1_whitenbp</title>
<path fill="none" stroke="black" d="M169.697,-454.697C161.135,-446.135 150.656,-435.656 141.304,-426.304"/>
<polygon fill="black" stroke="black" points="143.65,-423.701 134.104,-419.104 138.701,-428.65 143.65,-423.701"/>
</g>
<!-- strain_L1_whitenbp -->
<g id="node14" class="node"><title>strain_L1_whitenbp</title>
<path fill="#ffffcc" stroke="black" d="M330.921,-419C330.921,-419 217.079,-419 217.079,-419 211.079,-419 205.079,-413 205.079,-407 205.079,-407 205.079,-395 205.079,-395 205.079,-389 211.079,-383 217.079,-383 217.079,-383 330.921,-383 330.921,-383 336.921,-383 342.921,-389 342.921,-395 342.921,-395 342.921,-407 342.921,-407 342.921,-413 336.921,-419 330.921,-419"/>
<text text-anchor="middle" x="274" y="-396.8" font-family="Helvetica,sans-Serif" font-size="14.00">strain_L1_whitenbp</text>
</g>
<!-- BANDPASSING&#45;&gt;strain_L1_whitenbp -->
<g id="edge21" class="edge"><title>BANDPASSING&#45;&gt;strain_L1_whitenbp</title>
<path fill="none" stroke="black" d="M208.506,-454.697C219.463,-445.881 232.946,-435.032 244.825,-425.474"/>
<polygon fill="black" stroke="black" points="247.145,-428.1 252.742,-419.104 242.756,-422.646 247.145,-428.1"/>
</g>
<!-- WHITENING -->
<g id="node3" class="node"><title>WHITENING</title>
<polygon fill="#ccffcc" stroke="black" points="279.613,-635 188.387,-635 188.387,-599 279.613,-599 279.613,-635"/>
<text text-anchor="middle" x="234" y="-612.8" font-family="Courier,monospace" font-size="14.00">WHITENING</text>
</g>
<!-- strain_H1_whiten -->
<g id="node11" class="node"><title>strain_H1_whiten</title>
<path fill="#ffffcc" stroke="black" d="M202.172,-563C202.172,-563 101.828,-563 101.828,-563 95.828,-563 89.828,-557 89.828,-551 89.828,-551 89.828,-539 89.828,-539 89.828,-533 95.828,-527 101.828,-527 101.828,-527 202.172,-527 202.172,-527 208.172,-527 214.172,-533 214.172,-539 214.172,-539 214.172,-551 214.172,-551 214.172,-557 208.172,-563 202.172,-563"/>
<text text-anchor="middle" x="152" y="-540.8" font-family="Helvetica,sans-Serif" font-size="14.00">strain_H1_whiten</text>
</g>
<!-- WHITENING&#45;&gt;strain_H1_whiten -->
<g id="edge18" class="edge"><title>WHITENING&#45;&gt;strain_H1_whiten</title>
<path fill="none" stroke="black" d="M213.73,-598.697C203.502,-589.965 190.939,-579.24 179.822,-569.75"/>
<polygon fill="black" stroke="black" points="181.915,-566.935 172.037,-563.104 177.37,-572.259 181.915,-566.935"/>
</g>
<!-- strain_L1_whiten -->
<g id="node12" class="node"><title>strain_L1_whiten</title>
<path fill="#ffffcc" stroke="black" d="M341.848,-563C341.848,-563 244.152,-563 244.152,-563 238.152,-563 232.152,-557 232.152,-551 232.152,-551 232.152,-539 232.152,-539 232.152,-533 238.152,-527 244.152,-527 244.152,-527 341.848,-527 341.848,-527 347.848,-527 353.848,-533 353.848,-539 353.848,-539 353.848,-551 353.848,-551 353.848,-557 347.848,-563 341.848,-563"/>
<text text-anchor="middle" x="293" y="-540.8" font-family="Helvetica,sans-Serif" font-size="14.00">strain_L1_whiten</text>
</g>
<!-- WHITENING&#45;&gt;strain_L1_whiten -->
<g id="edge19" class="edge"><title>WHITENING&#45;&gt;strain_L1_whiten</title>
<path fill="none" stroke="black" d="M248.584,-598.697C255.658,-590.305 264.283,-580.07 272.045,-570.861"/>
<polygon fill="black" stroke="black" points="274.815,-573.006 278.583,-563.104 269.463,-568.495 274.815,-573.006"/>
</g>
<!-- AMPLITUDE_SPECTRAL_DENSITY -->
<g id="node4" class="node"><title>AMPLITUDE_SPECTRAL_DENSITY</title>
<polygon fill="#ccffcc" stroke="black" points="436.436,-779 201.564,-779 201.564,-743 436.436,-743 436.436,-779"/>
<text text-anchor="middle" x="319" y="-756.8" font-family="Courier,monospace" font-size="14.00">AMPLITUDE_SPECTRAL_DENSITY</text>
</g>
<!-- PSD_H1 -->
<g id="node9" class="node"><title>PSD_H1</title>
<path fill="#ffffcc" stroke="black" d="M256.47,-707C256.47,-707 209.53,-707 209.53,-707 203.53,-707 197.53,-701 197.53,-695 197.53,-695 197.53,-683 197.53,-683 197.53,-677 203.53,-671 209.53,-671 209.53,-671 256.47,-671 256.47,-671 262.47,-671 268.47,-677 268.47,-683 268.47,-683 268.47,-695 268.47,-695 268.47,-701 262.47,-707 256.47,-707"/>
<text text-anchor="middle" x="233" y="-684.8" font-family="Helvetica,sans-Serif" font-size="14.00">PSD_H1</text>
</g>
<!-- AMPLITUDE_SPECTRAL_DENSITY&#45;&gt;PSD_H1 -->
<g id="edge16" class="edge"><title>AMPLITUDE_SPECTRAL_DENSITY&#45;&gt;PSD_H1</title>
<path fill="none" stroke="black" d="M297.742,-742.697C286.911,-733.881 273.582,-723.032 261.84,-713.474"/>
<polygon fill="black" stroke="black" points="263.979,-710.703 254.014,-707.104 259.56,-716.132 263.979,-710.703"/>
</g>
<!-- PSD_L1 -->
<g id="node10" class="node"><title>PSD_L1</title>
<path fill="#ffffcc" stroke="black" d="M342.145,-707C342.145,-707 297.855,-707 297.855,-707 291.855,-707 285.855,-701 285.855,-695 285.855,-695 285.855,-683 285.855,-683 285.855,-677 291.855,-671 297.855,-671 297.855,-671 342.145,-671 342.145,-671 348.145,-671 354.145,-677 354.145,-683 354.145,-683 354.145,-695 354.145,-695 354.145,-701 348.145,-707 342.145,-707"/>
<text text-anchor="middle" x="320" y="-684.8" font-family="Helvetica,sans-Serif" font-size="14.00">PSD_L1</text>
</g>
<!-- AMPLITUDE_SPECTRAL_DENSITY&#45;&gt;PSD_L1 -->
<g id="edge17" class="edge"><title>AMPLITUDE_SPECTRAL_DENSITY&#45;&gt;PSD_L1</title>
<path fill="none" stroke="black" d="M319.247,-742.697C319.357,-734.983 319.49,-725.712 319.613,-717.112"/>
<polygon fill="black" stroke="black" points="323.112,-717.153 319.756,-707.104 316.113,-717.053 323.112,-717.153"/>
</g>
<!-- LOAD_DATA -->
<g id="node5" class="node"><title>LOAD_DATA</title>
<polygon fill="#ccffcc" stroke="black" points="319.613,-923 228.387,-923 228.387,-887 319.613,-887 319.613,-923"/>
<text text-anchor="middle" x="274" y="-900.8" font-family="Courier,monospace" font-size="14.00">LOAD_DATA</text>
</g>
<!-- strain_H1 -->
<g id="node7" class="node"><title>strain_H1</title>
<path fill="#ffffcc" stroke="black" d="M253.917,-851C253.917,-851 202.083,-851 202.083,-851 196.083,-851 190.083,-845 190.083,-839 190.083,-839 190.083,-827 190.083,-827 190.083,-821 196.083,-815 202.083,-815 202.083,-815 253.917,-815 253.917,-815 259.917,-815 265.917,-821 265.917,-827 265.917,-827 265.917,-839 265.917,-839 265.917,-845 259.917,-851 253.917,-851"/>
<text text-anchor="middle" x="228" y="-828.8" font-family="Helvetica,sans-Serif" font-size="14.00">strain_H1</text>
</g>
<!-- LOAD_DATA&#45;&gt;strain_H1 -->
<g id="edge14" class="edge"><title>LOAD_DATA&#45;&gt;strain_H1</title>
<path fill="none" stroke="black" d="M262.629,-886.697C257.282,-878.559 250.796,-868.689 244.889,-859.701"/>
<polygon fill="black" stroke="black" points="247.657,-857.539 239.24,-851.104 241.807,-861.384 247.657,-857.539"/>
</g>
<!-- strain_L1 -->
<g id="node8" class="node"><title>strain_L1</title>
<path fill="#ffffcc" stroke="black" d="M345.594,-851C345.594,-851 296.406,-851 296.406,-851 290.406,-851 284.406,-845 284.406,-839 284.406,-839 284.406,-827 284.406,-827 284.406,-821 290.406,-815 296.406,-815 296.406,-815 345.594,-815 345.594,-815 351.594,-815 357.594,-821 357.594,-827 357.594,-827 357.594,-839 357.594,-839 357.594,-845 351.594,-851 345.594,-851"/>
<text text-anchor="middle" x="321" y="-828.8" font-family="Helvetica,sans-Serif" font-size="14.00">strain_L1</text>
</g>
<!-- LOAD_DATA&#45;&gt;strain_L1 -->
<g id="edge15" class="edge"><title>LOAD_DATA&#45;&gt;strain_L1</title>
<path fill="none" stroke="black" d="M285.618,-886.697C291.139,-878.474 297.847,-868.483 303.932,-859.421"/>
<polygon fill="black" stroke="black" points="306.847,-861.358 309.516,-851.104 301.035,-857.456 306.847,-861.358"/>
</g>
<!-- WAVE_FILE_GENERATOR_FOR_SHIFTED_DATA -->
<g id="node6" class="node"><title>WAVE_FILE_GENERATOR_FOR_SHIFTED_DATA</title>
<polygon fill="#ccffcc" stroke="black" points="388.45,-203 69.5505,-203 69.5505,-167 388.45,-167 388.45,-203"/>
<text text-anchor="middle" x="229" y="-180.8" font-family="Courier,monospace" font-size="14.00">WAVE_FILE_GENERATOR_FOR_SHIFTED_DATA</text>
</g>
<!-- shifted_wavefile -->
<g id="node19" class="node"><title>shifted_wavefile</title>
<path fill="#ffe4b5" stroke="black" d="M165.489,-78.5C165.489,-78.5 292.511,-78.5 292.511,-78.5 298.511,-78.5 304.511,-84.5 304.511,-90.5 304.511,-90.5 304.511,-118.5 304.511,-118.5 304.511,-124.5 298.511,-130.5 292.511,-130.5 292.511,-130.5 165.489,-130.5 165.489,-130.5 159.489,-130.5 153.489,-124.5 153.489,-118.5 153.489,-118.5 153.489,-90.5 153.489,-90.5 153.489,-84.5 159.489,-78.5 165.489,-78.5"/>
<text text-anchor="middle" x="229" y="-119.3" font-family="Courier,monospace" font-weight="bold" font-size="9.00">[data40] shifted_wavefile</text>
<polyline fill="none" stroke="black" points="153.489,-113.5 304.511,-113.5 "/>
<text text-anchor="start" x="161.489" y="-102.3" font-family="Courier,monospace" font-weight="bold" font-size="9.00">GW150914_NR_shifted.wav</text>
<text text-anchor="start" x="161.489" y="-93.3" font-family="Courier,monospace" font-weight="bold" font-size="9.00">GW150914_L1_shifted.wav</text>
<text text-anchor="start" x="161.489" y="-84.3" font-family="Courier,monospace" font-weight="bold" font-size="9.00">GW150914_H1_shifted.wav</text>
</g>
<!-- WAVE_FILE_GENERATOR_FOR_SHIFTED_DATA&#45;&gt;shifted_wavefile -->
<g id="edge24" class="edge"><title>WAVE_FILE_GENERATOR_FOR_SHIFTED_DATA&#45;&gt;shifted_wavefile</title>
<path fill="none" stroke="black" d="M229,-166.967C229,-159.235 229,-149.788 229,-140.641"/>
<polygon fill="black" stroke="black" points="232.5,-140.55 229,-130.55 225.5,-140.55 232.5,-140.55"/>
</g>
<!-- strain_H1&#45;&gt;AMPLITUDE_SPECTRAL_DENSITY -->
<g id="edge13" class="edge"><title>strain_H1&#45;&gt;AMPLITUDE_SPECTRAL_DENSITY</title>
<path fill="none" stroke="black" d="M250.494,-814.697C261.955,-805.881 276.058,-795.032 288.484,-785.474"/>
<polygon fill="black" stroke="black" points="290.972,-787.976 296.764,-779.104 286.704,-782.427 290.972,-787.976"/>
</g>
<!-- strain_L1&#45;&gt;AMPLITUDE_SPECTRAL_DENSITY -->
<g id="edge2" class="edge"><title>strain_L1&#45;&gt;AMPLITUDE_SPECTRAL_DENSITY</title>
<path fill="none" stroke="black" d="M320.506,-814.697C320.285,-806.983 320.02,-797.712 319.775,-789.112"/>
<polygon fill="black" stroke="black" points="323.273,-789 319.489,-779.104 316.276,-789.2 323.273,-789"/>
</g>
<!-- PSD_H1&#45;&gt;WHITENING -->
<g id="edge10" class="edge"><title>PSD_H1&#45;&gt;WHITENING</title>
<path fill="none" stroke="black" d="M233.247,-670.697C233.357,-662.983 233.49,-653.712 233.613,-645.112"/>
<polygon fill="black" stroke="black" points="237.112,-645.153 233.756,-635.104 230.113,-645.053 237.112,-645.153"/>
</g>
<!-- PSD_L1&#45;&gt;WHITENING -->
<g id="edge11" class="edge"><title>PSD_L1&#45;&gt;WHITENING</title>
<path fill="none" stroke="black" d="M298.742,-670.697C287.911,-661.881 274.582,-651.032 262.84,-641.474"/>
<polygon fill="black" stroke="black" points="264.979,-638.703 255.014,-635.104 260.56,-644.132 264.979,-638.703"/>
</g>
<!-- strain_H1_whiten&#45;&gt;BANDPASSING -->
<g id="edge1" class="edge"><title>strain_H1_whiten&#45;&gt;BANDPASSING</title>
<path fill="none" stroke="black" d="M160.652,-526.697C164.636,-518.728 169.45,-509.1 173.868,-500.264"/>
<polygon fill="black" stroke="black" points="177.106,-501.614 178.448,-491.104 170.845,-498.483 177.106,-501.614"/>
</g>
<!-- strain_L1_whiten&#45;&gt;BANDPASSING -->
<g id="edge3" class="edge"><title>strain_L1_whiten&#45;&gt;BANDPASSING</title>
<path fill="none" stroke="black" d="M267.069,-526.876C253.338,-517.808 236.294,-506.552 221.464,-496.759"/>
<polygon fill="black" stroke="black" points="223.304,-493.78 213.03,-491.19 219.446,-499.621 223.304,-493.78"/>
</g>
<!-- strain_H1_whitenbp&#45;&gt;SHIFT_FREQUENCY_BANDPASSED -->
<g id="edge5" class="edge"><title>strain_H1_whitenbp&#45;&gt;SHIFT_FREQUENCY_BANDPASSED</title>
<path fill="none" stroke="black" d="M133.562,-382.697C141.675,-374.22 151.588,-363.864 160.471,-354.583"/>
<polygon fill="black" stroke="black" points="163.243,-356.749 167.629,-347.104 158.186,-351.908 163.243,-356.749"/>
</g>
<!-- strain_L1_whitenbp&#45;&gt;SHIFT_FREQUENCY_BANDPASSED -->
<g id="edge8" class="edge"><title>strain_L1_whitenbp&#45;&gt;SHIFT_FREQUENCY_BANDPASSED</title>
<path fill="none" stroke="black" d="M251.753,-382.697C240.418,-373.881 226.47,-363.032 214.181,-353.474"/>
<polygon fill="black" stroke="black" points="216.034,-350.481 205.991,-347.104 211.736,-356.007 216.034,-350.481"/>
</g>
<!-- strain_H1_shifted&#45;&gt;WAVE_FILE_GENERATOR_FOR_SHIFTED_DATA -->
<g id="edge4" class="edge"><title>strain_H1_shifted&#45;&gt;WAVE_FILE_GENERATOR_FOR_SHIFTED_DATA</title>
<path fill="none" stroke="black" d="M157.483,-238.697C169.563,-229.796 184.454,-218.823 197.516,-209.199"/>
<polygon fill="black" stroke="black" points="199.813,-211.854 205.787,-203.104 195.66,-206.219 199.813,-211.854"/>
</g>
<!-- strain_L1_shifted&#45;&gt;WAVE_FILE_GENERATOR_FOR_SHIFTED_DATA -->
<g id="edge6" class="edge"><title>strain_L1_shifted&#45;&gt;WAVE_FILE_GENERATOR_FOR_SHIFTED_DATA</title>
<path fill="none" stroke="black" d="M264.382,-238.697C258.861,-230.474 252.153,-220.483 246.068,-211.421"/>
<polygon fill="black" stroke="black" points="248.965,-209.456 240.484,-203.104 243.153,-213.358 248.965,-209.456"/>
</g>
<!-- FN_Detector -->
<g id="node17" class="node"><title>FN_Detector</title>
<path fill="#ffe4b5" stroke="black" d="M253.885,-959.5C253.885,-959.5 424.115,-959.5 424.115,-959.5 430.115,-959.5 436.115,-965.5 436.115,-971.5 436.115,-971.5 436.115,-990.5 436.115,-990.5 436.115,-996.5 430.115,-1002.5 424.115,-1002.5 424.115,-1002.5 253.885,-1002.5 253.885,-1002.5 247.885,-1002.5 241.885,-996.5 241.885,-990.5 241.885,-990.5 241.885,-971.5 241.885,-971.5 241.885,-965.5 247.885,-959.5 253.885,-959.5"/>
<text text-anchor="middle" x="339" y="-991.3" font-family="Courier,monospace" font-weight="bold" font-size="9.00">[data14] FN_Detector</text>
<polyline fill="none" stroke="black" points="241.885,-985.5 436.115,-985.5 "/>
<text text-anchor="start" x="249.885" y="-974.3" font-family="Courier,monospace" font-weight="bold" font-size="9.00">L&#45;L1_LOSC_4_V1&#45;1126259446&#45;32.hdf5</text>
<text text-anchor="start" x="249.885" y="-965.3" font-family="Courier,monospace" font-weight="bold" font-size="9.00">H&#45;H1_LOSC_4_V1&#45;1126259446&#45;32.hdf5</text>
</g>
<!-- FN_Detector&#45;&gt;LOAD_DATA -->
<g id="edge7" class="edge"><title>FN_Detector&#45;&gt;LOAD_DATA</title>
<path fill="none" stroke="black" d="M320.894,-959.387C313.107,-950.522 303.94,-940.085 295.785,-930.802"/>
<polygon fill="black" stroke="black" points="298.169,-928.212 288.94,-923.009 292.91,-932.832 298.169,-928.212"/>
</g>
<!-- FN_Sampling_rate -->
<g id="node18" class="node"><title>FN_Sampling_rate</title>
<path fill="#ffe4b5" stroke="black" d="M36.1851,-959.5C36.1851,-959.5 211.815,-959.5 211.815,-959.5 217.815,-959.5 223.815,-965.5 223.815,-971.5 223.815,-971.5 223.815,-990.5 223.815,-990.5 223.815,-996.5 217.815,-1002.5 211.815,-1002.5 211.815,-1002.5 36.1851,-1002.5 36.1851,-1002.5 30.1851,-1002.5 24.1851,-996.5 24.1851,-990.5 24.1851,-990.5 24.1851,-971.5 24.1851,-971.5 24.1851,-965.5 30.1851,-959.5 36.1851,-959.5"/>
<text text-anchor="middle" x="124" y="-991.3" font-family="Courier,monospace" font-weight="bold" font-size="9.00">[data15] FN_Sampling_rate</text>
<polyline fill="none" stroke="black" points="24.1851,-985.5 223.815,-985.5 "/>
<text text-anchor="start" x="32.1851" y="-974.3" font-family="Courier,monospace" font-weight="bold" font-size="9.00">H&#45;H1_LOSC_4_V1&#45;1126259446&#45;32.hdf5</text>
<text text-anchor="start" x="32.1851" y="-965.3" font-family="Courier,monospace" font-weight="bold" font-size="9.00">H&#45;H1_LOSC_16_V1&#45;1126259446&#45;32.hdf5</text>
</g>
<!-- FN_Sampling_rate&#45;&gt;LOAD_DATA -->
<g id="edge9" class="edge"><title>FN_Sampling_rate&#45;&gt;LOAD_DATA</title>
<path fill="none" stroke="black" d="M165.783,-959.387C185.93,-949.448 210.084,-937.532 230.456,-927.482"/>
<polygon fill="black" stroke="black" points="232.103,-930.572 239.522,-923.009 229.006,-924.294 232.103,-930.572"/>
</g>
<!-- shifted_wavefile_outflow -->
<g id="node24" class="node"><title>shifted_wavefile_outflow</title>
<ellipse fill="none" stroke="black" cx="229" cy="-31" rx="7" ry="7"/>
</g>
<!-- shifted_wavefile&#45;&gt;shifted_wavefile_outflow -->
<g id="edge28" class="edge"><title>shifted_wavefile&#45;&gt;shifted_wavefile_outflow</title>
<path fill="none" stroke="black" d="M229,-78.4928C229,-68.4125 229,-57.0761 229,-48.1211"/>
<polygon fill="black" stroke="black" points="232.5,-48.0267 229,-38.0267 225.5,-48.0268 232.5,-48.0267"/>
</g>
<!-- fs -->
<g id="node20" class="node"><title>fs</title>
<path fill="#ffffff" stroke="black" d="M422,-851C422,-851 392,-851 392,-851 386,-851 380,-845 380,-839 380,-839 380,-827 380,-827 380,-821 386,-815 392,-815 392,-815 422,-815 422,-815 428,-815 434,-821 434,-827 434,-827 434,-839 434,-839 434,-845 428,-851 422,-851"/>
<text text-anchor="middle" x="407" y="-830.3" font-family="Helvetica,sans-Serif" font-size="9.00">fs</text>
</g>
<!-- fs&#45;&gt;AMPLITUDE_SPECTRAL_DENSITY -->
<g id="edge12" class="edge"><title>fs&#45;&gt;AMPLITUDE_SPECTRAL_DENSITY</title>
<path fill="none" stroke="black" d="M385.247,-814.697C374.164,-805.881 360.526,-795.032 348.51,-785.474"/>
<polygon fill="black" stroke="black" points="350.507,-782.59 340.503,-779.104 346.15,-788.069 350.507,-782.59"/>
</g>
<!-- fs_inflow -->
<g id="node21" class="node"><title>fs_inflow</title>
<ellipse fill="none" stroke="black" cx="371" cy="-1050" rx="7" ry="7"/>
</g>
<!-- fs_inflow&#45;&gt;fs -->
<g id="edge25" class="edge"><title>fs_inflow&#45;&gt;fs</title>
<path fill="none" stroke="black" d="M378.313,-1048.58C393.784,-1047.26 429.665,-1041.76 445,-1019 478.016,-969.989 445.711,-898.295 423.694,-860.147"/>
<polygon fill="black" stroke="black" points="426.491,-858.004 418.365,-851.206 420.478,-861.588 426.491,-858.004"/>
</g>
<!-- FN_Detector_inflow -->
<g id="node22" class="node"><title>FN_Detector_inflow</title>
<ellipse fill="none" stroke="black" cx="339" cy="-1050" rx="7" ry="7"/>
</g>
<!-- FN_Detector_inflow&#45;&gt;FN_Detector -->
<g id="edge26" class="edge"><title>FN_Detector_inflow&#45;&gt;FN_Detector</title>
<path fill="none" stroke="black" d="M339,-1042.82C339,-1035.87 339,-1024.08 339,-1012.72"/>
<polygon fill="black" stroke="black" points="342.5,-1012.56 339,-1002.56 335.5,-1012.56 342.5,-1012.56"/>
</g>
<!-- FN_Sampling_rate_inflow -->
<g id="node23" class="node"><title>FN_Sampling_rate_inflow</title>
<ellipse fill="none" stroke="black" cx="307" cy="-1050" rx="7" ry="7"/>
</g>
<!-- FN_Sampling_rate_inflow&#45;&gt;FN_Sampling_rate -->
<g id="edge27" class="edge"><title>FN_Sampling_rate_inflow&#45;&gt;FN_Sampling_rate</title>
<path fill="none" stroke="black" d="M300.487,-1046.62C282.788,-1040.14 232.285,-1021.65 189.815,-1006.1"/>
<polygon fill="black" stroke="black" points="190.929,-1002.78 180.335,-1002.63 188.522,-1009.35 190.929,-1002.78"/>
</g>
</g>
</svg>
