<?xml version="1.0" encoding="UTF-8" standalone="no"?>
<!DOCTYPE svg PUBLIC "-//W3C//DTD SVG 1.1//EN"
 "http://www.w3.org/Graphics/SVG/1.1/DTD/svg11.dtd">
<!-- Generated by graphviz version 2.38.0 (20140413.2041)
 -->
<!-- Title: yw_data_view Pages: 1 -->
<svg width="468pt" height="756pt"
 viewBox="0.00 0.00 468.00 756.00" xmlns="http://www.w3.org/2000/svg" xmlns:xlink="http://www.w3.org/1999/xlink">
<g id="graph0" class="graph" transform="scale(1 1) rotate(0) translate(4 752)">
<title>yw_data_view</title>
<polygon fill="white" stroke="none" points="-4,4 -4,-752 464,-752 464,4 -4,4"/>
<text text-anchor="middle" x="230" y="-729.6" font-family="Courier,monospace" font-size="18.00">GRAVITATIONAL_WAVE_DETECTION</text>
<g id="clust1" class="cluster"><title>cluster_workflow</title>
<polygon fill="none" stroke="black" stroke-width="2" points="8,-8 8,-660 452,-660 452,-8 8,-8"/>
</g>
<g id="clust2" class="cluster"><title>cluster_workflow_inner</title>
<polygon fill="none" stroke="white" stroke-width="2" points="16,-16 16,-652 444,-652 444,-16 16,-16"/>
</g>
<g id="clust3" class="cluster"><title>cluster_inflows</title>
<polygon fill="none" stroke="white" stroke-width="2" points="284,-668 284,-714 394,-714 394,-668 284,-668"/>
</g>
<g id="clust4" class="cluster"><title>cluster_inflows_inner</title>
<polygon fill="none" stroke="white" stroke-width="2" points="292,-676 292,-706 386,-706 386,-676 292,-676"/>
</g>
<!-- WHITENING -->
<g id="node1" class="node"><title>WHITENING</title>
<polygon fill="#ccffcc" stroke="black" points="278.613,-276 187.387,-276 187.387,-240 278.613,-240 278.613,-276"/>
<text text-anchor="middle" x="233" y="-253.8" font-family="Courier,monospace" font-size="14.00">WHITENING</text>
</g>
<!-- strain_H1_whiten -->
<g id="node9" class="node"><title>strain_H1_whiten</title>
<path fill="#ffffcc" stroke="black" d="M213.172,-204C213.172,-204 112.828,-204 112.828,-204 106.828,-204 100.828,-198 100.828,-192 100.828,-192 100.828,-180 100.828,-180 100.828,-174 106.828,-168 112.828,-168 112.828,-168 213.172,-168 213.172,-168 219.172,-168 225.172,-174 225.172,-180 225.172,-180 225.172,-192 225.172,-192 225.172,-198 219.172,-204 213.172,-204"/>
<text text-anchor="middle" x="163" y="-181.8" font-family="Helvetica,sans-Serif" font-size="14.00">strain_H1_whiten</text>
</g>
<!-- WHITENING&#45;&gt;strain_H1_whiten -->
<g id="edge14" class="edge"><title>WHITENING&#45;&gt;strain_H1_whiten</title>
<path fill="none" stroke="black" d="M215.697,-239.697C207.135,-231.135 196.656,-220.656 187.304,-211.304"/>
<polygon fill="black" stroke="black" points="189.65,-208.701 180.104,-204.104 184.701,-213.65 189.65,-208.701"/>
</g>
<!-- strain_L1_whiten -->
<g id="node10" class="node"><title>strain_L1_whiten</title>
<path fill="#ffffcc" stroke="black" d="M352.848,-204C352.848,-204 255.152,-204 255.152,-204 249.152,-204 243.152,-198 243.152,-192 243.152,-192 243.152,-180 243.152,-180 243.152,-174 249.152,-168 255.152,-168 255.152,-168 352.848,-168 352.848,-168 358.848,-168 364.848,-174 364.848,-180 364.848,-180 364.848,-192 364.848,-192 364.848,-198 358.848,-204 352.848,-204"/>
<text text-anchor="middle" x="304" y="-181.8" font-family="Helvetica,sans-Serif" font-size="14.00">strain_L1_whiten</text>
</g>
<!-- WHITENING&#45;&gt;strain_L1_whiten -->
<g id="edge15" class="edge"><title>WHITENING&#45;&gt;strain_L1_whiten</title>
<path fill="none" stroke="black" d="M250.551,-239.697C259.234,-231.135 269.863,-220.656 279.348,-211.304"/>
<polygon fill="black" stroke="black" points="281.988,-213.617 286.651,-204.104 277.073,-208.633 281.988,-213.617"/>
</g>
<!-- AMPLITUDE_SPECTRAL_DENSITY -->
<g id="node2" class="node"><title>AMPLITUDE_SPECTRAL_DENSITY</title>
<polygon fill="#ccffcc" stroke="black" points="436.436,-420 201.564,-420 201.564,-384 436.436,-384 436.436,-420"/>
<text text-anchor="middle" x="319" y="-397.8" font-family="Courier,monospace" font-size="14.00">AMPLITUDE_SPECTRAL_DENSITY</text>
</g>
<!-- PSD_H1 -->
<g id="node7" class="node"><title>PSD_H1</title>
<path fill="#ffffcc" stroke="black" d="M255.47,-348C255.47,-348 208.53,-348 208.53,-348 202.53,-348 196.53,-342 196.53,-336 196.53,-336 196.53,-324 196.53,-324 196.53,-318 202.53,-312 208.53,-312 208.53,-312 255.47,-312 255.47,-312 261.47,-312 267.47,-318 267.47,-324 267.47,-324 267.47,-336 267.47,-336 267.47,-342 261.47,-348 255.47,-348"/>
<text text-anchor="middle" x="232" y="-325.8" font-family="Helvetica,sans-Serif" font-size="14.00">PSD_H1</text>
</g>
<!-- AMPLITUDE_SPECTRAL_DENSITY&#45;&gt;PSD_H1 -->
<g id="edge12" class="edge"><title>AMPLITUDE_SPECTRAL_DENSITY&#45;&gt;PSD_H1</title>
<path fill="none" stroke="black" d="M297.494,-383.697C286.537,-374.881 273.054,-364.032 261.175,-354.474"/>
<polygon fill="black" stroke="black" points="263.244,-351.646 253.258,-348.104 258.855,-357.1 263.244,-351.646"/>
</g>
<!-- PSD_L1 -->
<g id="node8" class="node"><title>PSD_L1</title>
<path fill="#ffffcc" stroke="black" d="M341.145,-348C341.145,-348 296.855,-348 296.855,-348 290.855,-348 284.855,-342 284.855,-336 284.855,-336 284.855,-324 284.855,-324 284.855,-318 290.855,-312 296.855,-312 296.855,-312 341.145,-312 341.145,-312 347.145,-312 353.145,-318 353.145,-324 353.145,-324 353.145,-336 353.145,-336 353.145,-342 347.145,-348 341.145,-348"/>
<text text-anchor="middle" x="319" y="-325.8" font-family="Helvetica,sans-Serif" font-size="14.00">PSD_L1</text>
</g>
<!-- AMPLITUDE_SPECTRAL_DENSITY&#45;&gt;PSD_L1 -->
<g id="edge13" class="edge"><title>AMPLITUDE_SPECTRAL_DENSITY&#45;&gt;PSD_L1</title>
<path fill="none" stroke="black" d="M319,-383.697C319,-375.983 319,-366.712 319,-358.112"/>
<polygon fill="black" stroke="black" points="322.5,-358.104 319,-348.104 315.5,-358.104 322.5,-358.104"/>
</g>
<!-- LOAD_DATA -->
<g id="node3" class="node"><title>LOAD_DATA</title>
<polygon fill="#ccffcc" stroke="black" points="319.613,-564 228.387,-564 228.387,-528 319.613,-528 319.613,-564"/>
<text text-anchor="middle" x="274" y="-541.8" font-family="Courier,monospace" font-size="14.00">LOAD_DATA</text>
</g>
<!-- strain_H1 -->
<g id="node5" class="node"><title>strain_H1</title>
<path fill="#ffffcc" stroke="black" d="M253.917,-492C253.917,-492 202.083,-492 202.083,-492 196.083,-492 190.083,-486 190.083,-480 190.083,-480 190.083,-468 190.083,-468 190.083,-462 196.083,-456 202.083,-456 202.083,-456 253.917,-456 253.917,-456 259.917,-456 265.917,-462 265.917,-468 265.917,-468 265.917,-480 265.917,-480 265.917,-486 259.917,-492 253.917,-492"/>
<text text-anchor="middle" x="228" y="-469.8" font-family="Helvetica,sans-Serif" font-size="14.00">strain_H1</text>
</g>
<!-- LOAD_DATA&#45;&gt;strain_H1 -->
<g id="edge10" class="edge"><title>LOAD_DATA&#45;&gt;strain_H1</title>
<path fill="none" stroke="black" d="M262.629,-527.697C257.282,-519.559 250.796,-509.689 244.889,-500.701"/>
<polygon fill="black" stroke="black" points="247.657,-498.539 239.24,-492.104 241.807,-502.384 247.657,-498.539"/>
</g>
<!-- strain_L1 -->
<g id="node6" class="node"><title>strain_L1</title>
<path fill="#ffffcc" stroke="black" d="M345.594,-492C345.594,-492 296.406,-492 296.406,-492 290.406,-492 284.406,-486 284.406,-480 284.406,-480 284.406,-468 284.406,-468 284.406,-462 290.406,-456 296.406,-456 296.406,-456 345.594,-456 345.594,-456 351.594,-456 357.594,-462 357.594,-468 357.594,-468 357.594,-480 357.594,-480 357.594,-486 351.594,-492 345.594,-492"/>
<text text-anchor="middle" x="321" y="-469.8" font-family="Helvetica,sans-Serif" font-size="14.00">strain_L1</text>
</g>
<!-- LOAD_DATA&#45;&gt;strain_L1 -->
<g id="edge11" class="edge"><title>LOAD_DATA&#45;&gt;strain_L1</title>
<path fill="none" stroke="black" d="M285.618,-527.697C291.139,-519.474 297.847,-509.483 303.932,-500.421"/>
<polygon fill="black" stroke="black" points="306.847,-502.358 309.516,-492.104 301.035,-498.456 306.847,-502.358"/>
</g>
<!-- BANDPASSING -->
<g id="node4" class="node"><title>BANDPASSING</title>
<polygon fill="#ccffcc" stroke="black" points="217.416,-132 108.584,-132 108.584,-96 217.416,-96 217.416,-132"/>
<text text-anchor="middle" x="163" y="-109.8" font-family="Courier,monospace" font-size="14.00">BANDPASSING</text>
</g>
<!-- strain_L1_whitenbp -->
<g id="node11" class="node"><title>strain_L1_whitenbp</title>
<path fill="#ffffcc" stroke="black" d="M219.921,-60C219.921,-60 106.079,-60 106.079,-60 100.079,-60 94.0794,-54 94.0794,-48 94.0794,-48 94.0794,-36 94.0794,-36 94.0794,-30 100.079,-24 106.079,-24 106.079,-24 219.921,-24 219.921,-24 225.921,-24 231.921,-30 231.921,-36 231.921,-36 231.921,-48 231.921,-48 231.921,-54 225.921,-60 219.921,-60"/>
<text text-anchor="middle" x="163" y="-37.8" font-family="Helvetica,sans-Serif" font-size="14.00">strain_L1_whitenbp</text>
</g>
<!-- BANDPASSING&#45;&gt;strain_L1_whitenbp -->
<g id="edge16" class="edge"><title>BANDPASSING&#45;&gt;strain_L1_whitenbp</title>
<path fill="none" stroke="black" d="M163,-95.6966C163,-87.9827 163,-78.7125 163,-70.1124"/>
<polygon fill="black" stroke="black" points="166.5,-70.1043 163,-60.1043 159.5,-70.1044 166.5,-70.1043"/>
</g>
<!-- strain_H1&#45;&gt;AMPLITUDE_SPECTRAL_DENSITY -->
<g id="edge9" class="edge"><title>strain_H1&#45;&gt;AMPLITUDE_SPECTRAL_DENSITY</title>
<path fill="none" stroke="black" d="M250.494,-455.697C261.955,-446.881 276.058,-436.032 288.484,-426.474"/>
<polygon fill="black" stroke="black" points="290.972,-428.976 296.764,-420.104 286.704,-423.427 290.972,-428.976"/>
</g>
<!-- strain_L1&#45;&gt;AMPLITUDE_SPECTRAL_DENSITY -->
<g id="edge2" class="edge"><title>strain_L1&#45;&gt;AMPLITUDE_SPECTRAL_DENSITY</title>
<path fill="none" stroke="black" d="M320.506,-455.697C320.285,-447.983 320.02,-438.712 319.775,-430.112"/>
<polygon fill="black" stroke="black" points="323.273,-430 319.489,-420.104 316.276,-430.2 323.273,-430"/>
</g>
<!-- PSD_H1&#45;&gt;WHITENING -->
<g id="edge6" class="edge"><title>PSD_H1&#45;&gt;WHITENING</title>
<path fill="none" stroke="black" d="M232.247,-311.697C232.357,-303.983 232.49,-294.712 232.613,-286.112"/>
<polygon fill="black" stroke="black" points="236.112,-286.153 232.756,-276.104 229.113,-286.053 236.112,-286.153"/>
</g>
<!-- PSD_L1&#45;&gt;WHITENING -->
<g id="edge7" class="edge"><title>PSD_L1&#45;&gt;WHITENING</title>
<path fill="none" stroke="black" d="M297.742,-311.697C286.911,-302.881 273.582,-292.032 261.84,-282.474"/>
<polygon fill="black" stroke="black" points="263.979,-279.703 254.014,-276.104 259.56,-285.132 263.979,-279.703"/>
</g>
<!-- strain_H1_whiten&#45;&gt;BANDPASSING -->
<g id="edge1" class="edge"><title>strain_H1_whiten&#45;&gt;BANDPASSING</title>
<path fill="none" stroke="black" d="M163,-167.697C163,-159.983 163,-150.712 163,-142.112"/>
<polygon fill="black" stroke="black" points="166.5,-142.104 163,-132.104 159.5,-142.104 166.5,-142.104"/>
</g>
<!-- strain_L1_whiten&#45;&gt;BANDPASSING -->
<g id="edge3" class="edge"><title>strain_L1_whiten&#45;&gt;BANDPASSING</title>
<path fill="none" stroke="black" d="M269.508,-167.876C250.56,-158.469 226.868,-146.708 206.644,-136.667"/>
<polygon fill="black" stroke="black" points="208.138,-133.502 197.625,-132.19 205.026,-139.771 208.138,-133.502"/>
</g>
<!-- FN_Detector -->
<g id="node12" class="node"><title>FN_Detector</title>
<path fill="#ffe4b5" stroke="black" d="M253.885,-600.5C253.885,-600.5 424.115,-600.5 424.115,-600.5 430.115,-600.5 436.115,-606.5 436.115,-612.5 436.115,-612.5 436.115,-631.5 436.115,-631.5 436.115,-637.5 430.115,-643.5 424.115,-643.5 424.115,-643.5 253.885,-643.5 253.885,-643.5 247.885,-643.5 241.885,-637.5 241.885,-631.5 241.885,-631.5 241.885,-612.5 241.885,-612.5 241.885,-606.5 247.885,-600.5 253.885,-600.5"/>
<text text-anchor="middle" x="339" y="-632.3" font-family="Courier,monospace" font-weight="bold" font-size="9.00">[data14] FN_Detector</text>
<polyline fill="none" stroke="black" points="241.885,-626.5 436.115,-626.5 "/>
<text text-anchor="start" x="249.885" y="-615.3" font-family="Courier,monospace" font-weight="bold" font-size="9.00">L&#45;L1_LOSC_4_V1&#45;1126259446&#45;32.hdf5</text>
<text text-anchor="start" x="249.885" y="-606.3" font-family="Courier,monospace" font-weight="bold" font-size="9.00">H&#45;H1_LOSC_4_V1&#45;1126259446&#45;32.hdf5</text>
</g>
<!-- FN_Detector&#45;&gt;LOAD_DATA -->
<g id="edge4" class="edge"><title>FN_Detector&#45;&gt;LOAD_DATA</title>
<path fill="none" stroke="black" d="M320.894,-600.387C313.107,-591.522 303.94,-581.085 295.785,-571.802"/>
<polygon fill="black" stroke="black" points="298.169,-569.212 288.94,-564.009 292.91,-573.832 298.169,-569.212"/>
</g>
<!-- FN_Sampling_rate -->
<g id="node13" class="node"><title>FN_Sampling_rate</title>
<path fill="#ffe4b5" stroke="black" d="M36.1851,-600.5C36.1851,-600.5 211.815,-600.5 211.815,-600.5 217.815,-600.5 223.815,-606.5 223.815,-612.5 223.815,-612.5 223.815,-631.5 223.815,-631.5 223.815,-637.5 217.815,-643.5 211.815,-643.5 211.815,-643.5 36.1851,-643.5 36.1851,-643.5 30.1851,-643.5 24.1851,-637.5 24.1851,-631.5 24.1851,-631.5 24.1851,-612.5 24.1851,-612.5 24.1851,-606.5 30.1851,-600.5 36.1851,-600.5"/>
<text text-anchor="middle" x="124" y="-632.3" font-family="Courier,monospace" font-weight="bold" font-size="9.00">[data15] FN_Sampling_rate</text>
<polyline fill="none" stroke="black" points="24.1851,-626.5 223.815,-626.5 "/>
<text text-anchor="start" x="32.1851" y="-615.3" font-family="Courier,monospace" font-weight="bold" font-size="9.00">H&#45;H1_LOSC_4_V1&#45;1126259446&#45;32.hdf5</text>
<text text-anchor="start" x="32.1851" y="-606.3" font-family="Courier,monospace" font-weight="bold" font-size="9.00">H&#45;H1_LOSC_16_V1&#45;1126259446&#45;32.hdf5</text>
</g>
<!-- FN_Sampling_rate&#45;&gt;LOAD_DATA -->
<g id="edge5" class="edge"><title>FN_Sampling_rate&#45;&gt;LOAD_DATA</title>
<path fill="none" stroke="black" d="M165.783,-600.387C185.93,-590.448 210.084,-578.532 230.456,-568.482"/>
<polygon fill="black" stroke="black" points="232.103,-571.572 239.522,-564.009 229.006,-565.294 232.103,-571.572"/>
</g>
<!-- fs -->
<g id="node14" class="node"><title>fs</title>
<path fill="#ffffff" stroke="black" d="M422,-492C422,-492 392,-492 392,-492 386,-492 380,-486 380,-480 380,-480 380,-468 380,-468 380,-462 386,-456 392,-456 392,-456 422,-456 422,-456 428,-456 434,-462 434,-468 434,-468 434,-480 434,-480 434,-486 428,-492 422,-492"/>
<text text-anchor="middle" x="407" y="-471.3" font-family="Helvetica,sans-Serif" font-size="9.00">fs</text>
</g>
<!-- fs&#45;&gt;AMPLITUDE_SPECTRAL_DENSITY -->
<g id="edge8" class="edge"><title>fs&#45;&gt;AMPLITUDE_SPECTRAL_DENSITY</title>
<path fill="none" stroke="black" d="M385.247,-455.697C374.164,-446.881 360.526,-436.032 348.51,-426.474"/>
<polygon fill="black" stroke="black" points="350.507,-423.59 340.503,-420.104 346.15,-429.069 350.507,-423.59"/>
</g>
<!-- fs_inflow -->
<g id="node15" class="node"><title>fs_inflow</title>
<ellipse fill="none" stroke="black" cx="371" cy="-691" rx="7" ry="7"/>
</g>
<!-- fs_inflow&#45;&gt;fs -->
<g id="edge17" class="edge"><title>fs_inflow&#45;&gt;fs</title>
<path fill="none" stroke="black" d="M378.313,-689.584C393.784,-688.261 429.665,-682.765 445,-660 478.016,-610.989 445.711,-539.295 423.694,-501.147"/>
<polygon fill="black" stroke="black" points="426.491,-499.004 418.365,-492.206 420.478,-502.588 426.491,-499.004"/>
</g>
<!-- FN_Detector_inflow -->
<g id="node16" class="node"><title>FN_Detector_inflow</title>
<ellipse fill="none" stroke="black" cx="339" cy="-691" rx="7" ry="7"/>
</g>
<!-- FN_Detector_inflow&#45;&gt;FN_Detector -->
<g id="edge18" class="edge"><title>FN_Detector_inflow&#45;&gt;FN_Detector</title>
<path fill="none" stroke="black" d="M339,-683.817C339,-676.872 339,-665.081 339,-653.72"/>
<polygon fill="black" stroke="black" points="342.5,-653.558 339,-643.558 335.5,-653.558 342.5,-653.558"/>
</g>
<!-- FN_Sampling_rate_inflow -->
<g id="node17" class="node"><title>FN_Sampling_rate_inflow</title>
<ellipse fill="none" stroke="black" cx="307" cy="-691" rx="7" ry="7"/>
</g>
<!-- FN_Sampling_rate_inflow&#45;&gt;FN_Sampling_rate -->
<g id="edge19" class="edge"><title>FN_Sampling_rate_inflow&#45;&gt;FN_Sampling_rate</title>
<path fill="none" stroke="black" d="M300.487,-687.615C282.788,-681.135 232.285,-662.645 189.815,-647.096"/>
<polygon fill="black" stroke="black" points="190.929,-643.777 180.335,-643.625 188.522,-650.35 190.929,-643.777"/>
</g>
</g>
</svg>
