<?xml version="1.0" encoding="UTF-8" standalone="no"?>
<!DOCTYPE svg PUBLIC "-//W3C//DTD SVG 1.1//EN"
 "http://www.w3.org/Graphics/SVG/1.1/DTD/svg11.dtd">
<!-- Generated by graphviz version 2.38.0 (20140413.2041)
 -->
<!-- Title: yw_data_view Pages: 1 -->
<svg width="326pt" height="514pt"
 viewBox="0.00 0.00 326.45 514.00" xmlns="http://www.w3.org/2000/svg" xmlns:xlink="http://www.w3.org/1999/xlink">
<g id="graph0" class="graph" transform="scale(1 1) rotate(0) translate(4 510)">
<title>yw_data_view</title>
<polygon fill="white" stroke="none" points="-4,4 -4,-510 322.449,-510 322.449,4 -4,4"/>
<text text-anchor="middle" x="159.225" y="-487.6" font-family="Courier,monospace" font-size="18.00">GRAVITATIONAL_WAVE_DETECTION</text>
<g id="clust1" class="cluster"><title>cluster_workflow</title>
<polygon fill="none" stroke="black" stroke-width="2" points="20.2246,-62 20.2246,-418 298.225,-418 298.225,-62 20.2246,-62"/>
</g>
<g id="clust2" class="cluster"><title>cluster_workflow_inner</title>
<polygon fill="none" stroke="white" stroke-width="2" points="28.2246,-70 28.2246,-410 290.225,-410 290.225,-70 28.2246,-70"/>
</g>
<g id="clust3" class="cluster"><title>cluster_inflows</title>
<polygon fill="none" stroke="white" stroke-width="2" points="129.225,-426 129.225,-472 207.225,-472 207.225,-426 129.225,-426"/>
</g>
<g id="clust4" class="cluster"><title>cluster_inflows_inner</title>
<polygon fill="none" stroke="white" stroke-width="2" points="137.225,-434 137.225,-464 199.225,-464 199.225,-434 137.225,-434"/>
</g>
<g id="clust5" class="cluster"><title>cluster_outflows</title>
<polygon fill="none" stroke="white" stroke-width="2" points="128.225,-8 128.225,-54 174.225,-54 174.225,-8 128.225,-8"/>
</g>
<g id="clust6" class="cluster"><title>cluster_outflows_inner</title>
<polygon fill="none" stroke="white" stroke-width="2" points="136.225,-16 136.225,-46 166.225,-46 166.225,-16 136.225,-16"/>
</g>
<!-- LOAD_DATA -->
<g id="node1" class="node"><title>LOAD_DATA</title>
<polygon fill="#ccffcc" stroke="black" points="176.838,-330 85.6115,-330 85.6115,-294 176.838,-294 176.838,-330"/>
<text text-anchor="middle" x="131.225" y="-307.8" font-family="Courier,monospace" font-size="14.00">LOAD_DATA</text>
</g>
<!-- strain_16 -->
<g id="node5" class="node"><title>strain_16</title>
<path fill="#ffffcc" stroke="black" d="M120.819,-258C120.819,-258 71.6307,-258 71.6307,-258 65.6307,-258 59.6307,-252 59.6307,-246 59.6307,-246 59.6307,-234 59.6307,-234 59.6307,-228 65.6307,-222 71.6307,-222 71.6307,-222 120.819,-222 120.819,-222 126.819,-222 132.819,-228 132.819,-234 132.819,-234 132.819,-246 132.819,-246 132.819,-252 126.819,-258 120.819,-258"/>
<text text-anchor="middle" x="96.2246" y="-235.8" font-family="Helvetica,sans-Serif" font-size="14.00">strain_16</text>
</g>
<!-- LOAD_DATA&#45;&gt;strain_16 -->
<g id="edge5" class="edge"><title>LOAD_DATA&#45;&gt;strain_16</title>
<path fill="none" stroke="black" d="M122.573,-293.697C118.589,-285.728 113.774,-276.1 109.357,-267.264"/>
<polygon fill="black" stroke="black" points="112.379,-265.483 104.777,-258.104 106.118,-268.614 112.379,-265.483"/>
</g>
<!-- strain_4 -->
<g id="node6" class="node"><title>strain_4</title>
<path fill="#ffffcc" stroke="black" d="M205.032,-258C205.032,-258 163.418,-258 163.418,-258 157.418,-258 151.418,-252 151.418,-246 151.418,-246 151.418,-234 151.418,-234 151.418,-228 157.418,-222 163.418,-222 163.418,-222 205.032,-222 205.032,-222 211.032,-222 217.032,-228 217.032,-234 217.032,-234 217.032,-246 217.032,-246 217.032,-252 211.032,-258 205.032,-258"/>
<text text-anchor="middle" x="184.225" y="-235.8" font-family="Helvetica,sans-Serif" font-size="14.00">strain_4</text>
</g>
<!-- LOAD_DATA&#45;&gt;strain_4 -->
<g id="edge6" class="edge"><title>LOAD_DATA&#45;&gt;strain_4</title>
<path fill="none" stroke="black" d="M144.326,-293.697C150.616,-285.389 158.272,-275.277 165.19,-266.141"/>
<polygon fill="black" stroke="black" points="168.028,-268.19 171.274,-258.104 162.447,-263.964 168.028,-268.19"/>
</g>
<!-- DOWNSAMPLING -->
<g id="node2" class="node"><title>DOWNSAMPLING</title>
<polygon fill="#ccffcc" stroke="black" points="209.541,-186 92.9081,-186 92.9081,-150 209.541,-150 209.541,-186"/>
<text text-anchor="middle" x="151.225" y="-163.8" font-family="Courier,monospace" font-size="14.00">DOWNSAMPLING</text>
</g>
<!-- H1_ASD_SamplingRate -->
<g id="node7" class="node"><title>H1_ASD_SamplingRate</title>
<path fill="#ffffcc" stroke="black" d="M222.417,-114C222.417,-114 80.0321,-114 80.0321,-114 74.0321,-114 68.0321,-108 68.0321,-102 68.0321,-102 68.0321,-90 68.0321,-90 68.0321,-84 74.0321,-78 80.0321,-78 80.0321,-78 222.417,-78 222.417,-78 228.417,-78 234.417,-84 234.417,-90 234.417,-90 234.417,-102 234.417,-102 234.417,-108 228.417,-114 222.417,-114"/>
<text text-anchor="middle" x="151.225" y="-91.8" font-family="Helvetica,sans-Serif" font-size="14.00">H1_ASD_SamplingRate</text>
</g>
<!-- DOWNSAMPLING&#45;&gt;H1_ASD_SamplingRate -->
<g id="edge7" class="edge"><title>DOWNSAMPLING&#45;&gt;H1_ASD_SamplingRate</title>
<path fill="none" stroke="black" d="M151.225,-149.697C151.225,-141.983 151.225,-132.712 151.225,-124.112"/>
<polygon fill="black" stroke="black" points="154.725,-124.104 151.225,-114.104 147.725,-124.104 154.725,-124.104"/>
</g>
<!-- FN_Detector -->
<g id="node3" class="node"><title>FN_Detector</title>
<path fill="#ffffcc" stroke="black" d="M270.084,-402C270.084,-402 198.366,-402 198.366,-402 192.366,-402 186.366,-396 186.366,-390 186.366,-390 186.366,-378 186.366,-378 186.366,-372 192.366,-366 198.366,-366 198.366,-366 270.084,-366 270.084,-366 276.084,-366 282.084,-372 282.084,-378 282.084,-378 282.084,-390 282.084,-390 282.084,-396 276.084,-402 270.084,-402"/>
<text text-anchor="middle" x="234.225" y="-379.8" font-family="Helvetica,sans-Serif" font-size="14.00">FN_Detector</text>
</g>
<!-- FN_Detector&#45;&gt;LOAD_DATA -->
<g id="edge4" class="edge"><title>FN_Detector&#45;&gt;LOAD_DATA</title>
<path fill="none" stroke="black" d="M209.028,-365.876C195.81,-356.893 179.432,-345.763 165.118,-336.034"/>
<polygon fill="black" stroke="black" points="166.756,-332.916 156.518,-330.19 162.822,-338.705 166.756,-332.916"/>
</g>
<!-- FN_Sampling_rate -->
<g id="node4" class="node"><title>FN_Sampling_rate</title>
<path fill="#ffffcc" stroke="black" d="M156.449,-402C156.449,-402 48.0007,-402 48.0007,-402 42.0007,-402 36.0007,-396 36.0007,-390 36.0007,-390 36.0007,-378 36.0007,-378 36.0007,-372 42.0007,-366 48.0007,-366 48.0007,-366 156.449,-366 156.449,-366 162.449,-366 168.449,-372 168.449,-378 168.449,-378 168.449,-390 168.449,-390 168.449,-396 162.449,-402 156.449,-402"/>
<text text-anchor="middle" x="102.225" y="-379.8" font-family="Helvetica,sans-Serif" font-size="14.00">FN_Sampling_rate</text>
</g>
<!-- FN_Sampling_rate&#45;&gt;LOAD_DATA -->
<g id="edge3" class="edge"><title>FN_Sampling_rate&#45;&gt;LOAD_DATA</title>
<path fill="none" stroke="black" d="M109.393,-365.697C112.659,-357.813 116.599,-348.304 120.227,-339.546"/>
<polygon fill="black" stroke="black" points="123.545,-340.683 124.139,-330.104 117.078,-338.003 123.545,-340.683"/>
</g>
<!-- strain_16&#45;&gt;DOWNSAMPLING -->
<g id="edge2" class="edge"><title>strain_16&#45;&gt;DOWNSAMPLING</title>
<path fill="none" stroke="black" d="M109.82,-221.697C116.347,-213.389 124.293,-203.277 131.471,-194.141"/>
<polygon fill="black" stroke="black" points="134.359,-196.13 137.785,-186.104 128.855,-191.805 134.359,-196.13"/>
</g>
<!-- strain_4&#45;&gt;DOWNSAMPLING -->
<g id="edge1" class="edge"><title>strain_4&#45;&gt;DOWNSAMPLING</title>
<path fill="none" stroke="black" d="M176.067,-221.697C172.311,-213.728 167.772,-204.1 163.606,-195.264"/>
<polygon fill="black" stroke="black" points="166.718,-193.657 159.288,-186.104 160.386,-196.642 166.718,-193.657"/>
</g>
<!-- H1_ASD_SamplingRate_outflow -->
<g id="node10" class="node"><title>H1_ASD_SamplingRate_outflow</title>
<ellipse fill="none" stroke="black" cx="151.225" cy="-31" rx="7" ry="7"/>
</g>
<!-- H1_ASD_SamplingRate&#45;&gt;H1_ASD_SamplingRate_outflow -->
<g id="edge10" class="edge"><title>H1_ASD_SamplingRate&#45;&gt;H1_ASD_SamplingRate_outflow</title>
<path fill="none" stroke="black" d="M151.225,-77.785C151.225,-68.6656 151.225,-57.5197 151.225,-48.5085"/>
<polygon fill="black" stroke="black" points="154.725,-48.242 151.225,-38.242 147.725,-48.2421 154.725,-48.242"/>
</g>
<!-- FN_Detector_inflow -->
<g id="node8" class="node"><title>FN_Detector_inflow</title>
<ellipse fill="none" stroke="black" cx="184.225" cy="-449" rx="7" ry="7"/>
</g>
<!-- FN_Detector_inflow&#45;&gt;FN_Detector -->
<g id="edge8" class="edge"><title>FN_Detector_inflow&#45;&gt;FN_Detector</title>
<path fill="none" stroke="black" d="M188.148,-443.056C193.76,-435.986 204.471,-422.489 214.155,-410.288"/>
<polygon fill="black" stroke="black" points="217.145,-412.151 220.62,-402.142 211.662,-407.799 217.145,-412.151"/>
</g>
<!-- FN_Sampling_rate_inflow -->
<g id="node9" class="node"><title>FN_Sampling_rate_inflow</title>
<ellipse fill="none" stroke="black" cx="152.225" cy="-449" rx="7" ry="7"/>
</g>
<!-- FN_Sampling_rate_inflow&#45;&gt;FN_Sampling_rate -->
<g id="edge9" class="edge"><title>FN_Sampling_rate_inflow&#45;&gt;FN_Sampling_rate</title>
<path fill="none" stroke="black" d="M148.301,-443.056C142.69,-435.986 131.978,-422.489 122.294,-410.288"/>
<polygon fill="black" stroke="black" points="124.788,-407.799 115.83,-402.142 119.305,-412.151 124.788,-407.799"/>
</g>
</g>
</svg>
