<?xml version="1.0" encoding="UTF-8" standalone="no"?>
<!DOCTYPE svg PUBLIC "-//W3C//DTD SVG 1.1//EN"
 "http://www.w3.org/Graphics/SVG/1.1/DTD/svg11.dtd">
<!-- Generated by graphviz version 2.38.0 (20140413.2041)
 -->
<!-- Title: yw_data_view Pages: 1 -->
<svg width="326pt" height="514pt"
 viewBox="0.00 0.00 326.45 514.00" xmlns="http://www.w3.org/2000/svg" xmlns:xlink="http://www.w3.org/1999/xlink">
<g id="graph0" class="graph" transform="scale(1 1) rotate(0) translate(4 510)">
<title>yw_data_view</title>
<polygon fill="white" stroke="none" points="-4,4 -4,-510 322.449,-510 322.449,4 -4,4"/>
<text text-anchor="middle" x="159.225" y="-487.6" font-family="Courier,monospace" font-size="18.00">GRAVITATIONAL_WAVE_DETECTION</text>
<g id="clust1" class="cluster"><title>cluster_workflow</title>
<polygon fill="none" stroke="black" stroke-width="2" points="20.2246,-62 20.2246,-418 298.225,-418 298.225,-62 20.2246,-62"/>
</g>
<g id="clust2" class="cluster"><title>cluster_workflow_inner</title>
<polygon fill="none" stroke="white" stroke-width="2" points="28.2246,-70 28.2246,-410 290.225,-410 290.225,-70 28.2246,-70"/>
</g>
<g id="clust3" class="cluster"><title>cluster_inflows</title>
<polygon fill="none" stroke="white" stroke-width="2" points="179.225,-426 179.225,-472 289.225,-472 289.225,-426 179.225,-426"/>
</g>
<g id="clust4" class="cluster"><title>cluster_inflows_inner</title>
<polygon fill="none" stroke="white" stroke-width="2" points="187.225,-434 187.225,-464 281.225,-464 281.225,-434 187.225,-434"/>
</g>
<g id="clust5" class="cluster"><title>cluster_outflows</title>
<polygon fill="none" stroke="white" stroke-width="2" points="142.225,-8 142.225,-54 188.225,-54 188.225,-8 142.225,-8"/>
</g>
<g id="clust6" class="cluster"><title>cluster_outflows_inner</title>
<polygon fill="none" stroke="white" stroke-width="2" points="150.225,-16 150.225,-46 180.225,-46 180.225,-16 150.225,-16"/>
</g>
<!-- LOAD_DATA -->
<g id="node1" class="node"><title>LOAD_DATA</title>
<polygon fill="#ccffcc" stroke="black" points="179.838,-330 88.6115,-330 88.6115,-294 179.838,-294 179.838,-330"/>
<text text-anchor="middle" x="134.225" y="-307.8" font-family="Courier,monospace" font-size="14.00">LOAD_DATA</text>
</g>
<!-- strain_H1 -->
<g id="node5" class="node"><title>strain_H1</title>
<path fill="#ffffcc" stroke="black" d="M103.142,-258C103.142,-258 51.3076,-258 51.3076,-258 45.3076,-258 39.3076,-252 39.3076,-246 39.3076,-246 39.3076,-234 39.3076,-234 39.3076,-228 45.3076,-222 51.3076,-222 51.3076,-222 103.142,-222 103.142,-222 109.142,-222 115.142,-228 115.142,-234 115.142,-234 115.142,-246 115.142,-246 115.142,-252 109.142,-258 103.142,-258"/>
<text text-anchor="middle" x="77.2246" y="-235.8" font-family="Helvetica,sans-Serif" font-size="14.00">strain_H1</text>
</g>
<!-- LOAD_DATA&#45;&gt;strain_H1 -->
<g id="edge6" class="edge"><title>LOAD_DATA&#45;&gt;strain_H1</title>
<path fill="none" stroke="black" d="M120.135,-293.697C113.301,-285.305 104.968,-275.07 97.4688,-265.861"/>
<polygon fill="black" stroke="black" points="100.181,-263.649 91.1524,-258.104 94.7527,-268.069 100.181,-263.649"/>
</g>
<!-- strain_L1 -->
<g id="node6" class="node"><title>strain_L1</title>
<path fill="#ffffcc" stroke="black" d="M194.819,-258C194.819,-258 145.631,-258 145.631,-258 139.631,-258 133.631,-252 133.631,-246 133.631,-246 133.631,-234 133.631,-234 133.631,-228 139.631,-222 145.631,-222 145.631,-222 194.819,-222 194.819,-222 200.819,-222 206.819,-228 206.819,-234 206.819,-234 206.819,-246 206.819,-246 206.819,-252 200.819,-258 194.819,-258"/>
<text text-anchor="middle" x="170.225" y="-235.8" font-family="Helvetica,sans-Serif" font-size="14.00">strain_L1</text>
</g>
<!-- LOAD_DATA&#45;&gt;strain_L1 -->
<g id="edge7" class="edge"><title>LOAD_DATA&#45;&gt;strain_L1</title>
<path fill="none" stroke="black" d="M143.123,-293.697C147.221,-285.728 152.173,-276.1 156.717,-267.264"/>
<polygon fill="black" stroke="black" points="159.967,-268.598 161.428,-258.104 153.742,-265.396 159.967,-268.598"/>
</g>
<!-- AMPLITUDE_SPECTRAL_DENSITY -->
<g id="node2" class="node"><title>AMPLITUDE_SPECTRAL_DENSITY</title>
<polygon fill="#ccffcc" stroke="black" points="282.661,-186 47.7887,-186 47.7887,-150 282.661,-150 282.661,-186"/>
<text text-anchor="middle" x="165.225" y="-163.8" font-family="Courier,monospace" font-size="14.00">AMPLITUDE_SPECTRAL_DENSITY</text>
</g>
<!-- ASDs -->
<g id="node7" class="node"><title>ASDs</title>
<path fill="#ffffcc" stroke="black" d="M180.225,-114C180.225,-114 150.225,-114 150.225,-114 144.225,-114 138.225,-108 138.225,-102 138.225,-102 138.225,-90 138.225,-90 138.225,-84 144.225,-78 150.225,-78 150.225,-78 180.225,-78 180.225,-78 186.225,-78 192.225,-84 192.225,-90 192.225,-90 192.225,-102 192.225,-102 192.225,-108 186.225,-114 180.225,-114"/>
<text text-anchor="middle" x="165.225" y="-91.8" font-family="Helvetica,sans-Serif" font-size="14.00">ASDs</text>
</g>
<!-- AMPLITUDE_SPECTRAL_DENSITY&#45;&gt;ASDs -->
<g id="edge8" class="edge"><title>AMPLITUDE_SPECTRAL_DENSITY&#45;&gt;ASDs</title>
<path fill="none" stroke="black" d="M165.225,-149.697C165.225,-141.983 165.225,-132.712 165.225,-124.112"/>
<polygon fill="black" stroke="black" points="168.725,-124.104 165.225,-114.104 161.725,-124.104 168.725,-124.104"/>
</g>
<!-- FN_Detector -->
<g id="node3" class="node"><title>FN_Detector</title>
<path fill="#ffffcc" stroke="black" d="M270.084,-402C270.084,-402 198.366,-402 198.366,-402 192.366,-402 186.366,-396 186.366,-390 186.366,-390 186.366,-378 186.366,-378 186.366,-372 192.366,-366 198.366,-366 198.366,-366 270.084,-366 270.084,-366 276.084,-366 282.084,-372 282.084,-378 282.084,-378 282.084,-390 282.084,-390 282.084,-396 276.084,-402 270.084,-402"/>
<text text-anchor="middle" x="234.225" y="-379.8" font-family="Helvetica,sans-Serif" font-size="14.00">FN_Detector</text>
</g>
<!-- FN_Detector&#45;&gt;LOAD_DATA -->
<g id="edge5" class="edge"><title>FN_Detector&#45;&gt;LOAD_DATA</title>
<path fill="none" stroke="black" d="M209.762,-365.876C196.929,-356.893 181.028,-345.763 167.131,-336.034"/>
<polygon fill="black" stroke="black" points="168.981,-333.057 158.781,-330.19 164.967,-338.792 168.981,-333.057"/>
</g>
<!-- FN_Sampling_rate -->
<g id="node4" class="node"><title>FN_Sampling_rate</title>
<path fill="#ffffcc" stroke="black" d="M156.449,-402C156.449,-402 48.0007,-402 48.0007,-402 42.0007,-402 36.0007,-396 36.0007,-390 36.0007,-390 36.0007,-378 36.0007,-378 36.0007,-372 42.0007,-366 48.0007,-366 48.0007,-366 156.449,-366 156.449,-366 162.449,-366 168.449,-372 168.449,-378 168.449,-378 168.449,-390 168.449,-390 168.449,-396 162.449,-402 156.449,-402"/>
<text text-anchor="middle" x="102.225" y="-379.8" font-family="Helvetica,sans-Serif" font-size="14.00">FN_Sampling_rate</text>
</g>
<!-- FN_Sampling_rate&#45;&gt;LOAD_DATA -->
<g id="edge4" class="edge"><title>FN_Sampling_rate&#45;&gt;LOAD_DATA</title>
<path fill="none" stroke="black" d="M110.135,-365.697C113.777,-357.728 118.179,-348.1 122.218,-339.264"/>
<polygon fill="black" stroke="black" points="125.431,-340.654 126.405,-330.104 119.065,-337.744 125.431,-340.654"/>
</g>
<!-- strain_H1&#45;&gt;AMPLITUDE_SPECTRAL_DENSITY -->
<g id="edge3" class="edge"><title>strain_H1&#45;&gt;AMPLITUDE_SPECTRAL_DENSITY</title>
<path fill="none" stroke="black" d="M98.9774,-221.697C110.06,-212.881 123.699,-202.032 135.714,-192.474"/>
<polygon fill="black" stroke="black" points="138.075,-195.069 143.722,-186.104 133.717,-189.59 138.075,-195.069"/>
</g>
<!-- strain_L1&#45;&gt;AMPLITUDE_SPECTRAL_DENSITY -->
<g id="edge2" class="edge"><title>strain_L1&#45;&gt;AMPLITUDE_SPECTRAL_DENSITY</title>
<path fill="none" stroke="black" d="M168.989,-221.697C168.438,-213.983 167.775,-204.712 167.161,-196.112"/>
<polygon fill="black" stroke="black" points="170.65,-195.83 166.446,-186.104 163.668,-196.328 170.65,-195.83"/>
</g>
<!-- ASDs_outflow -->
<g id="node12" class="node"><title>ASDs_outflow</title>
<ellipse fill="none" stroke="black" cx="165.225" cy="-31" rx="7" ry="7"/>
</g>
<!-- ASDs&#45;&gt;ASDs_outflow -->
<g id="edge12" class="edge"><title>ASDs&#45;&gt;ASDs_outflow</title>
<path fill="none" stroke="black" d="M165.225,-77.785C165.225,-68.6656 165.225,-57.5197 165.225,-48.5085"/>
<polygon fill="black" stroke="black" points="168.725,-48.242 165.225,-38.242 161.725,-48.2421 168.725,-48.242"/>
</g>
<!-- fs -->
<g id="node8" class="node"><title>fs</title>
<path fill="#ffffff" stroke="black" d="M268.225,-258C268.225,-258 238.225,-258 238.225,-258 232.225,-258 226.225,-252 226.225,-246 226.225,-246 226.225,-234 226.225,-234 226.225,-228 232.225,-222 238.225,-222 238.225,-222 268.225,-222 268.225,-222 274.225,-222 280.225,-228 280.225,-234 280.225,-234 280.225,-246 280.225,-246 280.225,-252 274.225,-258 268.225,-258"/>
<text text-anchor="middle" x="253.225" y="-235.8" font-family="Helvetica,sans-Serif" font-size="14.00">fs</text>
</g>
<!-- fs&#45;&gt;AMPLITUDE_SPECTRAL_DENSITY -->
<g id="edge1" class="edge"><title>fs&#45;&gt;AMPLITUDE_SPECTRAL_DENSITY</title>
<path fill="none" stroke="black" d="M231.472,-221.697C220.389,-212.881 206.751,-202.032 194.735,-192.474"/>
<polygon fill="black" stroke="black" points="196.732,-189.59 186.727,-186.104 192.374,-195.069 196.732,-189.59"/>
</g>
<!-- fs_inflow -->
<g id="node9" class="node"><title>fs_inflow</title>
<ellipse fill="none" stroke="black" cx="266.225" cy="-449" rx="7" ry="7"/>
</g>
<!-- fs_inflow&#45;&gt;fs -->
<g id="edge9" class="edge"><title>fs_inflow&#45;&gt;fs</title>
<path fill="none" stroke="black" d="M271.251,-443.971C277.334,-438.738 287.255,-428.965 291.225,-418 299.092,-396.269 294.623,-388.86 291.225,-366 286.037,-331.098 273.121,-292.455 263.786,-267.506"/>
<polygon fill="black" stroke="black" points="267,-266.111 260.161,-258.019 260.461,-268.61 267,-266.111"/>
</g>
<!-- FN_Detector_inflow -->
<g id="node10" class="node"><title>FN_Detector_inflow</title>
<ellipse fill="none" stroke="black" cx="234.225" cy="-449" rx="7" ry="7"/>
</g>
<!-- FN_Detector_inflow&#45;&gt;FN_Detector -->
<g id="edge10" class="edge"><title>FN_Detector_inflow&#45;&gt;FN_Detector</title>
<path fill="none" stroke="black" d="M234.225,-441.729C234.225,-434.795 234.225,-423.154 234.225,-412.215"/>
<polygon fill="black" stroke="black" points="237.725,-412.119 234.225,-402.119 230.725,-412.119 237.725,-412.119"/>
</g>
<!-- FN_Sampling_rate_inflow -->
<g id="node11" class="node"><title>FN_Sampling_rate_inflow</title>
<ellipse fill="none" stroke="black" cx="202.225" cy="-449" rx="7" ry="7"/>
</g>
<!-- FN_Sampling_rate_inflow&#45;&gt;FN_Sampling_rate -->
<g id="edge11" class="edge"><title>FN_Sampling_rate_inflow&#45;&gt;FN_Sampling_rate</title>
<path fill="none" stroke="black" d="M196.562,-444.432C185.45,-437.432 159.982,-421.387 138.306,-407.731"/>
<polygon fill="black" stroke="black" points="139.937,-404.622 129.61,-402.253 136.205,-410.545 139.937,-404.622"/>
</g>
</g>
</svg>
