<?xml version="1.0" encoding="UTF-8" standalone="no"?>
<!DOCTYPE svg PUBLIC "-//W3C//DTD SVG 1.1//EN"
 "http://www.w3.org/Graphics/SVG/1.1/DTD/svg11.dtd">
<!-- Generated by graphviz version 2.38.0 (20140413.2041)
 -->
<!-- Title: yw_data_view Pages: 1 -->
<svg width="374pt" height="658pt"
 viewBox="0.00 0.00 374.00 658.00" xmlns="http://www.w3.org/2000/svg" xmlns:xlink="http://www.w3.org/1999/xlink">
<g id="graph0" class="graph" transform="scale(1 1) rotate(0) translate(4 654)">
<title>yw_data_view</title>
<polygon fill="white" stroke="none" points="-4,4 -4,-654 370,-654 370,4 -4,4"/>
<text text-anchor="middle" x="183" y="-631.6" font-family="Courier,monospace" font-size="18.00">GRAVITATIONAL_WAVE_DETECTION</text>
<g id="clust3" class="cluster"><title>cluster_inflows</title>
<polygon fill="none" stroke="white" stroke-width="2" points="167,-570 167,-616 277,-616 277,-570 167,-570"/>
</g>
<g id="clust4" class="cluster"><title>cluster_inflows_inner</title>
<polygon fill="none" stroke="white" stroke-width="2" points="175,-578 175,-608 269,-608 269,-578 175,-578"/>
</g>
<g id="clust5" class="cluster"><title>cluster_outflows</title>
<polygon fill="none" stroke="white" stroke-width="2" points="160,-8 160,-54 206,-54 206,-8 160,-8"/>
</g>
<g id="clust6" class="cluster"><title>cluster_outflows_inner</title>
<polygon fill="none" stroke="white" stroke-width="2" points="168,-16 168,-46 198,-46 198,-16 168,-16"/>
</g>
<g id="clust1" class="cluster"><title>cluster_workflow</title>
<polygon fill="none" stroke="black" stroke-width="2" points="8,-62 8,-562 358,-562 358,-62 8,-62"/>
</g>
<g id="clust2" class="cluster"><title>cluster_workflow_inner</title>
<polygon fill="none" stroke="white" stroke-width="2" points="16,-70 16,-554 350,-554 350,-70 16,-70"/>
</g>
<!-- FILTER_DATA -->
<g id="node1" class="node"><title>FILTER_DATA</title>
<polygon fill="#ccffcc" stroke="black" points="223.416,-330 114.584,-330 114.584,-294 223.416,-294 223.416,-330"/>
<text text-anchor="middle" x="169" y="-307.8" font-family="Courier,monospace" font-size="14.00">FILTER_DATA</text>
</g>
<!-- strain_H1_filt -->
<g id="node10" class="node"><title>strain_H1_filt</title>
<path fill="#ffffcc" stroke="black" d="M157.704,-258C157.704,-258 84.2964,-258 84.2964,-258 78.2964,-258 72.2964,-252 72.2964,-246 72.2964,-246 72.2964,-234 72.2964,-234 72.2964,-228 78.2964,-222 84.2964,-222 84.2964,-222 157.704,-222 157.704,-222 163.704,-222 169.704,-228 169.704,-234 169.704,-234 169.704,-246 169.704,-246 169.704,-252 163.704,-258 157.704,-258"/>
<text text-anchor="middle" x="121" y="-235.8" font-family="Helvetica,sans-Serif" font-size="14.00">strain_H1_filt</text>
</g>
<!-- FILTER_DATA&#45;&gt;strain_H1_filt -->
<g id="edge12" class="edge"><title>FILTER_DATA&#45;&gt;strain_H1_filt</title>
<path fill="none" stroke="black" d="M157.135,-293.697C151.497,-285.474 144.646,-275.483 138.431,-266.421"/>
<polygon fill="black" stroke="black" points="141.271,-264.372 132.729,-258.104 135.497,-268.331 141.271,-264.372"/>
</g>
<!-- strain_L1_filt -->
<g id="node11" class="node"><title>strain_L1_filt</title>
<path fill="#ffffcc" stroke="black" d="M271.88,-258C271.88,-258 200.12,-258 200.12,-258 194.12,-258 188.12,-252 188.12,-246 188.12,-246 188.12,-234 188.12,-234 188.12,-228 194.12,-222 200.12,-222 200.12,-222 271.88,-222 271.88,-222 277.88,-222 283.88,-228 283.88,-234 283.88,-234 283.88,-246 283.88,-246 283.88,-252 277.88,-258 271.88,-258"/>
<text text-anchor="middle" x="236" y="-235.8" font-family="Helvetica,sans-Serif" font-size="14.00">strain_L1_filt</text>
</g>
<!-- FILTER_DATA&#45;&gt;strain_L1_filt -->
<g id="edge13" class="edge"><title>FILTER_DATA&#45;&gt;strain_L1_filt</title>
<path fill="none" stroke="black" d="M185.562,-293.697C193.675,-285.22 203.588,-274.864 212.471,-265.583"/>
<polygon fill="black" stroke="black" points="215.243,-267.749 219.629,-258.104 210.186,-262.908 215.243,-267.749"/>
</g>
<!-- FILTER_COEFS -->
<g id="node2" class="node"><title>FILTER_COEFS</title>
<polygon fill="#ccffcc" stroke="black" points="341.317,-474 224.683,-474 224.683,-438 341.317,-438 341.317,-474"/>
<text text-anchor="middle" x="283" y="-451.8" font-family="Courier,monospace" font-size="14.00">FILTER_COEFS</text>
</g>
<!-- COEFFICIENTS -->
<g id="node9" class="node"><title>COEFFICIENTS</title>
<path fill="#ffffcc" stroke="black" d="M330.169,-402C330.169,-402 235.831,-402 235.831,-402 229.831,-402 223.831,-396 223.831,-390 223.831,-390 223.831,-378 223.831,-378 223.831,-372 229.831,-366 235.831,-366 235.831,-366 330.169,-366 330.169,-366 336.169,-366 342.169,-372 342.169,-378 342.169,-378 342.169,-390 342.169,-390 342.169,-396 336.169,-402 330.169,-402"/>
<text text-anchor="middle" x="283" y="-379.8" font-family="Helvetica,sans-Serif" font-size="14.00">COEFFICIENTS</text>
</g>
<!-- FILTER_COEFS&#45;&gt;COEFFICIENTS -->
<g id="edge11" class="edge"><title>FILTER_COEFS&#45;&gt;COEFFICIENTS</title>
<path fill="none" stroke="black" d="M283,-437.697C283,-429.983 283,-420.712 283,-412.112"/>
<polygon fill="black" stroke="black" points="286.5,-412.104 283,-402.104 279.5,-412.104 286.5,-412.104"/>
</g>
<!-- LOAD_DATA -->
<g id="node3" class="node"><title>LOAD_DATA</title>
<polygon fill="#ccffcc" stroke="black" points="170.613,-474 79.3869,-474 79.3869,-438 170.613,-438 170.613,-474"/>
<text text-anchor="middle" x="125" y="-451.8" font-family="Courier,monospace" font-size="14.00">LOAD_DATA</text>
</g>
<!-- strain_H1 -->
<g id="node7" class="node"><title>strain_H1</title>
<path fill="#ffffcc" stroke="black" d="M101.917,-402C101.917,-402 50.083,-402 50.083,-402 44.083,-402 38.083,-396 38.083,-390 38.083,-390 38.083,-378 38.083,-378 38.083,-372 44.083,-366 50.083,-366 50.083,-366 101.917,-366 101.917,-366 107.917,-366 113.917,-372 113.917,-378 113.917,-378 113.917,-390 113.917,-390 113.917,-396 107.917,-402 101.917,-402"/>
<text text-anchor="middle" x="76" y="-379.8" font-family="Helvetica,sans-Serif" font-size="14.00">strain_H1</text>
</g>
<!-- LOAD_DATA&#45;&gt;strain_H1 -->
<g id="edge9" class="edge"><title>LOAD_DATA&#45;&gt;strain_H1</title>
<path fill="none" stroke="black" d="M112.888,-437.697C107.132,-429.474 100.138,-419.483 93.7945,-410.421"/>
<polygon fill="black" stroke="black" points="96.575,-408.29 87.973,-402.104 90.8404,-412.304 96.575,-408.29"/>
</g>
<!-- strain_L1 -->
<g id="node8" class="node"><title>strain_L1</title>
<path fill="#ffffcc" stroke="black" d="M193.594,-402C193.594,-402 144.406,-402 144.406,-402 138.406,-402 132.406,-396 132.406,-390 132.406,-390 132.406,-378 132.406,-378 132.406,-372 138.406,-366 144.406,-366 144.406,-366 193.594,-366 193.594,-366 199.594,-366 205.594,-372 205.594,-378 205.594,-378 205.594,-390 205.594,-390 205.594,-396 199.594,-402 193.594,-402"/>
<text text-anchor="middle" x="169" y="-379.8" font-family="Helvetica,sans-Serif" font-size="14.00">strain_L1</text>
</g>
<!-- LOAD_DATA&#45;&gt;strain_L1 -->
<g id="edge10" class="edge"><title>LOAD_DATA&#45;&gt;strain_L1</title>
<path fill="none" stroke="black" d="M135.876,-437.697C140.992,-429.559 147.195,-419.689 152.845,-410.701"/>
<polygon fill="black" stroke="black" points="155.89,-412.433 158.249,-402.104 149.964,-408.708 155.89,-412.433"/>
</g>
<!-- STRAIN_WAVEFORM_FOR_FILTERED_DATA -->
<g id="node4" class="node"><title>STRAIN_WAVEFORM_FOR_FILTERED_DATA</title>
<polygon fill="#ccffcc" stroke="black" points="329.745,-186 36.2548,-186 36.2548,-150 329.745,-150 329.745,-186"/>
<text text-anchor="middle" x="183" y="-163.8" font-family="Courier,monospace" font-size="14.00">STRAIN_WAVEFORM_FOR_FILTERED_DATA</text>
</g>
<!-- H1_strain_unfiltered -->
<g id="node12" class="node"><title>H1_strain_unfiltered</title>
<path fill="#ffffcc" stroke="black" d="M241.796,-114C241.796,-114 124.204,-114 124.204,-114 118.204,-114 112.204,-108 112.204,-102 112.204,-102 112.204,-90 112.204,-90 112.204,-84 118.204,-78 124.204,-78 124.204,-78 241.796,-78 241.796,-78 247.796,-78 253.796,-84 253.796,-90 253.796,-90 253.796,-102 253.796,-102 253.796,-108 247.796,-114 241.796,-114"/>
<text text-anchor="middle" x="183" y="-91.8" font-family="Helvetica,sans-Serif" font-size="14.00">H1_strain_unfiltered</text>
</g>
<!-- STRAIN_WAVEFORM_FOR_FILTERED_DATA&#45;&gt;H1_strain_unfiltered -->
<g id="edge14" class="edge"><title>STRAIN_WAVEFORM_FOR_FILTERED_DATA&#45;&gt;H1_strain_unfiltered</title>
<path fill="none" stroke="black" d="M183,-149.697C183,-141.983 183,-132.712 183,-124.112"/>
<polygon fill="black" stroke="black" points="186.5,-124.104 183,-114.104 179.5,-124.104 186.5,-124.104"/>
</g>
<!-- FN_Detector -->
<g id="node5" class="node"><title>FN_Detector</title>
<path fill="#ffffcc" stroke="black" d="M257.859,-546C257.859,-546 186.141,-546 186.141,-546 180.141,-546 174.141,-540 174.141,-534 174.141,-534 174.141,-522 174.141,-522 174.141,-516 180.141,-510 186.141,-510 186.141,-510 257.859,-510 257.859,-510 263.859,-510 269.859,-516 269.859,-522 269.859,-522 269.859,-534 269.859,-534 269.859,-540 263.859,-546 257.859,-546"/>
<text text-anchor="middle" x="222" y="-523.8" font-family="Helvetica,sans-Serif" font-size="14.00">FN_Detector</text>
</g>
<!-- FN_Detector&#45;&gt;LOAD_DATA -->
<g id="edge8" class="edge"><title>FN_Detector&#45;&gt;LOAD_DATA</title>
<path fill="none" stroke="black" d="M198.022,-509.697C185.689,-500.796 170.484,-489.823 157.147,-480.199"/>
<polygon fill="black" stroke="black" points="158.859,-477.118 148.702,-474.104 154.763,-482.794 158.859,-477.118"/>
</g>
<!-- FN_Sampling_rate -->
<g id="node6" class="node"><title>FN_Sampling_rate</title>
<path fill="#ffffcc" stroke="black" d="M144.224,-546C144.224,-546 35.7761,-546 35.7761,-546 29.7761,-546 23.7761,-540 23.7761,-534 23.7761,-534 23.7761,-522 23.7761,-522 23.7761,-516 29.7761,-510 35.7761,-510 35.7761,-510 144.224,-510 144.224,-510 150.224,-510 156.224,-516 156.224,-522 156.224,-522 156.224,-534 156.224,-534 156.224,-540 150.224,-546 144.224,-546"/>
<text text-anchor="middle" x="90" y="-523.8" font-family="Helvetica,sans-Serif" font-size="14.00">FN_Sampling_rate</text>
</g>
<!-- FN_Sampling_rate&#45;&gt;LOAD_DATA -->
<g id="edge7" class="edge"><title>FN_Sampling_rate&#45;&gt;LOAD_DATA</title>
<path fill="none" stroke="black" d="M98.6517,-509.697C102.636,-501.728 107.45,-492.1 111.868,-483.264"/>
<polygon fill="black" stroke="black" points="115.106,-484.614 116.448,-474.104 108.845,-481.483 115.106,-484.614"/>
</g>
<!-- strain_H1&#45;&gt;FILTER_DATA -->
<g id="edge6" class="edge"><title>strain_H1&#45;&gt;FILTER_DATA</title>
<path fill="none" stroke="black" d="M98.9888,-365.697C110.814,-356.796 125.392,-345.823 138.179,-336.199"/>
<polygon fill="black" stroke="black" points="140.391,-338.915 146.276,-330.104 136.181,-333.322 140.391,-338.915"/>
</g>
<!-- strain_L1&#45;&gt;FILTER_DATA -->
<g id="edge5" class="edge"><title>strain_L1&#45;&gt;FILTER_DATA</title>
<path fill="none" stroke="black" d="M169,-365.697C169,-357.983 169,-348.712 169,-340.112"/>
<polygon fill="black" stroke="black" points="172.5,-340.104 169,-330.104 165.5,-340.104 172.5,-340.104"/>
</g>
<!-- COEFFICIENTS&#45;&gt;FILTER_DATA -->
<g id="edge3" class="edge"><title>COEFFICIENTS&#45;&gt;FILTER_DATA</title>
<path fill="none" stroke="black" d="M255.112,-365.876C240.207,-356.724 221.671,-345.342 205.618,-335.485"/>
<polygon fill="black" stroke="black" points="207.348,-332.44 196.995,-330.19 203.685,-338.405 207.348,-332.44"/>
</g>
<!-- strain_H1_filt&#45;&gt;STRAIN_WAVEFORM_FOR_FILTERED_DATA -->
<g id="edge2" class="edge"><title>strain_H1_filt&#45;&gt;STRAIN_WAVEFORM_FOR_FILTERED_DATA</title>
<path fill="none" stroke="black" d="M136.326,-221.697C143.759,-213.305 152.823,-203.07 160.98,-193.861"/>
<polygon fill="black" stroke="black" points="163.84,-195.911 167.85,-186.104 158.6,-191.27 163.84,-195.911"/>
</g>
<!-- strain_L1_filt&#45;&gt;STRAIN_WAVEFORM_FOR_FILTERED_DATA -->
<g id="edge1" class="edge"><title>strain_L1_filt&#45;&gt;STRAIN_WAVEFORM_FOR_FILTERED_DATA</title>
<path fill="none" stroke="black" d="M222.899,-221.697C216.609,-213.389 208.953,-203.277 202.035,-194.141"/>
<polygon fill="black" stroke="black" points="204.777,-191.964 195.95,-186.104 199.196,-196.19 204.777,-191.964"/>
</g>
<!-- H1_strain_unfiltered_outflow -->
<g id="node17" class="node"><title>H1_strain_unfiltered_outflow</title>
<ellipse fill="none" stroke="black" cx="183" cy="-31" rx="7" ry="7"/>
</g>
<!-- H1_strain_unfiltered&#45;&gt;H1_strain_unfiltered_outflow -->
<g id="edge18" class="edge"><title>H1_strain_unfiltered&#45;&gt;H1_strain_unfiltered_outflow</title>
<path fill="none" stroke="black" d="M183,-77.785C183,-68.6656 183,-57.5197 183,-48.5085"/>
<polygon fill="black" stroke="black" points="186.5,-48.242 183,-38.242 179.5,-48.2421 186.5,-48.242"/>
</g>
<!-- fs -->
<g id="node13" class="node"><title>fs</title>
<path fill="#ffffff" stroke="black" d="M330,-546C330,-546 300,-546 300,-546 294,-546 288,-540 288,-534 288,-534 288,-522 288,-522 288,-516 294,-510 300,-510 300,-510 330,-510 330,-510 336,-510 342,-516 342,-522 342,-522 342,-534 342,-534 342,-540 336,-546 330,-546"/>
<text text-anchor="middle" x="315" y="-523.8" font-family="Helvetica,sans-Serif" font-size="14.00">fs</text>
</g>
<!-- fs&#45;&gt;FILTER_COEFS -->
<g id="edge4" class="edge"><title>fs&#45;&gt;FILTER_COEFS</title>
<path fill="none" stroke="black" d="M307.09,-509.697C303.447,-501.728 299.046,-492.1 295.006,-483.264"/>
<polygon fill="black" stroke="black" points="298.16,-481.744 290.819,-474.104 291.794,-484.654 298.16,-481.744"/>
</g>
<!-- fs_inflow -->
<g id="node14" class="node"><title>fs_inflow</title>
<ellipse fill="none" stroke="black" cx="254" cy="-593" rx="7" ry="7"/>
</g>
<!-- fs_inflow&#45;&gt;fs -->
<g id="edge15" class="edge"><title>fs_inflow&#45;&gt;fs</title>
<path fill="none" stroke="black" d="M258.387,-587.469C265.283,-580.347 279.143,-566.033 291.422,-553.351"/>
<polygon fill="black" stroke="black" points="293.963,-555.758 298.405,-546.14 288.934,-550.889 293.963,-555.758"/>
</g>
<!-- FN_Detector_inflow -->
<g id="node15" class="node"><title>FN_Detector_inflow</title>
<ellipse fill="none" stroke="black" cx="222" cy="-593" rx="7" ry="7"/>
</g>
<!-- FN_Detector_inflow&#45;&gt;FN_Detector -->
<g id="edge16" class="edge"><title>FN_Detector_inflow&#45;&gt;FN_Detector</title>
<path fill="none" stroke="black" d="M222,-585.729C222,-578.795 222,-567.154 222,-556.215"/>
<polygon fill="black" stroke="black" points="225.5,-556.119 222,-546.119 218.5,-556.119 225.5,-556.119"/>
</g>
<!-- FN_Sampling_rate_inflow -->
<g id="node16" class="node"><title>FN_Sampling_rate_inflow</title>
<ellipse fill="none" stroke="black" cx="190" cy="-593" rx="7" ry="7"/>
</g>
<!-- FN_Sampling_rate_inflow&#45;&gt;FN_Sampling_rate -->
<g id="edge17" class="edge"><title>FN_Sampling_rate_inflow&#45;&gt;FN_Sampling_rate</title>
<path fill="none" stroke="black" d="M184.337,-588.432C173.225,-581.432 147.757,-565.387 126.081,-551.731"/>
<polygon fill="black" stroke="black" points="127.712,-548.622 117.385,-546.253 123.981,-554.545 127.712,-548.622"/>
</g>
</g>
</svg>
