<?xml version="1.0" encoding="UTF-8" standalone="no"?>
<!DOCTYPE svg PUBLIC "-//W3C//DTD SVG 1.1//EN"
 "http://www.w3.org/Graphics/SVG/1.1/DTD/svg11.dtd">
<!-- Generated by graphviz version 2.38.0 (20140413.2041)
 -->
<!-- Title: yw_data_view Pages: 1 -->
<svg width="374pt" height="658pt"
 viewBox="0.00 0.00 374.00 658.00" xmlns="http://www.w3.org/2000/svg" xmlns:xlink="http://www.w3.org/1999/xlink">
<g id="graph0" class="graph" transform="scale(1 1) rotate(0) translate(4 654)">
<title>yw_data_view</title>
<polygon fill="white" stroke="none" points="-4,4 -4,-654 370,-654 370,4 -4,4"/>
<text text-anchor="middle" x="183" y="-631.6" font-family="Courier,monospace" font-size="18.00">GRAVITATIONAL_WAVE_DETECTION</text>
<g id="clust1" class="cluster"><title>cluster_workflow</title>
<polygon fill="none" stroke="black" stroke-width="2" points="8,-62 8,-562 358,-562 358,-62 8,-62"/>
</g>
<g id="clust2" class="cluster"><title>cluster_workflow_inner</title>
<polygon fill="none" stroke="white" stroke-width="2" points="16,-70 16,-554 350,-554 350,-70 16,-70"/>
</g>
<g id="clust3" class="cluster"><title>cluster_inflows</title>
<polygon fill="none" stroke="white" stroke-width="2" points="107,-570 107,-616 217,-616 217,-570 107,-570"/>
</g>
<g id="clust4" class="cluster"><title>cluster_inflows_inner</title>
<polygon fill="none" stroke="white" stroke-width="2" points="115,-578 115,-608 209,-608 209,-578 115,-578"/>
</g>
<g id="clust5" class="cluster"><title>cluster_outflows</title>
<polygon fill="none" stroke="white" stroke-width="2" points="160,-8 160,-54 206,-54 206,-8 160,-8"/>
</g>
<g id="clust6" class="cluster"><title>cluster_outflows_inner</title>
<polygon fill="none" stroke="white" stroke-width="2" points="168,-16 168,-46 198,-46 198,-16 168,-16"/>
</g>
<!-- FILTER_DATA -->
<g id="node1" class="node"><title>FILTER_DATA</title>
<polygon fill="#ccffcc" stroke="black" points="252.416,-330 143.584,-330 143.584,-294 252.416,-294 252.416,-330"/>
<text text-anchor="middle" x="198" y="-307.8" font-family="Courier,monospace" font-size="14.00">FILTER_DATA</text>
</g>
<!-- strain_H1_filt -->
<g id="node10" class="node"><title>strain_H1_filt</title>
<path fill="#ffffcc" stroke="black" d="M163.704,-258C163.704,-258 90.2964,-258 90.2964,-258 84.2964,-258 78.2964,-252 78.2964,-246 78.2964,-246 78.2964,-234 78.2964,-234 78.2964,-228 84.2964,-222 90.2964,-222 90.2964,-222 163.704,-222 163.704,-222 169.704,-222 175.704,-228 175.704,-234 175.704,-234 175.704,-246 175.704,-246 175.704,-252 169.704,-258 163.704,-258"/>
<text text-anchor="middle" x="127" y="-235.8" font-family="Helvetica,sans-Serif" font-size="14.00">strain_H1_filt</text>
</g>
<!-- FILTER_DATA&#45;&gt;strain_H1_filt -->
<g id="edge12" class="edge"><title>FILTER_DATA&#45;&gt;strain_H1_filt</title>
<path fill="none" stroke="black" d="M180.449,-293.697C171.766,-285.135 161.137,-274.656 151.652,-265.304"/>
<polygon fill="black" stroke="black" points="153.927,-262.633 144.349,-258.104 149.012,-267.617 153.927,-262.633"/>
</g>
<!-- strain_L1_filt -->
<g id="node11" class="node"><title>strain_L1_filt</title>
<path fill="#ffffcc" stroke="black" d="M277.88,-258C277.88,-258 206.12,-258 206.12,-258 200.12,-258 194.12,-252 194.12,-246 194.12,-246 194.12,-234 194.12,-234 194.12,-228 200.12,-222 206.12,-222 206.12,-222 277.88,-222 277.88,-222 283.88,-222 289.88,-228 289.88,-234 289.88,-234 289.88,-246 289.88,-246 289.88,-252 283.88,-258 277.88,-258"/>
<text text-anchor="middle" x="242" y="-235.8" font-family="Helvetica,sans-Serif" font-size="14.00">strain_L1_filt</text>
</g>
<!-- FILTER_DATA&#45;&gt;strain_L1_filt -->
<g id="edge13" class="edge"><title>FILTER_DATA&#45;&gt;strain_L1_filt</title>
<path fill="none" stroke="black" d="M208.876,-293.697C213.992,-285.559 220.195,-275.689 225.845,-266.701"/>
<polygon fill="black" stroke="black" points="228.89,-268.433 231.249,-258.104 222.964,-264.708 228.89,-268.433"/>
</g>
<!-- FILTER_COEFS -->
<g id="node2" class="node"><title>FILTER_COEFS</title>
<polygon fill="#ccffcc" stroke="black" points="140.317,-474 23.6834,-474 23.6834,-438 140.317,-438 140.317,-474"/>
<text text-anchor="middle" x="82" y="-451.8" font-family="Courier,monospace" font-size="14.00">FILTER_COEFS</text>
</g>
<!-- COEFFICIENTS -->
<g id="node9" class="node"><title>COEFFICIENTS</title>
<path fill="#ffffcc" stroke="black" d="M130.169,-402C130.169,-402 35.8306,-402 35.8306,-402 29.8306,-402 23.8306,-396 23.8306,-390 23.8306,-390 23.8306,-378 23.8306,-378 23.8306,-372 29.8306,-366 35.8306,-366 35.8306,-366 130.169,-366 130.169,-366 136.169,-366 142.169,-372 142.169,-378 142.169,-378 142.169,-390 142.169,-390 142.169,-396 136.169,-402 130.169,-402"/>
<text text-anchor="middle" x="83" y="-379.8" font-family="Helvetica,sans-Serif" font-size="14.00">COEFFICIENTS</text>
</g>
<!-- FILTER_COEFS&#45;&gt;COEFFICIENTS -->
<g id="edge11" class="edge"><title>FILTER_COEFS&#45;&gt;COEFFICIENTS</title>
<path fill="none" stroke="black" d="M82.2472,-437.697C82.3574,-429.983 82.4898,-420.712 82.6127,-412.112"/>
<polygon fill="black" stroke="black" points="86.1124,-412.153 82.7557,-402.104 79.1131,-412.053 86.1124,-412.153"/>
</g>
<!-- LOAD_DATA -->
<g id="node3" class="node"><title>LOAD_DATA</title>
<polygon fill="#ccffcc" stroke="black" points="292.613,-474 201.387,-474 201.387,-438 292.613,-438 292.613,-474"/>
<text text-anchor="middle" x="247" y="-451.8" font-family="Courier,monospace" font-size="14.00">LOAD_DATA</text>
</g>
<!-- strain_H1 -->
<g id="node7" class="node"><title>strain_H1</title>
<path fill="#ffffcc" stroke="black" d="M223.917,-402C223.917,-402 172.083,-402 172.083,-402 166.083,-402 160.083,-396 160.083,-390 160.083,-390 160.083,-378 160.083,-378 160.083,-372 166.083,-366 172.083,-366 172.083,-366 223.917,-366 223.917,-366 229.917,-366 235.917,-372 235.917,-378 235.917,-378 235.917,-390 235.917,-390 235.917,-396 229.917,-402 223.917,-402"/>
<text text-anchor="middle" x="198" y="-379.8" font-family="Helvetica,sans-Serif" font-size="14.00">strain_H1</text>
</g>
<!-- LOAD_DATA&#45;&gt;strain_H1 -->
<g id="edge9" class="edge"><title>LOAD_DATA&#45;&gt;strain_H1</title>
<path fill="none" stroke="black" d="M234.888,-437.697C229.132,-429.474 222.138,-419.483 215.794,-410.421"/>
<polygon fill="black" stroke="black" points="218.575,-408.29 209.973,-402.104 212.84,-412.304 218.575,-408.29"/>
</g>
<!-- strain_L1 -->
<g id="node8" class="node"><title>strain_L1</title>
<path fill="#ffffcc" stroke="black" d="M315.594,-402C315.594,-402 266.406,-402 266.406,-402 260.406,-402 254.406,-396 254.406,-390 254.406,-390 254.406,-378 254.406,-378 254.406,-372 260.406,-366 266.406,-366 266.406,-366 315.594,-366 315.594,-366 321.594,-366 327.594,-372 327.594,-378 327.594,-378 327.594,-390 327.594,-390 327.594,-396 321.594,-402 315.594,-402"/>
<text text-anchor="middle" x="291" y="-379.8" font-family="Helvetica,sans-Serif" font-size="14.00">strain_L1</text>
</g>
<!-- LOAD_DATA&#45;&gt;strain_L1 -->
<g id="edge10" class="edge"><title>LOAD_DATA&#45;&gt;strain_L1</title>
<path fill="none" stroke="black" d="M257.876,-437.697C262.992,-429.559 269.195,-419.689 274.845,-410.701"/>
<polygon fill="black" stroke="black" points="277.89,-412.433 280.249,-402.104 271.964,-408.708 277.89,-412.433"/>
</g>
<!-- STRAIN_WAVEFORM_FOR_FILTERED_DATA -->
<g id="node4" class="node"><title>STRAIN_WAVEFORM_FOR_FILTERED_DATA</title>
<polygon fill="#ccffcc" stroke="black" points="329.745,-186 36.2548,-186 36.2548,-150 329.745,-150 329.745,-186"/>
<text text-anchor="middle" x="183" y="-163.8" font-family="Courier,monospace" font-size="14.00">STRAIN_WAVEFORM_FOR_FILTERED_DATA</text>
</g>
<!-- H1_strain_filtered -->
<g id="node12" class="node"><title>H1_strain_filtered</title>
<path fill="#ffffcc" stroke="black" d="M233.724,-114C233.724,-114 132.276,-114 132.276,-114 126.276,-114 120.276,-108 120.276,-102 120.276,-102 120.276,-90 120.276,-90 120.276,-84 126.276,-78 132.276,-78 132.276,-78 233.724,-78 233.724,-78 239.724,-78 245.724,-84 245.724,-90 245.724,-90 245.724,-102 245.724,-102 245.724,-108 239.724,-114 233.724,-114"/>
<text text-anchor="middle" x="183" y="-91.8" font-family="Helvetica,sans-Serif" font-size="14.00">H1_strain_filtered</text>
</g>
<!-- STRAIN_WAVEFORM_FOR_FILTERED_DATA&#45;&gt;H1_strain_filtered -->
<g id="edge14" class="edge"><title>STRAIN_WAVEFORM_FOR_FILTERED_DATA&#45;&gt;H1_strain_filtered</title>
<path fill="none" stroke="black" d="M183,-149.697C183,-141.983 183,-132.712 183,-124.112"/>
<polygon fill="black" stroke="black" points="186.5,-124.104 183,-114.104 179.5,-124.104 186.5,-124.104"/>
</g>
<!-- FN_Detector -->
<g id="node5" class="node"><title>FN_Detector</title>
<path fill="#ffffcc" stroke="black" d="M329.859,-546C329.859,-546 258.141,-546 258.141,-546 252.141,-546 246.141,-540 246.141,-534 246.141,-534 246.141,-522 246.141,-522 246.141,-516 252.141,-510 258.141,-510 258.141,-510 329.859,-510 329.859,-510 335.859,-510 341.859,-516 341.859,-522 341.859,-522 341.859,-534 341.859,-534 341.859,-540 335.859,-546 329.859,-546"/>
<text text-anchor="middle" x="294" y="-523.8" font-family="Helvetica,sans-Serif" font-size="14.00">FN_Detector</text>
</g>
<!-- FN_Detector&#45;&gt;LOAD_DATA -->
<g id="edge8" class="edge"><title>FN_Detector&#45;&gt;LOAD_DATA</title>
<path fill="none" stroke="black" d="M282.382,-509.697C276.861,-501.474 270.153,-491.483 264.068,-482.421"/>
<polygon fill="black" stroke="black" points="266.965,-480.456 258.484,-474.104 261.153,-484.358 266.965,-480.456"/>
</g>
<!-- FN_Sampling_rate -->
<g id="node6" class="node"><title>FN_Sampling_rate</title>
<path fill="#ffffcc" stroke="black" d="M216.224,-546C216.224,-546 107.776,-546 107.776,-546 101.776,-546 95.7761,-540 95.7761,-534 95.7761,-534 95.7761,-522 95.7761,-522 95.7761,-516 101.776,-510 107.776,-510 107.776,-510 216.224,-510 216.224,-510 222.224,-510 228.224,-516 228.224,-522 228.224,-522 228.224,-534 228.224,-534 228.224,-540 222.224,-546 216.224,-546"/>
<text text-anchor="middle" x="162" y="-523.8" font-family="Helvetica,sans-Serif" font-size="14.00">FN_Sampling_rate</text>
</g>
<!-- FN_Sampling_rate&#45;&gt;LOAD_DATA -->
<g id="edge7" class="edge"><title>FN_Sampling_rate&#45;&gt;LOAD_DATA</title>
<path fill="none" stroke="black" d="M183.011,-509.697C193.716,-500.881 206.89,-490.032 218.496,-480.474"/>
<polygon fill="black" stroke="black" points="220.736,-483.163 226.23,-474.104 216.286,-477.76 220.736,-483.163"/>
</g>
<!-- strain_H1&#45;&gt;FILTER_DATA -->
<g id="edge6" class="edge"><title>strain_H1&#45;&gt;FILTER_DATA</title>
<path fill="none" stroke="black" d="M198,-365.697C198,-357.983 198,-348.712 198,-340.112"/>
<polygon fill="black" stroke="black" points="201.5,-340.104 198,-330.104 194.5,-340.104 201.5,-340.104"/>
</g>
<!-- strain_L1&#45;&gt;FILTER_DATA -->
<g id="edge5" class="edge"><title>strain_L1&#45;&gt;FILTER_DATA</title>
<path fill="none" stroke="black" d="M268.011,-365.697C256.186,-356.796 241.608,-345.823 228.821,-336.199"/>
<polygon fill="black" stroke="black" points="230.819,-333.322 220.724,-330.104 226.609,-338.915 230.819,-333.322"/>
</g>
<!-- COEFFICIENTS&#45;&gt;FILTER_DATA -->
<g id="edge3" class="edge"><title>COEFFICIENTS&#45;&gt;FILTER_DATA</title>
<path fill="none" stroke="black" d="M111.132,-365.876C126.168,-356.724 144.867,-345.342 161.06,-335.485"/>
<polygon fill="black" stroke="black" points="163.038,-338.379 169.76,-330.19 159.398,-332.4 163.038,-338.379"/>
</g>
<!-- strain_H1_filt&#45;&gt;STRAIN_WAVEFORM_FOR_FILTERED_DATA -->
<g id="edge2" class="edge"><title>strain_H1_filt&#45;&gt;STRAIN_WAVEFORM_FOR_FILTERED_DATA</title>
<path fill="none" stroke="black" d="M140.843,-221.697C147.489,-213.389 155.578,-203.277 162.887,-194.141"/>
<polygon fill="black" stroke="black" points="165.803,-196.099 169.317,-186.104 160.336,-191.727 165.803,-196.099"/>
</g>
<!-- strain_L1_filt&#45;&gt;STRAIN_WAVEFORM_FOR_FILTERED_DATA -->
<g id="edge1" class="edge"><title>strain_L1_filt&#45;&gt;STRAIN_WAVEFORM_FOR_FILTERED_DATA</title>
<path fill="none" stroke="black" d="M227.416,-221.697C220.342,-213.305 211.717,-203.07 203.955,-193.861"/>
<polygon fill="black" stroke="black" points="206.537,-191.495 197.417,-186.104 201.185,-196.006 206.537,-191.495"/>
</g>
<!-- H1_strain_filtered_outflow -->
<g id="node17" class="node"><title>H1_strain_filtered_outflow</title>
<ellipse fill="none" stroke="black" cx="183" cy="-31" rx="7" ry="7"/>
</g>
<!-- H1_strain_filtered&#45;&gt;H1_strain_filtered_outflow -->
<g id="edge18" class="edge"><title>H1_strain_filtered&#45;&gt;H1_strain_filtered_outflow</title>
<path fill="none" stroke="black" d="M183,-77.785C183,-68.6656 183,-57.5197 183,-48.5085"/>
<polygon fill="black" stroke="black" points="186.5,-48.242 183,-38.242 179.5,-48.2421 186.5,-48.242"/>
</g>
<!-- fs -->
<g id="node13" class="node"><title>fs</title>
<path fill="#ffffff" stroke="black" d="M66,-546C66,-546 36,-546 36,-546 30,-546 24,-540 24,-534 24,-534 24,-522 24,-522 24,-516 30,-510 36,-510 36,-510 66,-510 66,-510 72,-510 78,-516 78,-522 78,-522 78,-534 78,-534 78,-540 72,-546 66,-546"/>
<text text-anchor="middle" x="51" y="-523.8" font-family="Helvetica,sans-Serif" font-size="14.00">fs</text>
</g>
<!-- fs&#45;&gt;FILTER_COEFS -->
<g id="edge4" class="edge"><title>fs&#45;&gt;FILTER_COEFS</title>
<path fill="none" stroke="black" d="M58.6629,-509.697C62.1917,-501.728 66.4559,-492.1 70.3687,-483.264"/>
<polygon fill="black" stroke="black" points="73.5761,-484.665 74.4252,-474.104 67.1757,-481.831 73.5761,-484.665"/>
</g>
<!-- fs_inflow -->
<g id="node14" class="node"><title>fs_inflow</title>
<ellipse fill="none" stroke="black" cx="130" cy="-593" rx="7" ry="7"/>
</g>
<!-- fs_inflow&#45;&gt;fs -->
<g id="edge15" class="edge"><title>fs_inflow&#45;&gt;fs</title>
<path fill="none" stroke="black" d="M124.539,-588.526C116.208,-583.152 99.928,-572.36 87,-562 83.4809,-559.18 79.8702,-556.107 76.3577,-553.009"/>
<polygon fill="black" stroke="black" points="78.6662,-550.378 68.8992,-546.272 73.9741,-555.572 78.6662,-550.378"/>
</g>
<!-- FN_Detector_inflow -->
<g id="node15" class="node"><title>FN_Detector_inflow</title>
<ellipse fill="none" stroke="black" cx="194" cy="-593" rx="7" ry="7"/>
</g>
<!-- FN_Detector_inflow&#45;&gt;FN_Detector -->
<g id="edge16" class="edge"><title>FN_Detector_inflow&#45;&gt;FN_Detector</title>
<path fill="none" stroke="black" d="M199.663,-588.432C210.775,-581.432 236.243,-565.387 257.919,-551.731"/>
<polygon fill="black" stroke="black" points="260.019,-554.545 266.615,-546.253 256.288,-548.622 260.019,-554.545"/>
</g>
<!-- FN_Sampling_rate_inflow -->
<g id="node16" class="node"><title>FN_Sampling_rate_inflow</title>
<ellipse fill="none" stroke="black" cx="162" cy="-593" rx="7" ry="7"/>
</g>
<!-- FN_Sampling_rate_inflow&#45;&gt;FN_Sampling_rate -->
<g id="edge17" class="edge"><title>FN_Sampling_rate_inflow&#45;&gt;FN_Sampling_rate</title>
<path fill="none" stroke="black" d="M162,-585.729C162,-578.795 162,-567.154 162,-556.215"/>
<polygon fill="black" stroke="black" points="165.5,-556.119 162,-546.119 158.5,-556.119 165.5,-556.119"/>
</g>
</g>
</svg>
